<svg width="396" height="76" viewBox="0 0 396 76" fill="none" xmlns="http://www.w3.org/2000/svg">
<path d="M395.951 48.8691L382.181 38.3621L379.966 55.5405L395.951 48.8691ZM77.1269 1.40768C76.9794 0.592503 76.1989 0.0513162 75.3837 0.198902C74.5685 0.346487 74.0273 1.12696 74.1749 1.94213L77.1269 1.40768ZM219.951 48.869L219.841 50.365L219.951 48.869ZM74.7767 5.56536C74.9002 6.38453 75.6644 6.94846 76.4836 6.82495C77.3027 6.70144 77.8667 5.93724 77.7432 5.11807L74.7767 5.56536ZM78.5901 12.1991C78.5183 11.3738 77.791 10.7629 76.9657 10.8347C76.1404 10.9065 75.5295 11.6338 75.6013 12.4591L78.5901 12.1991ZM75.9543 19.4564C75.9642 20.2848 76.6437 20.9483 77.4721 20.9385C78.3005 20.9286 78.964 20.2491 78.9541 19.4207L75.9543 19.4564ZM78.745 26.4443C78.806 25.6182 78.1858 24.8989 77.3596 24.8379C76.5334 24.7768 75.8142 25.3971 75.7531 26.2233L78.745 26.4443ZM74.8744 33.2109C74.7265 34.026 75.2674 34.8067 76.0825 34.9546C76.8976 35.1025 77.6783 34.5616 77.8262 33.7464L74.8744 33.2109ZM76.1114 40.7889C76.3571 39.9977 75.915 39.1572 75.1239 38.9114C74.3328 38.6656 73.4922 39.1077 73.2464 39.8989L76.1114 40.7889ZM70.7874 46.2556C70.4346 47.0051 70.7563 47.8987 71.5059 48.2515C72.2554 48.6043 73.1491 48.2826 73.5018 47.533L70.7874 46.2556ZM69.9204 53.8528C70.3834 53.1659 70.202 52.2336 69.515 51.7706C68.8281 51.3075 67.8959 51.489 67.4328 52.1759L69.9204 53.8528ZM63.1823 57.5026C62.6149 58.1063 62.6444 59.0556 63.2481 59.6229C63.8517 60.1902 64.801 60.1608 65.3684 59.5571L63.1823 57.5026ZM59.9419 64.47C60.5984 63.9646 60.7209 63.0228 60.2156 62.3664C59.7103 61.7099 58.7685 61.5874 58.112 62.0927L59.9419 64.47ZM52.3824 65.8411C51.6572 66.2416 51.394 67.1542 51.7945 67.8793C52.195 68.6045 53.1076 68.8677 53.8327 68.4672L52.3824 65.8411ZM47.2263 71.5293C48 71.2332 48.3872 70.366 48.0911 69.5923C47.795 68.8186 46.9277 68.4314 46.154 68.7275L47.2263 71.5293ZM39.5811 70.7681C38.7761 70.9636 38.282 71.7748 38.4776 72.5798C38.6732 73.3848 39.4843 73.8789 40.2893 73.6833L39.5811 70.7681ZM33.1566 74.9694C33.9791 74.8707 34.5659 74.124 34.4672 73.3014C34.3686 72.4789 33.6218 71.8921 32.7992 71.9908L33.1566 74.9694ZM25.8975 72.4113C25.0691 72.4129 24.3988 73.0857 24.4004 73.9141C24.4019 74.7426 25.0748 75.4129 25.9032 75.4113L25.8975 72.4113ZM18.6157 74.9705C19.4376 75.0744 20.1881 74.4923 20.2919 73.6705C20.3958 72.8486 19.8137 72.0981 18.9918 71.9942L18.6157 74.9705ZM12.2828 70.6172C11.489 70.3804 10.6535 70.8321 10.4167 71.626C10.18 72.4198 10.6317 73.2553 11.4255 73.4921L12.2828 70.6172ZM4.57421 70.4291C5.26147 70.8917 6.19359 70.7095 6.65615 70.0223C7.11872 69.335 6.93657 68.4029 6.24931 67.9403L4.57421 70.4291ZM3.35871 63.6634C3.44393 62.8394 2.84501 62.1023 2.02098 62.0171C1.19695 61.9318 0.45985 62.5307 0.374623 63.3548L3.35871 63.6634ZM5.08012 56.8604C4.40025 57.3338 4.23284 58.2687 4.70619 58.9485C5.17955 59.6284 6.11442 59.7958 6.7943 59.3225L5.08012 56.8604ZM12.8694 56.1873C13.6379 55.8778 14.0099 55.004 13.7004 54.2355C13.3909 53.4671 12.5171 53.095 11.7487 53.4045L12.8694 56.1873ZM18.4949 51.1116C17.6991 51.3421 17.2408 52.1739 17.4713 52.9697C17.7017 53.7654 18.5335 54.2237 19.3293 53.9933L18.4949 51.1116ZM25.9663 52.3061C26.7747 52.1251 27.2834 51.323 27.1024 50.5146C26.9214 49.7062 26.1193 49.1976 25.3109 49.3785L25.9663 52.3061ZM32.4196 47.9604C31.604 48.1054 31.0603 48.8841 31.2053 49.6998C31.3503 50.5154 32.1291 51.0591 32.9447 50.9141L32.4196 47.9604ZM39.8112 49.8127C40.6311 49.6942 41.1997 48.9335 41.0812 48.1136C40.9627 47.2937 40.202 46.7251 39.3821 46.8436L39.8112 49.8127ZM46.4485 45.9191C45.6258 46.0163 45.0376 46.762 45.1348 47.5847C45.232 48.4074 45.9777 48.9956 46.8004 48.8984L46.4485 45.9191ZM53.7443 48.1545C54.5688 48.0747 55.1726 47.3415 55.0927 46.517C55.0129 45.6924 54.2797 45.0887 53.4552 45.1685L53.7443 48.1545ZM60.68 44.5372C59.8541 44.602 59.2372 45.3241 59.3019 46.15C59.3667 46.9759 60.0888 47.5928 60.9147 47.5281L60.68 44.5372ZM67.7271 47.0457C68.5539 46.9932 69.1815 46.2804 69.129 45.4537C69.0765 44.6269 68.3637 43.9993 67.5369 44.0518L67.7271 47.0457ZM74.8385 43.6397C74.0111 43.6808 73.3736 44.3849 73.4147 45.2123C73.4558 46.0397 74.1599 46.6771 74.9873 46.636L74.8385 43.6397ZM81.9136 46.3332C82.7415 46.3017 83.3871 45.6051 83.3556 44.7772C83.3241 43.9494 82.6275 43.3038 81.7997 43.3353L81.9136 46.3332ZM88.7697 43.1073C87.9416 43.1302 87.2888 43.82 87.3116 44.6481C87.3345 45.4762 88.0243 46.129 88.8524 46.1062L88.7697 43.1073ZM96.14 45.9417C96.9683 45.927 97.6278 45.2437 97.6132 44.4154C97.5985 43.5871 96.9151 42.9275 96.0868 42.9422L96.14 45.9417ZM103.085 42.8486C102.256 42.8562 101.591 43.5339 101.598 44.3623C101.606 45.1907 102.284 45.8561 103.112 45.8485L103.085 42.8486ZM110.004 45.8125C110.833 45.8114 111.503 45.1389 111.502 44.3104C111.501 43.482 110.829 42.8114 110 42.8125L110.004 45.8125ZM117.191 42.8296C116.362 42.8246 115.687 43.4921 115.682 44.3205C115.677 45.1489 116.344 45.8245 117.172 45.8295L117.191 42.8296ZM124.497 45.8997C125.325 45.9105 126.006 45.2478 126.016 44.4194C126.027 43.5911 125.365 42.9108 124.536 42.9L124.497 45.8997ZM131.311 43.009C130.483 42.9932 129.799 43.6518 129.783 44.4801C129.767 45.3084 130.426 45.9927 131.254 46.0084L131.311 43.009ZM138.232 46.1619C139.06 46.1825 139.748 45.5278 139.769 44.6997C139.789 43.8715 139.135 43.1834 138.306 43.1628L138.232 46.1619ZM145.525 43.3628C144.697 43.3376 144.005 43.9884 143.98 44.8164C143.955 45.6445 144.606 46.3362 145.434 46.3614L145.525 43.3628ZM152.756 46.6044C153.584 46.6341 154.279 45.987 154.309 45.1591C154.339 44.3312 153.692 43.636 152.864 43.6064L152.756 46.6044ZM159.636 43.865C158.808 43.8315 158.11 44.4753 158.077 45.3031C158.043 46.1308 158.687 46.829 159.515 46.8625L159.636 43.865ZM166.454 47.1594C167.282 47.1967 167.983 46.556 168.02 45.7284C168.058 44.9008 167.417 44.1997 166.589 44.1624L166.454 47.1594ZM173.726 44.4996C172.898 44.4587 172.194 45.0963 172.153 45.9238C172.113 46.7512 172.75 47.4551 173.578 47.496L173.726 44.4996ZM180.886 47.8731C181.713 47.9176 182.42 47.283 182.464 46.4557C182.509 45.6285 181.874 44.9219 181.047 44.8774L180.886 47.8731ZM188.071 45.2687C187.244 45.221 186.535 45.8528 186.488 46.6799C186.44 47.5069 187.072 48.216 187.899 48.2637L188.071 45.2687ZM194.729 48.67C195.556 48.7207 196.268 48.0914 196.318 47.2646C196.369 46.4377 195.74 45.7263 194.913 45.6756L194.729 48.67ZM201.906 46.1167C201.079 46.0631 200.366 46.6898 200.312 47.5165C200.258 48.3432 200.885 49.0568 201.712 49.1104L201.906 46.1167ZM208.847 49.5856C209.674 49.6421 210.39 49.0179 210.446 48.1914C210.503 47.3649 209.878 46.6491 209.052 46.5926L208.847 49.5856ZM216.352 47.1039C215.526 47.0447 214.808 47.6665 214.749 48.4928C214.689 49.3191 215.311 50.037 216.138 50.0962L216.352 47.1039ZM223.273 50.6109C224.1 50.6686 224.817 50.0454 224.874 49.219C224.932 48.3926 224.309 47.6759 223.482 47.6182L223.273 50.6109ZM230.205 48.0634C229.379 48.0117 228.666 48.64 228.615 49.4668C228.563 50.2936 229.191 51.0058 230.018 51.0576L230.205 48.0634ZM236.802 51.4565C237.629 51.502 238.336 50.8683 238.382 50.0411C238.427 49.2139 237.794 48.5065 236.966 48.461L236.802 51.4565ZM243.743 48.8068C242.915 48.7678 242.213 49.4071 242.174 50.2347C242.135 51.0622 242.775 51.7645 243.602 51.8034L243.743 48.8068ZM250.389 52.0946C251.216 52.1267 251.913 51.4816 251.945 50.6538C251.978 49.826 251.332 49.1289 250.505 49.0969L250.389 52.0946ZM257.258 49.3296C256.43 49.3046 255.739 49.9557 255.714 50.7837C255.689 51.6118 256.34 52.3033 257.168 52.3282L257.258 49.3296ZM263.946 52.5024C264.774 52.5199 265.459 51.8628 265.477 51.0345C265.495 50.2063 264.837 49.5206 264.009 49.5031L263.946 52.5024ZM270.762 49.6152C269.933 49.6053 269.254 50.2688 269.244 51.0971C269.234 51.9255 269.897 52.6051 270.726 52.615L270.762 49.6152ZM277.511 52.6639C278.34 52.6659 279.013 51.996 279.015 51.1676C279.017 50.3391 278.347 49.666 277.518 49.6639L277.511 52.6639ZM284.281 49.6475C283.452 49.6536 282.785 50.33 282.792 51.1584C282.798 51.9868 283.474 52.6535 284.302 52.6474L284.281 49.6475ZM291.099 52.5641C291.927 52.5498 292.587 51.8668 292.573 51.0385C292.559 50.2102 291.876 49.5503 291.047 49.5645L291.099 52.5641ZM297.816 49.4145C296.988 49.4369 296.335 50.1265 296.358 50.9546C296.38 51.7827 297.07 52.4358 297.898 52.4134L297.816 49.4145ZM304.694 52.1962C305.522 52.1657 306.169 51.47 306.138 50.6421C306.108 49.8142 305.412 49.1678 304.584 49.1982L304.694 52.1962ZM311.345 48.9183C310.518 48.9563 309.878 49.6579 309.916 50.4855C309.954 51.3131 310.655 51.9531 311.483 51.9151L311.345 48.9183ZM318.257 51.5753C319.084 51.5304 319.719 50.8235 319.674 49.9963C319.629 49.1691 318.922 48.5348 318.095 48.5797L318.257 51.5753ZM324.836 48.1902C324.009 48.2407 323.38 48.952 323.43 49.7789C323.481 50.6057 324.192 51.2351 325.019 51.1847L324.836 48.1902ZM331.806 50.7527C332.633 50.6983 333.259 49.984 333.204 49.1574C333.15 48.3307 332.436 47.7047 331.609 47.7591L331.806 50.7527ZM338.358 47.3069C337.532 47.3628 336.907 48.0782 336.963 48.9047C337.019 49.7312 337.734 50.356 338.56 50.3001L338.358 47.3069ZM345.326 49.8477C346.152 49.7936 346.779 49.0797 346.725 48.253C346.671 47.4263 345.957 46.8 345.13 46.8541L345.326 49.8477ZM351.894 46.4333C351.067 46.4813 350.436 47.1907 350.484 48.0177C350.532 48.8448 351.241 49.4763 352.068 49.4282L351.894 46.4333ZM358.824 49.0776C359.651 49.0407 360.292 48.3399 360.256 47.5123C360.219 46.6847 359.518 46.0437 358.69 46.0806L358.824 49.0776ZM365.49 45.8426C364.662 45.8627 364.007 46.5503 364.027 47.3785C364.047 48.2067 364.735 48.8618 365.563 48.8417L365.49 45.8426ZM372.295 48.767C373.123 48.7697 373.797 48.1003 373.8 47.2719C373.802 46.4435 373.133 45.7697 372.304 45.7671L372.295 48.767ZM379.131 45.9015C378.303 45.8707 377.607 46.5169 377.577 47.3448C377.546 48.1726 378.192 48.8687 379.02 48.8994L379.131 45.9015ZM385.725 49.2767C386.551 49.3396 387.271 48.721 387.334 47.8949C387.397 47.0689 386.779 46.3483 385.953 46.2854L385.725 49.2767ZM392.761 46.9455C391.938 46.8483 391.192 47.4364 391.095 48.2591C390.998 49.0818 391.586 49.8276 392.409 49.9248L392.761 46.9455ZM74.1749 1.94213C74.3972 3.16973 74.5976 4.37738 74.7767 5.56536L77.7432 5.11807C77.5595 3.90033 77.3543 2.66361 77.1269 1.40768L74.1749 1.94213ZM75.6013 12.4591C75.8121 14.882 75.9276 17.2135 75.9543 19.4564L78.9541 19.4207C78.9265 17.0996 78.807 14.6932 78.5901 12.1991L75.6013 12.4591ZM75.7531 26.2233C75.5722 28.6716 75.2756 30.9991 74.8744 33.2109L77.8262 33.7464C78.2471 31.4263 78.5566 28.9936 78.745 26.4443L75.7531 26.2233ZM73.2464 39.8989C72.5443 42.1592 71.7193 44.2755 70.7874 46.2556L73.5018 47.533C74.4941 45.4247 75.369 43.1786 76.1114 40.7889L73.2464 39.8989ZM67.4328 52.1759C66.1278 54.1117 64.7036 55.8839 63.1823 57.5026L65.3684 59.5571C66.9985 57.8226 68.5238 55.9244 69.9204 53.8528L67.4328 52.1759ZM58.112 62.0927C56.2812 63.502 54.3623 64.7476 52.3824 65.8411L53.8327 68.4672C55.9387 67.3041 57.9852 65.9762 59.9419 64.47L58.112 62.0927ZM46.154 68.7275C43.9879 69.5565 41.7865 70.2324 39.5811 70.7681L40.2893 73.6833C42.6116 73.1192 44.9351 72.4062 47.2263 71.5293L46.154 68.7275ZM32.7992 71.9908C30.4484 72.2728 28.1343 72.4071 25.8975 72.4113L25.9032 75.4113C28.2555 75.4069 30.6871 75.2656 33.1566 74.9694L32.7992 71.9908ZM18.9918 71.9942C16.5433 71.6848 14.2837 71.2138 12.2828 70.6172L11.4255 73.4921C13.6008 74.1407 16.0229 74.6429 18.6157 74.9705L18.9918 71.9942ZM6.24931 67.9403C3.99368 66.4222 3.22823 64.9249 3.35871 63.6634L0.374623 63.3548C0.0744966 66.2566 1.95667 68.6674 4.57421 70.4291L6.24931 67.9403ZM6.7943 59.3225C8.27758 58.2897 10.2748 57.2322 12.8694 56.1873L11.7487 53.4045C9.01089 54.5071 6.79904 55.6636 5.08012 56.8604L6.7943 59.3225ZM19.3293 53.9933C21.3308 53.4137 23.539 52.8495 25.9663 52.3061L25.3109 49.3785C22.8307 49.9338 20.5623 50.513 18.4949 51.1116L19.3293 53.9933ZM32.9447 50.9141C35.0993 50.531 37.3864 50.1632 39.8112 49.8127L39.3821 46.8436C36.9276 47.1983 34.6084 47.5713 32.4196 47.9604L32.9447 50.9141ZM46.8004 48.8984C49.017 48.6366 51.3306 48.3882 53.7443 48.1545L53.4552 45.1685C51.0216 45.4041 48.687 45.6547 46.4485 45.9191L46.8004 48.8984ZM60.9147 47.5281C63.112 47.3557 65.3822 47.1947 67.7271 47.0457L67.5369 44.0518C65.1778 44.2016 62.8927 44.3637 60.68 44.5372L60.9147 47.5281ZM74.9873 46.636C77.2338 46.5245 79.5422 46.4233 81.9136 46.3332L81.7997 43.3353C79.417 43.4259 77.097 43.5276 74.8385 43.6397L74.9873 46.636ZM88.8524 46.1062C91.2231 46.0408 93.6519 45.9858 96.14 45.9417L96.0868 42.9422C93.5892 42.9865 91.1505 43.0417 88.7697 43.1073L88.8524 46.1062ZM103.112 45.8485C105.364 45.8279 107.661 45.8158 110.004 45.8125L110 42.8125C107.649 42.8158 105.344 42.8279 103.085 42.8486L103.112 45.8485ZM117.172 45.8295C119.569 45.844 122.01 45.8673 124.497 45.8997L124.536 42.9C122.042 42.8675 119.594 42.8441 117.191 42.8296L117.172 45.8295ZM131.254 46.0084C133.543 46.0521 135.869 46.1032 138.232 46.1619L138.306 43.1628C135.938 43.1039 133.606 43.0527 131.311 43.009L131.254 46.0084ZM145.434 46.3614C147.838 46.4347 150.278 46.5156 152.756 46.6044L152.864 43.6064C150.381 43.5174 147.934 43.4363 145.525 43.3628L145.434 46.3614ZM159.515 46.8625C161.798 46.955 164.111 47.0539 166.454 47.1594L166.589 44.1624C164.241 44.0567 161.924 43.9576 159.636 43.865L159.515 46.8625ZM173.578 47.496C175.983 47.6149 178.419 47.7405 180.886 47.8731L181.047 44.8774C178.576 44.7446 176.135 44.6188 173.726 44.4996L173.578 47.496ZM187.899 48.2637C190.151 48.3935 192.427 48.5289 194.729 48.67L194.913 45.6756C192.607 45.5343 190.327 45.3987 188.071 45.2687L187.899 48.2637ZM201.712 49.1104C204.065 49.263 206.443 49.4214 208.847 49.5856L209.052 46.5926C206.644 46.4281 204.262 46.2695 201.906 46.1167L201.712 49.1104ZM216.138 50.0962C217.365 50.1843 218.6 50.2739 219.841 50.365L220.06 47.373C218.818 47.2818 217.582 47.1921 216.352 47.1039L216.138 50.0962ZM219.841 50.365C220.994 50.4496 222.138 50.5316 223.273 50.6109L223.482 47.6182C222.351 47.5391 221.21 47.4574 220.06 47.373L219.841 50.365ZM230.018 51.0576C232.317 51.2014 234.577 51.3342 236.802 51.4565L236.966 48.461C234.75 48.3391 232.496 48.2068 230.205 48.0634L230.018 51.0576ZM243.602 51.8034C245.904 51.9117 248.166 52.0085 250.389 52.0946L250.505 49.0969C248.29 49.0111 246.037 48.9146 243.743 48.8068L243.602 51.8034ZM257.168 52.3282C259.47 52.3976 261.729 52.4554 263.946 52.5024L264.009 49.5031C261.802 49.4562 259.552 49.3987 257.258 49.3296L257.168 52.3282ZM270.726 52.615C273.034 52.6426 275.295 52.6585 277.511 52.6639L277.518 49.6639C275.312 49.6586 273.061 49.6427 270.762 49.6152L270.726 52.615ZM284.302 52.6474C286.619 52.6305 288.883 52.6022 291.099 52.5641L291.047 49.5645C288.841 49.6025 286.586 49.6306 284.281 49.6475L284.302 52.6474ZM297.898 52.4134C300.217 52.3506 302.481 52.2775 304.694 52.1962L304.584 49.1982C302.381 49.2792 300.126 49.3519 297.816 49.4145L297.898 52.4134ZM311.483 51.9151C313.797 51.8088 316.054 51.6947 318.257 51.5753L318.095 48.5797C315.899 48.6987 313.65 48.8124 311.345 48.9183L311.483 51.9151ZM325.019 51.1847C327.338 51.0431 329.598 50.898 331.806 50.7527L331.609 47.7591C329.404 47.9043 327.149 48.049 324.836 48.1902L325.019 51.1847ZM338.56 50.3001C340.868 50.1441 343.12 49.9919 345.326 49.8477L345.13 46.8541C342.92 46.9986 340.665 47.151 338.358 47.3069L338.56 50.3001ZM352.068 49.4282C354.361 49.295 356.609 49.1764 358.824 49.0776L358.69 46.0806C356.459 46.1801 354.198 46.2995 351.894 46.4333L352.068 49.4282ZM365.563 48.8417C367.828 48.7868 370.068 48.7599 372.295 48.767L372.304 45.7671C370.047 45.7598 367.779 45.7871 365.49 45.8426L365.563 48.8417ZM379.02 48.8994C381.25 48.9823 383.481 49.106 385.725 49.2767L385.953 46.2854C383.668 46.1115 381.398 45.9857 379.131 45.9015L379.02 48.8994Z" fill="black" fill-opacity="0.56"/>
</svg>
