<svg width="156" height="126" viewBox="0 0 156 126" fill="none" xmlns="http://www.w3.org/2000/svg">
<path d="M155.536 125.366L152.29 108.352L139.179 119.67L155.536 125.366ZM56.9578 2.85146C57.31 2.10162 56.9876 1.20826 56.2378 0.856079C55.4879 0.503902 54.5946 0.826272 54.2424 1.57611L56.9578 2.85146ZM92.0305 67.0528L90.9378 68.0804L92.0305 67.0528ZM52.6182 4.95268C52.252 5.69577 52.5575 6.59504 53.3006 6.96126C54.0437 7.32748 54.9429 7.02198 55.3092 6.2789L52.6182 4.95268ZM52.0334 12.6073C52.4296 11.8798 52.1611 10.9688 51.4336 10.5725C50.7061 10.1763 49.7951 10.4448 49.3988 11.1723L52.0334 12.6073ZM45.7779 17.4379C45.3439 18.1435 45.5642 19.0674 46.2698 19.5014C46.9755 19.9354 47.8993 19.7152 48.3333 19.0095L45.7779 17.4379ZM44.3182 25.0938C44.7984 24.4187 44.6404 23.4822 43.9653 23.002C43.2902 22.5219 42.3537 22.6799 41.8735 23.355L44.3182 25.0938ZM37.5632 28.9015C37.0244 29.5308 37.0979 30.4777 37.7272 31.0164C38.3565 31.5552 39.3034 31.4817 39.8422 30.8524L37.5632 28.9015ZM34.7171 36.155C35.3323 35.6002 35.3812 34.6517 34.8264 34.0365C34.2715 33.4214 33.3231 33.3724 32.7079 33.9272L34.7171 36.155ZM27.2128 38.0424C26.5004 38.4653 26.2657 39.3856 26.6886 40.0979C27.1114 40.8103 28.0317 41.045 28.7441 40.6221L27.2128 38.0424ZM21.708 43.4947C22.5173 43.3175 23.0297 42.5179 22.8525 41.7086C22.6753 40.8994 21.8757 40.387 21.0664 40.5641L21.708 43.4947ZM14.6528 40.5074C13.8509 40.2993 13.0322 40.7807 12.8242 41.5826C12.6161 42.3845 13.0975 43.2032 13.8994 43.4112L14.6528 40.5074ZM7.02104 39.6531C7.63655 40.2076 8.58501 40.1581 9.13948 39.5426C9.69395 38.9271 9.64446 37.9786 9.02895 37.4242L7.02104 39.6531ZM5.10466 32.1327C4.74223 31.3877 3.84452 31.0777 3.09959 31.4401C2.35465 31.8025 2.04457 32.7002 2.407 33.4452L5.10466 32.1327ZM0.314526 26.0268C0.390015 26.8518 1.11999 27.4593 1.94497 27.3839C2.76995 27.3084 3.37753 26.5784 3.30204 25.7534L0.314526 26.0268ZM4.12935 19.3854C4.44227 18.6183 4.07412 17.7429 3.30706 17.4299C2.54001 17.117 1.66451 17.4852 1.35159 18.2522L4.12935 19.3854ZM6.60982 12.1946C5.88989 12.6044 5.63854 13.5203 6.04841 14.2403C6.45828 14.9602 7.37416 15.2115 8.09409 14.8017L6.60982 12.1946ZM14.2486 13.3153C15.077 13.3044 15.7397 12.6241 15.7288 11.7957C15.7179 10.9674 15.0376 10.3046 14.2093 10.3155L14.2486 13.3153ZM21.779 11.3328C20.977 11.1251 20.1585 11.6069 19.9509 12.4088C19.7432 13.2108 20.225 14.0293 21.0269 14.237L21.779 11.3328ZM27.5419 16.4945C28.3045 16.8181 29.185 16.4623 29.5086 15.6997C29.8323 14.9371 29.4764 14.0565 28.7138 13.7329L27.5419 16.4945ZM35.3161 16.9436C34.5882 16.548 33.6774 16.8173 33.2818 17.5452C32.8862 18.2731 33.1556 19.1838 33.8834 19.5794L35.3161 16.9436ZM40.0674 23.2371C40.7663 23.6819 41.6934 23.4759 42.1382 22.7769C42.583 22.078 42.377 21.1509 41.6781 20.7061L40.0674 23.2371ZM47.582 24.6837C46.9063 24.2045 45.97 24.3637 45.4908 25.0395C45.0115 25.7152 45.1708 26.6515 45.8465 27.1307L47.582 24.6837ZM51.5439 31.3529C52.1998 31.8589 53.1418 31.7374 53.6478 31.0815C54.1539 30.4256 54.0324 29.4837 53.3765 28.9776L51.5439 31.3529ZM59.1815 33.6198C58.5431 33.0919 57.5975 33.1816 57.0697 33.82C56.5418 34.4585 56.6314 35.404 57.2699 35.9319L59.1815 33.6198ZM62.5525 40.4226C63.1767 40.9673 64.1243 40.9028 64.6689 40.2787C65.2136 39.6545 65.1492 38.7069 64.525 38.1622L62.5525 40.4226ZM70.0562 43.1104C69.4453 42.5509 68.4964 42.5925 67.9369 43.2034C67.3773 43.8143 67.419 44.7632 68.0299 45.3227L70.0562 43.1104ZM73.111 50.0715C73.7108 50.643 74.6602 50.62 75.2317 50.0203C75.8031 49.4205 75.7802 48.471 75.1804 47.8996L73.111 50.0715ZM80.52 53.0835C79.9308 52.5011 78.9811 52.5066 78.3987 53.0958C77.8164 53.685 77.8219 54.6347 78.4111 55.2171L80.52 53.0835ZM83.3137 60.1392C83.8939 60.7305 84.8436 60.7395 85.4349 60.1593C86.0262 59.5791 86.0352 58.6294 85.455 58.0381L83.3137 60.1392ZM90.5235 63.2796C89.9518 62.6801 89.0024 62.6575 88.4028 63.2291C87.8032 63.8008 87.7806 64.7503 88.3523 65.3498L90.5235 63.2796ZM93.4314 70.7116C94.0036 71.3107 94.9531 71.3325 95.5521 70.7603C96.1512 70.1881 96.173 69.2386 95.6008 68.6395L93.4314 70.7116ZM100.599 73.788C100.017 73.1985 99.0673 73.1924 98.4778 73.7744C97.8883 74.3564 97.8822 75.3062 98.4642 75.8957L100.599 73.788ZM103.578 80.9838C104.171 81.5627 105.121 81.5515 105.699 80.9589C106.278 80.3663 106.267 79.4166 105.675 78.8377L103.578 80.9838ZM110.845 83.7912C110.241 83.2241 109.292 83.254 108.725 83.8579C108.158 84.4618 108.188 85.4111 108.792 85.9782L110.845 83.7912ZM114.113 90.8714C114.728 91.4257 115.677 91.3759 116.231 90.7602C116.785 90.1446 116.736 89.1961 116.12 88.6418L114.113 90.8714ZM121.493 93.3764C120.866 92.8354 119.919 92.9054 119.378 93.5327C118.837 94.1601 118.907 95.1073 119.534 95.6483L121.493 93.3764ZM125.048 100.307C125.685 100.835 126.631 100.747 127.16 100.109C127.688 99.4708 127.6 98.5252 126.962 97.9967L125.048 100.307ZM132.516 102.527C131.87 102.008 130.926 102.109 130.407 102.755C129.887 103.4 129.989 104.344 130.634 104.864L132.516 102.527ZM136.249 109.368C136.894 109.887 137.839 109.785 138.358 109.139C138.877 108.493 138.774 107.549 138.128 107.03L136.249 109.368ZM143.72 111.607C143.086 111.074 142.14 111.155 141.606 111.789C141.073 112.423 141.154 113.369 141.788 113.903L143.72 111.607ZM147.114 118.612C147.718 119.179 148.667 119.149 149.234 118.545C149.801 117.941 149.771 116.992 149.167 116.425L147.114 118.612ZM154.297 121.636C153.742 121.021 152.793 120.974 152.179 121.529C151.564 122.084 151.516 123.033 152.071 123.648L154.297 121.636ZM54.2424 1.57611C53.6996 2.73188 53.1581 3.8572 52.6182 4.95268L55.3092 6.2789C55.8576 5.16608 56.4072 4.02381 56.9578 2.85146L54.2424 1.57611ZM49.3988 11.1723C48.1811 13.408 46.9735 15.4939 45.7779 17.4379L48.3333 19.0095C49.5583 17.0178 50.7922 14.8861 52.0334 12.6073L49.3988 11.1723ZM41.8735 23.355C40.4118 25.4101 38.9737 27.2537 37.5632 28.9015L39.8422 30.8524C41.3162 29.1305 42.8093 27.2154 44.3182 25.0938L41.8735 23.355ZM32.7079 33.9272C30.8009 35.6471 28.9652 37.0022 27.2128 38.0424L28.7441 40.6221C30.6881 39.4682 32.6822 37.9903 34.7171 36.155L32.7079 33.9272ZM21.0664 40.5641C18.7151 41.0789 16.571 41.0051 14.6528 40.5074L13.8994 43.4112C16.2894 44.0314 18.9119 44.1069 21.708 43.4947L21.0664 40.5641ZM9.02895 37.4242C7.41009 35.9658 6.08116 34.1397 5.10466 32.1327L2.407 33.4452C3.53524 35.7641 5.08779 37.9116 7.02104 39.6531L9.02895 37.4242ZM3.30204 25.7534C3.09218 23.4599 3.36389 21.2618 4.12935 19.3854L1.35159 18.2522C0.373971 20.6487 0.0688483 23.3419 0.314526 26.0268L3.30204 25.7534ZM8.09409 14.8017C9.65214 13.9147 11.6743 13.349 14.2486 13.3153L14.2093 10.3155C11.2114 10.3548 8.67591 11.0183 6.60982 12.1946L8.09409 14.8017ZM21.0269 14.237C23.006 14.7495 25.1747 15.49 27.5419 16.4945L28.7138 13.7329C26.2298 12.6788 23.9204 11.8873 21.779 11.3328L21.0269 14.237ZM33.8834 19.5794C35.8391 20.6424 37.8994 21.8574 40.0674 23.2371L41.6781 20.7061C39.4571 19.2928 37.3374 18.0423 35.3161 16.9436L33.8834 19.5794ZM45.8465 27.1307C47.6791 28.4304 49.5777 29.8359 51.5439 31.3529L53.3765 28.9776C51.3804 27.4376 49.4493 26.0081 47.582 24.6837L45.8465 27.1307ZM57.2699 35.9319C58.9846 37.3496 60.7452 38.8454 62.5525 40.4226L64.525 38.1622C62.6986 36.5684 60.9176 35.0552 59.1815 33.6198L57.2699 35.9319ZM68.0299 45.3227C69.6874 46.8409 71.3809 48.4231 73.111 50.0715L75.1804 47.8996C73.4366 46.2381 71.7287 44.6424 70.0562 43.1104L68.0299 45.3227ZM78.4111 55.2171C80.0159 56.8034 81.65 58.4436 83.3137 60.1392L85.455 58.0381C83.7809 56.3319 82.1361 54.6808 80.52 53.0835L78.4111 55.2171ZM88.3523 65.3498C89.2067 66.246 90.0686 67.1561 90.9378 68.0804L93.1232 66.0252C92.2493 65.096 91.3828 64.1808 90.5235 63.2796L88.3523 65.3498ZM90.9378 68.0804C91.7799 68.9758 92.611 69.8527 93.4314 70.7116L95.6008 68.6395C94.7858 67.7862 93.96 66.915 93.1232 66.0252L90.9378 68.0804ZM98.4642 75.8957C100.22 77.6745 101.924 79.3682 103.578 80.9838L105.675 78.8377C104.034 77.2348 102.343 75.554 100.599 73.788L98.4642 75.8957ZM108.792 85.9782C110.63 87.7043 112.402 89.3314 114.113 90.8714L116.12 88.6418C114.425 87.1155 112.668 85.5027 110.845 83.7912L108.792 85.9782ZM119.534 95.6483C121.453 97.3034 123.288 98.849 125.048 100.307L126.962 97.9967C125.216 96.5499 123.396 95.017 121.493 93.3764L119.534 95.6483ZM130.634 104.864C132.595 106.443 134.48 107.946 136.249 109.368L138.128 107.03C136.335 105.588 134.487 104.115 132.516 102.527L130.634 104.864ZM141.788 113.903C143.654 115.473 145.42 117.021 147.114 118.612L149.167 116.425C147.423 114.787 145.614 113.202 143.72 111.607L141.788 113.903Z" fill="black" fill-opacity="0.56"/>
</svg>
