<svg width="387" height="85" viewBox="0 0 387 85" fill="none" xmlns="http://www.w3.org/2000/svg">
<path d="M0.0172173 59.4263L11.1066 46.1211L17.0845 62.3773L0.0172173 59.4263ZM130.084 2.20054C129.752 1.44146 130.099 0.557131 130.858 0.225336C131.617 -0.106481 132.501 0.239882 132.833 0.998963L130.084 2.20054ZM213.225 58.14L213.849 59.504C213.822 59.5161 213.796 59.5274 213.769 59.5379L213.225 58.14ZM134.298 4.26869C134.644 5.02146 134.314 5.91208 133.561 6.25792C132.809 6.60376 131.918 6.27386 131.572 5.52107L134.298 4.26869ZM134.66 11.9216C134.286 11.1825 134.582 10.28 135.321 9.90568C136.06 9.53139 136.962 9.82708 137.336 10.5661L134.66 11.9216ZM140.513 16.5461C140.916 17.2698 140.657 18.1833 139.933 18.5865C139.209 18.9897 138.296 18.7299 137.893 18.0062L140.513 16.5461ZM141.358 23.9338C140.925 23.2277 141.146 22.3041 141.852 21.8709C142.558 21.4378 143.482 21.6591 143.915 22.3653L141.358 23.9338ZM147.708 28.2426C148.173 28.928 147.995 29.8608 147.31 30.3262C146.624 30.7916 145.692 30.6133 145.226 29.9279L147.708 28.2426ZM149.249 35.561C148.751 34.8986 148.885 33.9583 149.547 33.4608C150.21 32.9633 151.15 33.097 151.648 33.7594L149.249 35.561ZM155.845 39.0672C156.376 39.7038 156.289 40.6496 155.653 41.1798C155.016 41.71 154.07 41.6238 153.54 40.9873L155.845 39.0672ZM158.226 46.3145C157.662 45.7076 157.697 44.7585 158.304 44.1946C158.911 43.6306 159.86 43.6654 160.424 44.2722L158.226 46.3145ZM165.148 49.0839C165.744 49.6587 165.762 50.6082 165.187 51.2048C164.612 51.8014 163.663 51.8191 163.066 51.2443L165.148 49.0839ZM168.263 55.9687C167.634 55.4296 167.561 54.4827 168.1 53.8536C168.639 53.2246 169.586 53.1517 170.215 53.6908L168.263 55.9687ZM175.543 57.9877C176.204 58.4881 176.333 59.429 175.833 60.0892C175.332 60.7494 174.391 60.879 173.731 60.3786L175.543 57.9877ZM179.366 64.3883C178.677 63.9286 178.491 62.9972 178.95 62.308C179.41 61.6189 180.341 61.4329 181.031 61.8926L179.366 64.3883ZM186.878 65.5353C187.595 65.9511 187.838 66.8691 187.422 67.5856C187.007 68.302 186.089 68.5457 185.372 68.1299L186.878 65.5353ZM191.505 71.4414C190.764 71.0703 190.464 70.1691 190.835 69.4284C191.206 68.6877 192.108 68.388 192.848 68.759L191.505 71.4414ZM199.046 71.6284C199.808 71.9532 200.163 72.8343 199.838 73.5964C199.513 74.3585 198.632 74.713 197.87 74.3882L199.046 71.6284ZM204.396 76.9389C203.616 76.6607 203.209 75.8026 203.487 75.0223C203.765 74.2419 204.623 73.8349 205.403 74.1131L204.396 76.9389ZM211.881 76.2094C212.676 76.4414 213.133 77.2741 212.901 78.0694C212.669 78.8647 211.836 79.3214 211.041 79.0895L211.881 76.2094ZM217.826 80.8585C217.019 80.6723 216.516 79.867 216.702 79.0598C216.888 78.2526 217.693 77.7491 218.5 77.9352L217.826 80.8585ZM225.185 79.2836C226.001 79.4253 226.548 80.2018 226.406 81.018C226.264 81.8342 225.488 82.3811 224.672 82.2394L225.185 79.2836ZM231.6 83.2535C230.778 83.155 230.191 82.4083 230.289 81.5858C230.388 80.7632 231.135 80.1763 231.957 80.2748L231.6 83.2535ZM238.766 80.9161C239.592 80.9732 240.216 81.6895 240.159 82.516C240.102 83.3424 239.385 83.9661 238.559 83.909L238.766 80.9161ZM245.541 84.2228C244.713 84.2052 244.056 83.5196 244.073 82.6913C244.091 81.8631 244.776 81.2059 245.605 81.2235L245.541 84.2228ZM252.454 81.2118C253.282 81.1917 253.969 81.8468 253.99 82.675C254.01 83.5032 253.355 84.1908 252.526 84.2109L252.454 81.2118ZM259.502 83.8895C258.676 83.9454 257.96 83.3206 257.904 82.4941C257.849 81.6676 258.473 80.9522 259.3 80.8964L259.502 83.8895ZM266.132 80.292C266.956 80.2022 267.696 80.797 267.786 81.6205C267.876 82.4441 267.281 83.1845 266.457 83.2743L266.132 80.292ZM273.37 82.382C272.55 82.504 271.787 81.9387 271.665 81.1193C271.543 80.2999 272.108 79.5367 272.928 79.4147L273.37 82.382ZM279.709 78.2733C280.523 78.1206 281.307 78.6569 281.46 79.4711C281.612 80.2854 281.076 81.0692 280.262 81.2219L279.709 78.2733ZM287.076 79.816C286.268 79.9979 285.465 79.4901 285.284 78.6818C285.102 77.8736 285.61 77.071 286.418 76.8892L287.076 79.816ZM293.111 75.2601C293.912 75.0503 294.732 75.5299 294.942 76.3313C295.151 77.1328 294.672 77.9525 293.87 78.1623L293.111 75.2601ZM300.572 76.2871C299.778 76.5236 298.942 76.0717 298.706 75.2777C298.469 74.4838 298.921 73.6484 299.715 73.4119L300.572 76.2871ZM306.278 71.3392C307.063 71.0769 307.913 71.5012 308.175 72.287C308.438 73.0728 308.013 73.9225 307.228 74.1848L306.278 71.3392ZM313.804 71.8712C313.027 72.1585 312.164 71.7616 311.877 70.9847C311.589 70.2077 311.986 69.3448 312.763 69.0575L313.804 71.8712ZM319.16 66.5759C319.927 66.2641 320.802 66.6336 321.114 67.4011C321.426 68.1686 321.056 69.0436 320.289 69.3554L319.16 66.5759ZM326.728 66.6199C325.971 66.9559 325.084 66.6144 324.748 65.8572C324.412 65.1 324.754 64.2137 325.511 63.8777L326.728 66.6199ZM331.712 61.0084C332.458 60.6486 333.354 60.9618 333.714 61.708C334.074 62.4542 333.761 63.3508 333.015 63.7107L331.712 61.0084ZM339.292 60.556C338.558 60.9402 337.652 60.6566 337.268 59.9227C336.883 59.1887 337.167 58.2823 337.901 57.8981L339.292 60.556ZM343.882 54.6389C344.603 54.2302 345.519 54.4831 345.927 55.2037C346.336 55.9243 346.083 56.8398 345.362 57.2484L343.882 54.6389ZM351.426 53.6642C350.721 54.0988 349.797 53.8793 349.362 53.1741C348.928 52.4688 349.147 51.5447 349.852 51.1101L351.426 53.6642ZM355.592 47.4198C356.28 46.958 357.212 47.1413 357.673 47.8291C358.135 48.5169 357.952 49.4488 357.264 49.9105L355.592 47.4198ZM363 45.8774C362.333 46.3691 361.394 46.2272 360.902 45.5605C360.41 44.8938 360.552 43.9547 361.219 43.463L363 45.8774ZM366.655 39.238C367.295 38.7123 368.241 38.805 368.766 39.4453C369.292 40.0855 369.199 41.0307 368.559 41.5564L366.655 39.238ZM373.729 37.0429C373.123 37.6079 372.174 37.5748 371.609 36.9689C371.044 36.363 371.077 35.4139 371.683 34.8489L373.729 37.0429ZM376.534 29.9313C377.087 29.3146 378.035 29.2632 378.652 29.8164C379.268 30.3696 379.32 31.318 378.767 31.9346L376.534 29.9313ZM383.212 26.2995C382.749 26.9868 381.817 27.1689 381.13 26.7064C380.443 26.2438 380.26 25.3117 380.723 24.6245L383.212 26.2995ZM383.683 18.8718C383.941 18.0847 384.789 17.656 385.576 17.9143C386.363 18.1726 386.791 19.02 386.533 19.8072L383.683 18.8718ZM386.613 12.1086C386.926 12.8753 386.559 13.7512 385.792 14.0649C385.026 14.3786 384.15 14.0113 383.836 13.2446L386.613 12.1086ZM379.787 9.56736C379.028 9.23486 378.683 8.35021 379.015 7.59144C379.348 6.83267 380.233 6.48711 380.991 6.81962L379.787 9.56736ZM373.934 5.07925C374.757 5.173 375.348 5.91625 375.254 6.73936C375.16 7.56246 374.417 8.15373 373.594 8.05998L373.934 5.07925ZM366.812 7.81761C365.984 7.83982 365.294 7.18649 365.272 6.35836C365.25 5.53023 365.903 4.84089 366.731 4.81869L366.812 7.81761ZM359.687 5.31503C360.511 5.22578 361.251 5.8211 361.34 6.6447C361.429 7.46831 360.834 8.20832 360.01 8.29757L359.687 5.31503ZM353.382 9.20601C352.565 9.33918 351.794 8.7843 351.661 7.96664C351.528 7.14899 352.083 6.37819 352.9 6.24502L353.382 9.20601ZM345.957 7.5279C346.769 7.36161 347.562 7.88472 347.728 8.69629C347.894 9.50786 347.371 10.3006 346.56 10.4668L345.957 7.5279ZM339.849 11.9552C339.043 12.1466 338.234 11.6484 338.043 10.8424C337.852 10.0364 338.35 9.22782 339.156 9.03637L339.849 11.9552ZM332.589 10.6841C333.39 10.473 334.211 10.9512 334.422 11.7523C334.633 12.5534 334.155 13.3739 333.354 13.585L332.589 10.6841ZM326.37 15.5102C325.574 15.7389 324.743 15.2787 324.515 14.4825C324.286 13.6862 324.746 12.8554 325.542 12.6267L326.37 15.5102ZM319.139 14.526C319.931 14.2839 320.77 14.7298 321.012 15.522C321.254 16.3143 320.808 17.1528 320.016 17.395L319.139 14.526ZM313.574 19.4186C312.785 19.6727 311.94 19.2394 311.686 18.4509C311.432 17.6624 311.865 16.8172 312.654 16.5632L313.574 19.4186ZM305.829 18.8162C306.614 18.5511 307.465 18.9725 307.73 19.7574C307.995 20.5423 307.574 21.3934 306.789 21.6585L305.829 18.8162ZM300.233 23.9171C299.451 24.1916 298.595 23.7804 298.321 22.9988C298.046 22.2171 298.457 21.361 299.239 21.0865L300.233 23.9171ZM292.986 23.3187C293.765 23.0363 294.625 23.4386 294.908 24.2174C295.19 24.9962 294.788 25.8565 294.009 26.1389L292.986 23.3187ZM287.535 28.5233C286.759 28.8133 285.895 28.4193 285.605 27.6433C285.315 26.8673 285.709 26.0031 286.485 25.7131L287.535 28.5233ZM279.732 28.2729C280.505 27.9758 281.373 28.3618 281.67 29.1351C281.967 29.9084 281.581 30.7762 280.808 31.0733L279.732 28.2729ZM274.372 33.5767C273.601 33.8801 272.73 33.5011 272.427 32.7302C272.123 31.9594 272.502 31.0885 273.273 30.7851L274.372 33.5767ZM267.111 33.2362C267.879 32.9273 268.753 33.3001 269.062 34.0688C269.371 34.8374 268.998 35.711 268.229 36.0199L267.111 33.2362ZM261.897 38.5901C261.13 38.9042 260.254 38.5375 259.94 37.7709C259.626 37.0044 259.992 36.1283 260.759 35.8142L261.897 38.5901ZM254.216 38.521C254.981 38.2018 255.859 38.5628 256.178 39.3272C256.498 40.0917 256.137 40.9702 255.372 41.2894L254.216 38.521ZM248.654 44.1198C247.891 44.4438 247.011 44.0884 246.687 43.326C246.363 42.5636 246.718 41.6828 247.48 41.3588L248.654 44.1198ZM241.378 43.972C242.139 43.6439 243.021 43.9945 243.349 44.7552C243.677 45.5159 243.327 46.3985 242.566 46.7266L241.378 43.972ZM236.446 49.3853C235.688 49.7173 234.803 49.3712 234.471 48.6122C234.139 47.8532 234.485 46.9688 235.244 46.6367L236.446 49.3853ZM228.962 49.4036C229.719 49.0678 230.606 49.4096 230.941 50.1669C231.277 50.9242 230.935 51.8103 230.178 52.1461L228.962 49.4036ZM223.76 55.0105C223.004 55.3499 222.116 55.0125 221.777 54.2568C221.437 53.5011 221.775 52.6133 222.531 52.2739L223.76 55.0105ZM215.949 55.2489C216.703 54.9059 217.592 55.2392 217.935 55.9933C218.278 56.7475 217.945 57.6368 217.19 57.9797L215.949 55.2489ZM210.508 60.7875C209.733 61.08 208.868 60.6888 208.575 59.9137C208.283 59.1387 208.674 58.2732 209.449 57.9807L210.508 60.7875ZM203.091 60.3059C203.872 60.0295 204.729 60.4385 205.006 61.2194C205.282 62.0004 204.873 62.8575 204.092 63.134L203.091 60.3059ZM197.576 65.3606C196.789 65.6198 195.941 65.1921 195.682 64.4052C195.423 63.6184 195.851 62.7704 196.638 62.5112L197.576 65.3606ZM190.234 64.5405C191.027 64.2994 191.865 64.7464 192.106 65.5389C192.347 66.3315 191.9 67.1695 191.107 67.4106L190.234 64.5405ZM184.461 69.3449C183.663 69.5666 182.836 69.0992 182.615 68.301C182.393 67.5027 182.86 66.676 183.659 66.4543L184.461 69.3449ZM177.113 68.183C177.917 67.9818 178.731 68.4701 178.932 69.2737C179.134 70.0774 178.645 70.8919 177.842 71.0931L177.113 68.183ZM171.194 72.664C170.385 72.8436 169.584 72.3336 169.404 71.5249C169.224 70.7162 169.734 69.915 170.543 69.7354L171.194 72.664ZM163.867 71.1197C164.68 70.9631 165.467 71.4957 165.623 72.3092C165.78 73.1227 165.247 73.909 164.434 74.0656L163.867 71.1197ZM157.683 75.2624C156.865 75.3949 156.095 74.8393 155.962 74.0216C155.83 73.2038 156.385 72.4335 157.203 72.301L157.683 75.2624ZM150.541 73.2761C151.362 73.1688 152.115 73.7478 152.222 74.5693C152.33 75.3907 151.751 76.1436 150.929 76.2509L150.541 73.2761ZM144.072 77.0347C143.247 77.1154 142.513 76.5124 142.433 75.6879C142.352 74.8634 142.955 74.1296 143.779 74.0489L144.072 77.0347ZM137.018 74.5974C137.845 74.5443 138.558 75.1714 138.611 75.9982C138.664 76.8249 138.037 77.5381 137.21 77.5913L137.018 74.5974ZM130.351 77.9145C129.523 77.9392 128.831 77.288 128.806 76.4599C128.782 75.6319 129.433 74.9406 130.261 74.9158L130.351 77.9145ZM123.507 74.9996C124.336 75.0039 125.004 75.6789 124.999 76.5073C124.995 77.3357 124.32 78.0038 123.492 77.9995L123.507 74.9996ZM116.635 77.8425C115.808 77.8088 115.164 77.1105 115.198 76.2827C115.231 75.455 115.93 74.8113 116.758 74.845L116.635 77.8425ZM110 74.4488C110.826 74.5121 111.444 75.2329 111.381 76.059C111.318 76.885 110.597 77.5033 109.771 77.4401L110 74.4488ZM102.918 76.7927C102.095 76.7002 101.503 75.9578 101.595 75.1346C101.688 74.3113 102.43 73.7189 103.253 73.8114L102.918 76.7927ZM96.5367 72.9385C97.3562 73.0593 97.9226 73.8217 97.8018 74.6413C97.6809 75.4608 96.9185 76.0273 96.099 75.9064L96.5367 72.9385ZM89.3189 74.7908C88.5038 74.643 87.9628 73.8624 88.1107 73.0472C88.2585 72.2321 89.0391 71.6911 89.8543 71.839L89.3189 74.7908ZM83.2094 70.5267C84.0197 70.6994 84.5364 71.4963 84.3636 72.3065C84.1909 73.1167 83.394 73.6335 82.5838 73.4607L83.2094 70.5267ZM75.8979 71.9366C75.0928 71.7416 74.5981 70.9308 74.793 70.1257C74.988 69.3205 75.7988 68.8258 76.6039 69.0208L75.8979 71.9366ZM70.0328 67.3461C70.8332 67.5597 71.309 68.3816 71.0955 69.1821C70.8819 69.9825 70.06 70.4583 69.2595 70.2447L70.0328 67.3461ZM62.6474 68.4146C61.8508 68.187 61.3896 67.3568 61.6172 66.5602C61.8447 65.7636 62.675 65.3024 63.4715 65.53L62.6474 68.4146ZM56.9291 63.6197C57.7233 63.8554 58.176 64.6903 57.9403 65.4845C57.7046 66.2787 56.8697 66.7314 56.0755 66.4957L56.9291 63.6197ZM49.5367 64.5463C48.7427 64.31 48.2905 63.4748 48.5268 62.6808C48.763 61.8867 49.5982 61.4346 50.3923 61.6708L49.5367 64.5463ZM43.8429 59.7555C44.6397 59.9824 45.1016 60.8123 44.8746 61.609C44.6477 62.4057 43.8178 62.8676 43.0211 62.6407L43.8429 59.7555ZM36.4661 60.8619C35.6632 60.6575 35.1781 59.841 35.3825 59.0382C35.5869 58.2354 36.4034 57.7503 37.2062 57.9546L36.4661 60.8619ZM30.4886 56.4074C31.3006 56.5715 31.8258 57.3627 31.6618 58.1747C31.4977 58.9868 30.7064 59.5121 29.8944 59.348L30.4886 56.4074ZM23.2818 58.2612C22.4594 58.1612 21.8738 57.4134 21.9739 56.591C22.0739 55.7687 22.8216 55.1831 23.644 55.2831L23.2818 58.2612ZM16.6793 54.8113C17.5077 54.8182 18.1736 55.4953 18.1667 56.3237C18.1598 57.1521 17.4826 57.8181 16.6543 57.8111L16.6793 54.8113ZM10.0744 58.2245C9.25394 58.3394 8.49568 57.7676 8.3807 56.9471C8.26574 56.1267 8.83762 55.3685 9.65803 55.2535L10.0744 58.2245ZM2.77147 56.8167C3.56064 56.5648 4.40466 57.0002 4.65665 57.7894C4.90863 58.5786 4.47313 59.4226 3.68395 59.6746L2.77147 56.8167ZM132.833 0.998963C133.315 2.10244 133.804 3.1923 134.298 4.26869L131.572 5.52107C131.07 4.42767 130.574 3.32088 130.084 2.20054L132.833 0.998963ZM137.336 10.5661C138.373 12.612 139.432 14.605 140.513 16.5461L137.893 18.0062C136.792 16.03 135.714 14.0021 134.66 11.9216L137.336 10.5661ZM143.915 22.3653C145.154 24.3854 146.419 26.3441 147.708 28.2426L145.226 29.9279C143.911 27.9904 142.621 25.9928 141.358 23.9338L143.915 22.3653ZM151.648 33.7594C153.023 35.5902 154.422 37.359 155.845 39.0672L153.54 40.9873C152.085 39.24 150.654 37.4317 149.249 35.561L151.648 33.7594ZM160.424 44.2722C161.975 45.941 163.55 47.5443 165.148 49.0839L163.066 51.2443C161.428 49.6662 159.814 48.0235 158.226 46.3145L160.424 44.2722ZM170.215 53.6908C171.968 55.1927 173.744 56.6243 175.543 57.9877L173.731 60.3786C171.884 58.9789 170.061 57.5096 168.263 55.9687L170.215 53.6908ZM181.031 61.8926C182.958 63.1782 184.908 64.3917 186.878 65.5353L185.372 68.1299C183.348 66.9551 181.345 65.7087 179.366 64.3883L181.031 61.8926ZM192.848 68.759C194.896 69.7847 196.963 70.7403 199.046 71.6284L197.87 74.3882C195.73 73.4762 193.608 72.4948 191.505 71.4414L192.848 68.759ZM205.403 74.1131C207.548 74.8779 209.708 75.5758 211.881 76.2094L211.041 79.0895C208.813 78.4396 206.597 77.7237 204.396 76.9389L205.403 74.1131ZM218.5 77.9352C220.718 78.4467 222.947 78.8953 225.185 79.2836L224.672 82.2394C222.381 81.8419 220.099 81.3826 217.826 80.8585L218.5 77.9352ZM231.957 80.2748C234.222 80.546 236.492 80.7589 238.766 80.9161L238.559 83.909C236.236 83.7484 233.916 83.5308 231.6 83.2535L231.957 80.2748ZM245.605 81.2235C247.888 81.2719 250.171 81.2671 252.454 81.2118L252.526 84.2109C250.2 84.2673 247.87 84.2723 245.541 84.2228L245.605 81.2235ZM259.3 80.8964C261.582 80.7421 263.86 80.5398 266.132 80.292L266.457 83.2743C264.146 83.5264 261.827 83.7324 259.502 83.8895L259.3 80.8964ZM272.928 79.4147C275.198 79.0766 277.46 78.6952 279.709 78.2733L280.262 81.2219C277.977 81.6505 275.678 82.0382 273.37 82.382L272.928 79.4147ZM286.418 76.8892C288.665 76.3837 290.896 75.8397 293.111 75.2601L293.87 78.1623C291.623 78.7505 289.358 79.3028 287.076 79.816L286.418 76.8892ZM299.715 73.4119C301.925 72.7537 304.113 72.0618 306.278 71.3392L307.228 74.1848C305.033 74.9176 302.813 75.6194 300.572 76.2871L299.715 73.4119ZM312.763 69.0575C314.925 68.2581 317.058 67.4298 319.16 66.5759L320.289 69.3554C318.158 70.221 315.995 71.0607 313.804 71.8712L312.763 69.0575ZM325.511 63.8777C327.616 62.9439 329.684 61.9862 331.712 61.0084L333.015 63.7107C330.958 64.7022 328.862 65.6732 326.728 66.6199L325.511 63.8777ZM337.901 57.8981C339.945 56.8284 341.94 55.7405 343.882 54.6389L345.362 57.2484C343.39 58.3668 341.365 59.4708 339.292 60.556L337.901 57.8981ZM349.852 51.1101C351.834 49.889 353.749 48.6571 355.592 47.4198L357.264 49.9105C355.388 51.1701 353.44 52.4231 351.426 53.6642L349.852 51.1101ZM361.219 43.463C363.134 42.0508 364.948 40.6398 366.655 39.238L368.559 41.5564C366.81 42.9932 364.954 44.4361 363 45.8774L361.219 43.463ZM371.683 34.8489C373.477 33.1758 375.098 31.5317 376.534 29.9313L378.767 31.9346C377.264 33.6092 375.58 35.3167 373.729 37.0429L371.683 34.8489ZM380.723 24.6245C382.126 22.5395 383.112 20.6098 383.683 18.8718L386.533 19.8072C385.854 21.8776 384.721 24.0567 383.212 26.2995L380.723 24.6245ZM383.836 13.2446C383.254 11.8214 382.011 10.5421 379.787 9.56736L380.991 6.81962C383.739 8.02386 385.665 9.79298 386.613 12.1086L383.836 13.2446ZM373.594 8.05998C371.629 7.83621 369.374 7.74889 366.812 7.81761L366.731 4.81869C369.406 4.74698 371.804 4.83666 373.934 5.07925L373.594 8.05998ZM360.01 8.29757C357.944 8.52154 355.736 8.82274 353.382 9.20601L352.9 6.24502C355.301 5.85405 357.562 5.54533 359.687 5.31503L360.01 8.29757ZM346.56 10.4668C344.422 10.9049 342.186 11.4002 339.849 11.9552L339.156 9.03637C341.521 8.47467 343.787 7.9726 345.957 7.5279L346.56 10.4668ZM333.354 13.585C331.108 14.177 328.78 14.8181 326.37 15.5102L325.542 12.6267C327.972 11.9289 330.321 11.2819 332.589 10.6841L333.354 13.585ZM320.016 17.395C317.925 18.0341 315.778 18.7083 313.574 19.4186L312.654 16.5632C314.872 15.8485 317.033 15.1697 319.139 14.526L320.016 17.395ZM306.789 21.6585C304.653 22.3798 302.468 23.1324 300.233 23.9171L299.239 21.0865C301.485 20.298 303.681 19.5414 305.829 18.8162L306.789 21.6585ZM294.009 26.1389C291.893 26.9065 289.735 27.7011 287.535 28.5233L286.485 25.7131C288.694 24.8876 290.861 24.0896 292.986 23.3187L294.009 26.1389ZM280.808 31.0733C278.699 31.8836 276.554 32.718 274.372 33.5767L273.273 30.7851C275.462 29.9235 277.615 29.0862 279.732 28.2729L280.808 31.0733ZM268.229 36.0199C266.15 36.8553 264.039 37.7119 261.897 38.5901L260.759 35.8142C262.908 34.9335 265.025 34.0743 267.111 33.2362L268.229 36.0199ZM255.372 41.2894C253.165 42.2109 250.926 43.1542 248.654 44.1198L247.48 41.3588C249.758 40.3908 252.003 39.445 254.216 38.521L255.372 41.2894ZM242.566 46.7266C240.551 47.5959 238.511 48.4821 236.446 49.3853L235.244 46.6367C237.313 45.7316 239.358 44.8434 241.378 43.972L242.566 46.7266ZM230.178 52.1461C228.064 53.0836 225.924 54.0383 223.76 55.0105L222.531 52.2739C224.7 51.2997 226.843 50.3431 228.962 49.4036L230.178 52.1461ZM217.19 57.9797C216.083 58.4834 214.969 58.9915 213.849 59.504L212.601 56.7759C213.723 56.2625 214.839 55.7535 215.949 55.2489L217.19 57.9797ZM213.769 59.5379C212.676 59.963 211.589 60.3795 210.508 60.7875L209.449 57.9807C210.52 57.5764 211.598 57.1635 212.681 56.742L213.769 59.5379ZM204.092 63.134C201.896 63.9115 199.724 64.6533 197.576 65.3606L196.638 62.5112C198.764 61.8109 200.915 61.0761 203.091 60.3059L204.092 63.134ZM191.107 67.4106C188.865 68.093 186.65 68.7373 184.461 69.3449L183.659 66.4543C185.823 65.8533 188.015 65.2158 190.234 64.5405L191.107 67.4106ZM177.842 71.0931C175.597 71.6552 173.381 72.1783 171.194 72.664L170.543 69.7354C172.704 69.2555 174.894 68.7386 177.113 68.183L177.842 71.0931ZM164.434 74.0656C162.152 74.5048 159.902 74.9031 157.683 75.2624L157.203 72.301C159.393 71.9464 161.613 71.5533 163.867 71.1197L164.434 74.0656ZM150.929 76.2509C148.608 76.554 146.323 76.8144 144.072 77.0347L143.779 74.0489C145.998 73.8318 148.252 73.5751 150.541 73.2761L150.929 76.2509ZM137.21 77.5913C134.886 77.7406 132.6 77.8473 130.351 77.9145L130.261 74.9158C132.476 74.8497 134.728 74.7446 137.018 74.5974L137.21 77.5913ZM123.492 77.9995C121.165 77.9875 118.88 77.9339 116.635 77.8425L116.758 74.845C118.967 74.9349 121.217 74.9877 123.507 74.9996L123.492 77.9995ZM109.771 77.4401C107.443 77.2618 105.159 77.0444 102.918 76.7927L103.253 73.8114C105.46 74.0593 107.708 74.2733 110 74.4488L109.771 77.4401ZM96.099 75.9064C93.7923 75.5662 91.533 75.1924 89.3189 74.7908L89.8543 71.839C92.0374 72.2349 94.2641 72.6033 96.5367 72.9385L96.099 75.9064ZM82.5838 73.4607C80.3064 72.975 78.0786 72.4646 75.8979 71.9366L76.6039 69.0208C78.7603 69.5429 80.9612 70.0472 83.2094 70.5267L82.5838 73.4607ZM69.2595 70.2447C67.0047 69.6432 64.8016 69.03 62.6474 68.4146L63.4715 65.53C65.6124 66.1416 67.7982 66.75 70.0328 67.3461L69.2595 70.2447ZM56.0755 66.4957C53.8489 65.8349 51.6606 65.1782 49.5367 64.5463L50.3923 61.6708C52.5308 62.3071 54.6981 62.9576 56.9291 63.6197L56.0755 66.4957ZM43.0211 62.6407C40.7823 62.003 38.5999 61.4052 36.4661 60.8619L37.2062 57.9546C39.3752 58.5068 41.5861 59.1126 43.8429 59.7555L43.0211 62.6407ZM29.8944 59.348C27.6374 58.892 25.4364 58.5232 23.2818 58.2612L23.644 55.2831C25.8896 55.5563 28.169 55.9388 30.4886 56.4074L29.8944 59.348ZM16.6543 57.8111C14.42 57.7925 12.2308 57.9223 10.0744 58.2245L9.65803 55.2535C11.9745 54.9289 14.3122 54.7915 16.6793 54.8113L16.6543 57.8111Z" fill="white"/>
</svg>
