<svg width="111" height="112" viewBox="0 0 111 112" fill="none" xmlns="http://www.w3.org/2000/svg">
<g clip-path="url(#clip0_2870_18446)">
<path d="M36.0242 90.4551L35.7098 90.4684L29.8071 90.7076L28.2863 90.7703L28.2441 90.7211L24.9027 86.7128L18.5629 79.1066L19.5604 74.5724L20.2328 71.516L20.5313 71.8719L35.7531 90.1303L36.0242 90.4551Z" fill="#E6514A"/>
<path d="M28.2469 90.7202L28.2441 90.721L25.7295 92.838C25.5394 92.9976 25.2554 92.9705 25.0963 92.7801L15.973 81.8323C15.8136 81.641 15.8361 81.3567 16.0263 81.1972L18.479 79.1379L18.4783 79.1351L18.5435 79.0824L18.5629 79.1065L24.9133 86.7188L24.9141 86.7217L28.2466 90.7193L28.2469 90.7202Z" fill="#E6514A"/>
<path d="M99.0807 57.6375L99.0518 57.7924L99.0526 57.7952C99.0526 57.7952 99.0495 57.8061 99.0502 57.809L99.051 57.8118L97.5171 66.5445C97.5158 66.5509 97.5168 66.5547 97.5147 66.5583C97.5155 66.5611 97.5127 66.5618 97.5134 66.5647C97.5142 66.5675 97.5114 66.5682 97.5121 66.5711C97.5121 66.5711 97.5129 66.5739 97.5101 66.5746L96.468 72.529L96.4559 72.5927L94.9825 73.3596L89.7358 76.0933L89.588 76.171L89.6669 75.7145L93.7739 52.3215L93.8519 51.8844L95.8473 54.0792L99.0637 57.6149L99.0821 57.6351L99.0807 57.6375Z" fill="#E6514A"/>
<path d="M99.7006 73.113L96.4651 72.5318L99.0855 57.6069L102.321 58.188C102.565 58.2319 102.728 58.4668 102.685 58.7112L100.221 72.7476C100.178 72.993 99.9442 73.1558 99.7007 73.112L99.7006 73.113Z" fill="#E6514A"/>
<path d="M94.9829 73.3614C90.3271 83.3137 82.0179 91.4619 71.2827 95.6872C71.2666 95.5665 71.2431 95.4447 71.2105 95.3224L70.7866 93.7327C70.6657 93.2791 70.444 92.8765 70.1528 92.5479C78.4972 89.2413 85.2503 83.3669 89.736 76.0942L94.9827 73.3605L94.9829 73.3614Z" fill="#E6514A"/>
<path d="M97.6531 43.0903C98.9515 47.96 99.3919 52.8578 99.0622 57.6172L95.8458 54.0815C95.8062 50.7321 95.3513 47.3332 94.4478 43.945C88.6165 22.0749 66.2501 9.04626 44.4916 14.8479C22.7331 20.6495 9.82156 43.0845 15.6529 64.9545C16.5699 68.3936 17.896 71.6106 19.5612 74.572L18.564 79.1071L18.5445 79.0831L18.4793 79.1357C15.8157 75.1644 13.7531 70.69 12.4514 65.8082C6.1453 42.1574 20.1053 17.9035 43.6355 11.6295C67.1656 5.3555 91.3478 19.4393 97.654 43.0901L97.6531 43.0903Z" fill="#E6514A"/>
<path d="M41.5765 87.528L38.2476 90.3259C37.5012 90.9533 36.3945 90.8613 35.7532 90.1301L20.5314 71.8717C19.895 71.1099 19.9941 69.9767 20.7509 69.3394L24.0798 66.5414C24.8366 65.9042 25.9651 66.0065 26.6015 66.7683L41.7967 84.9984C42.4331 85.7602 42.334 86.8935 41.5765 87.528Z" fill="#E6514A"/>
<path d="M89.6666 75.7168C89.4968 76.6936 88.5691 77.3442 87.5954 77.1683L83.3154 76.3992C82.3425 76.2261 81.6924 75.2926 81.8623 74.3158L85.9667 50.9397C86.1393 49.9622 87.0671 49.3116 88.0407 49.4875L92.3208 50.2566C93.2871 50.4314 93.9339 51.3527 93.7727 52.3242L89.6657 75.7171L89.6666 75.7168Z" fill="#E6514A"/>
<path d="M70.7867 93.7328L71.2106 95.3225C71.2432 95.4448 71.2657 95.5669 71.2828 95.6873C71.4697 97.0579 70.6652 98.3964 69.326 98.8432L60.6643 101.738C59.0743 102.271 57.3631 101.345 56.929 99.7172L56.2135 97.0339C56.0655 96.4786 56.0857 95.9228 56.2427 95.4132C56.5472 94.4298 57.3606 93.6362 58.4456 93.4175L67.399 91.6159C68.4484 91.4067 69.4862 91.7892 70.1531 92.5489C70.4443 92.8776 70.6658 93.2792 70.787 93.7338L70.7867 93.7328Z" fill="#E6514A"/>
<path d="M57.7832 67.6236C71.9622 63.843 81.1962 52.3009 78.4079 41.8437C75.6197 31.3865 61.865 25.974 47.686 29.7547C33.507 33.5353 24.273 45.0773 27.0613 55.5346C29.8496 65.9918 43.6043 71.4042 57.7832 67.6236Z" fill="white"/>
<path d="M56.6243 48.5083C56.5646 46.5157 54.9082 44.9448 52.9245 44.9996C50.9408 45.0545 49.3811 46.7143 49.4408 48.707C49.5005 50.6996 51.1569 52.2705 53.1406 52.2156C55.1243 52.1607 56.684 50.5009 56.6243 48.5083Z" fill="#E6514A"/>
<path d="M68.3978 45.3691C68.3381 43.3765 66.6816 41.8056 64.698 41.8605C62.7143 41.9153 61.1546 43.5752 61.2142 45.5678C61.2739 47.5604 62.9304 49.1313 64.914 49.0764C66.8977 49.0216 68.4574 47.3618 68.3978 45.3691Z" fill="#E6514A"/>
<path d="M44.2493 51.8081C44.1896 49.8155 42.5332 48.2446 40.5495 48.2994C38.5658 48.3543 37.0061 50.0141 37.0658 52.0068C37.1255 53.9994 38.7819 55.5703 40.7656 55.5154C42.7493 55.4606 44.309 53.8007 44.2493 51.8081Z" fill="#E6514A"/>
<path d="M75.0832 66.718L57.8721 60.3223L72.3487 56.4623L75.0832 66.718Z" fill="white"/>
</g>
<defs>
<clipPath id="clip0_2870_18446">
<rect width="89.8267" height="91.4599" fill="white" transform="translate(0.291992 23.1865) rotate(-14.9298)"/>
</clipPath>
</defs>
</svg>
