<svg width="108" height="20" viewBox="0 0 108 20" fill="none" xmlns="http://www.w3.org/2000/svg">
<path fill-rule="evenodd" clip-rule="evenodd" d="M9.99774 2.99598L12.2269 8.26559L18.0012 8.72664L13.6045 12.444L14.9442 17.999L9.99774 15.0266L5.05142 17.999L6.39104 12.444L1.99428 8.72664L7.7686 8.26559L9.99774 2.99598Z" fill="#E01F42"/>
<path fill-rule="evenodd" clip-rule="evenodd" d="M31.9977 2.99598L34.2269 8.26559L40.0012 8.72664L35.6045 12.444L36.9442 17.999L31.9977 15.0266L27.0514 17.999L28.391 12.444L23.9943 8.72664L29.7686 8.26559L31.9977 2.99598Z" fill="#E01F42"/>
<path fill-rule="evenodd" clip-rule="evenodd" d="M53.9977 2.99598L56.2269 8.26559L62.0012 8.72664L57.6045 12.444L58.9442 17.999L53.9977 15.0266L49.0514 17.999L50.391 12.444L45.9943 8.72664L51.7686 8.26559L53.9977 2.99598Z" fill="#E01F42"/>
<path fill-rule="evenodd" clip-rule="evenodd" d="M75.9977 2.99598L78.2269 8.26559L84.0012 8.72664L79.6045 12.444L80.9442 17.999L75.9977 15.0266L71.0514 17.999L72.391 12.444L67.9943 8.72664L73.7686 8.26559L75.9977 2.99598Z" fill="#E01F42"/>
<path fill-rule="evenodd" clip-rule="evenodd" d="M97.9977 2.99598L100.227 8.26559L106.001 8.72664L101.604 12.444L102.944 17.999L97.9977 15.0266L93.0514 17.999L94.391 12.444L89.9943 8.72664L95.7686 8.26559L97.9977 2.99598Z" fill="#E01F42"/>
</svg>
