<svg width="48" height="48" viewBox="0 0 48 48" fill="none" xmlns="http://www.w3.org/2000/svg">
<rect x="0.8" y="0.8" width="46.4" height="46.4" rx="8" stroke="white" stroke-width="1.6" stroke-linecap="round"/>
<path d="M38.7 24H36.6C36.435 24 36.3 24.135 36.3 24.3V36.3H11.7V11.7H23.7C23.865 11.7 24 11.565 24 11.4V9.3C24 9.135 23.865 9 23.7 9H10.2C9.53625 9 9 9.53625 9 10.2V37.8C9 38.4637 9.53625 39 10.2 39H37.8C38.4637 39 39 38.4637 39 37.8V24.3C39 24.135 38.865 24 38.7 24Z" fill="white"/>
<path d="M18.1465 24.8588L18.0752 29.3175C18.0715 29.6512 18.3415 29.925 18.6752 29.925H18.6902L23.1152 29.8162C23.1902 29.8125 23.2652 29.7825 23.3177 29.73L38.914 14.1675C39.0302 14.0512 39.0302 13.86 38.914 13.7437L34.2527 9.08625C34.1927 9.02625 34.1177 9 34.039 9C33.9602 9 33.8852 9.03 33.8252 9.08625L18.2327 24.6487C18.1786 24.7054 18.1478 24.7804 18.1465 24.8588ZM20.5277 25.7437L34.039 12.2625L35.734 13.9538L22.2152 27.4425L20.5015 27.4837L20.5277 25.7437Z" fill="white"/>
</svg>
