<svg width="20" height="20" viewBox="0 0 20 20" fill="none" xmlns="http://www.w3.org/2000/svg">
<path fill-rule="evenodd" clip-rule="evenodd" d="M15.4148 15.8359H0V14.1685H15.4148C16.1875 14.1685 16.9288 14.4745 17.4763 15.0194C18.0238 15.5644 18.333 16.304 18.3362 17.0764L18.3362 17.0781V17.0799C18.3362 17.8543 18.0285 18.5971 17.4806 19.1447C16.9327 19.6923 16.1896 20 15.4148 20H0V18.3326H15.4148C15.7472 18.3326 16.066 18.2006 16.301 17.9657C16.5356 17.7312 16.6676 17.4133 16.6681 17.0818C16.6663 16.751 16.5337 16.4344 16.2992 16.2009C16.0643 15.9671 15.7463 15.8359 15.4148 15.8359Z" fill="white"/>
<path fill-rule="evenodd" clip-rule="evenodd" d="M1.69853 17.0797C1.68563 16.5201 1.45941 15.9864 1.06581 15.5879L2.25297 14.4165C2.95129 15.1236 3.35017 16.0725 3.3667 17.066L3.36693 17.0801L3.36669 17.0942C3.34962 18.089 2.95178 19.0394 2.25502 19.7499L1.06375 18.5827C1.4585 18.1802 1.68529 17.6428 1.69853 17.0797Z" fill="white"/>
<path fill-rule="evenodd" clip-rule="evenodd" d="M4.58497 11.7067C4.25707 11.7066 3.94221 11.835 3.70791 12.0643C3.4757 12.2915 3.34096 12.6 3.33191 12.9245C3.3342 13.2536 3.46598 13.5687 3.69895 13.8016C3.93399 14.0365 4.25276 14.1685 4.58515 14.1685H20V15.8359H4.58515C3.81035 15.8359 3.06728 15.5282 2.51941 14.9806C1.97154 14.433 1.66376 13.6902 1.66376 12.9158V12.907L1.66394 12.8983C1.67993 12.1345 1.99476 11.4073 2.54091 10.8729C3.08701 10.3384 3.82089 10.0392 4.58515 10.0393C4.58521 10.0393 4.58527 10.0393 4.58534 10.0393H20V11.7067H4.58497Z" fill="white"/>
<path fill-rule="evenodd" clip-rule="evenodd" d="M18.9437 11.4052C18.5549 11.8121 18.3379 12.3531 18.3379 12.9158C18.3379 13.4784 18.5549 14.0194 18.9437 14.4263L17.7375 15.5781C17.0522 14.861 16.6698 13.9074 16.6698 12.9158C16.6698 11.9241 17.0522 10.9705 17.7375 10.2535L18.9437 11.4052Z" fill="white"/>
<path fill-rule="evenodd" clip-rule="evenodd" d="M12.3817 4.2884C11.8992 4.08301 11.225 4.14155 10.6089 4.7994L10.006 5.443L9.39681 4.80538C8.78567 4.16573 8.11004 4.10787 7.61919 4.3175C7.11816 4.53148 6.66812 5.08558 6.66812 5.97556C6.66812 7.02526 7.04566 8.37522 7.65677 9.22198C7.95856 9.64014 8.25906 9.8563 8.51787 9.92793C8.74014 9.98944 9.05921 9.98075 9.52202 9.65725L10.0071 9.31815L10.4875 9.66398C10.9544 10.0001 11.2731 10.0106 11.4898 9.95286C11.7432 9.8853 12.0412 9.67407 12.3427 9.25541C12.953 8.40796 13.3319 7.04533 13.3319 5.97556C13.3319 5.05616 12.8754 4.49863 12.3817 4.2884ZM13.0354 2.75437C14.2075 3.25344 15 4.45933 15 5.97556C15 7.33267 14.5448 9.05166 13.6966 10.2295C13.2688 10.8235 12.6814 11.3609 11.9196 11.5639C11.2828 11.7337 10.6282 11.6429 9.99262 11.3137C9.35627 11.6304 8.70402 11.7096 8.07274 11.5349C7.31627 11.3255 6.7314 10.7898 6.30392 10.1975C5.45652 9.0233 5 7.31782 5 5.97556C5 4.47357 5.79887 3.2817 6.96378 2.7842C7.92463 2.37384 9.04077 2.47631 9.99368 3.13215C10.9454 2.45903 12.066 2.34164 13.0354 2.75437Z" fill="white"/>
<path fill-rule="evenodd" clip-rule="evenodd" d="M9.16594 3.33042C9.16594 1.90657 8.52138 1.66739 8.33188 1.66739V0C9.8891 0 10.8341 1.50679 10.8341 3.33042H9.16594Z" fill="white"/>
</svg>
