<svg width="20" height="20" viewBox="0 0 20 20" fill="none" xmlns="http://www.w3.org/2000/svg">
<path fill-rule="evenodd" clip-rule="evenodd" d="M0.766602 2.49998C0.766602 2.00292 1.16955 1.59998 1.6666 1.59998H6.6666C7.78935 1.59998 8.86612 2.04599 9.66002 2.83989C10.4539 3.63379 10.8999 4.71056 10.8999 5.83331V17.5C10.8999 17.997 10.497 18.4 9.99994 18.4C9.50288 18.4 9.09994 17.997 9.09994 17.5C9.09994 17.0756 8.93136 16.6687 8.63131 16.3686C8.33125 16.0685 7.92428 15.9 7.49994 15.9H1.6666C1.16955 15.9 0.766602 15.497 0.766602 15V2.49998ZM9.09994 14.5V5.83331C9.09994 5.18795 8.84357 4.56902 8.38723 4.11268C7.93089 3.65634 7.31196 3.39998 6.6666 3.39998H2.5666V14.1H7.49994C8.06312 14.1 8.61191 14.2397 9.09994 14.5Z" fill="white"/>
<path fill-rule="evenodd" clip-rule="evenodd" d="M10.3395 2.83989C11.1334 2.04599 12.2102 1.59998 13.3329 1.59998H18.3329C18.83 1.59998 19.2329 2.00292 19.2329 2.49998V15C19.2329 15.497 18.83 15.9 18.3329 15.9H12.4996C12.0753 15.9 11.6683 16.0685 11.3682 16.3686C11.0682 16.6687 10.8996 17.0756 10.8996 17.5C10.8996 17.997 10.4967 18.4 9.99961 18.4C9.50255 18.4 9.09961 17.997 9.09961 17.5V5.83331C9.09961 4.71056 9.54562 3.63379 10.3395 2.83989ZM10.8996 14.5C11.3876 14.2397 11.9364 14.1 12.4996 14.1H17.4329V3.39998H13.3329C12.6876 3.39998 12.0687 3.65634 11.6123 4.11268C11.156 4.56902 10.8996 5.18795 10.8996 5.83331V14.5Z" fill="white"/>
</svg>
