<svg width="36" height="37" viewBox="0 0 36 37" fill="none" xmlns="http://www.w3.org/2000/svg">
<path d="M36 8.771C36 4.2215 32.2995 0.521 27.75 0.521C23.2005 0.521 19.5 4.2215 19.5 8.771V17.021H27.75C32.2995 17.021 36 13.3205 36 8.771ZM28.5 5H30V9.5H31.5V5H33V12.5H31.5V11H30C29.1735 11 28.5 10.3265 28.5 9.5V5ZM27 11V12.5H22.5V11.75C22.5 10.25 23.499 9.5015 24.3 8.9C25.0665 8.3255 25.5 7.964 25.5 7.25C25.5 6.836 25.164 6.5 24.75 6.5C24.336 6.5 24 6.836 24 7.25H22.5C22.5 6.0095 23.5095 5 24.75 5C25.9905 5 27 6.0095 27 7.25C27 8.75 26.001 9.4985 25.2 10.1C24.753 10.436 24.4185 10.697 24.219 11H27ZM21.3 24.893C16.86 22.97 13.68 19.7825 11.6205 15.191L16.7295 10.082L7.3305 0.683L2.574 5.438C0.915 7.0955 0 9.3365 0 11.75C0 22.622 13.878 36.5 24.75 36.5C27.1635 36.5 29.406 35.5865 31.0605 33.9275L35.817 29.171L26.4195 19.7735L21.2985 24.8945L21.3 24.893ZM28.938 31.8065C27.849 32.8985 26.361 33.5 24.75 33.5C15.4005 33.5 3 21.101 3 11.75C3 10.139 3.6015 8.651 4.6935 7.5605L7.329 4.925L12.4845 10.0805L8.0805 14.4845L8.4495 15.404C10.911 21.5315 15.1725 25.79 21.12 28.0595L22.0275 28.406L26.418 24.0155L31.5735 29.171L28.9365 31.808L28.938 31.8065Z" fill="#3035C4"/>
</svg>
