<svg width="25" height="25" viewBox="0 0 25 25" fill="none" xmlns="http://www.w3.org/2000/svg">
<g clip-path="url(#clip0_2682_17339)">
<path d="M11.0281 2.18808C11.7989 1.4173 13.0234 1.37674 13.8419 2.06638L13.9744 2.18808L15.953 4.16671H18.7512C19.8496 4.16671 20.7493 5.01658 20.8289 6.09456L20.8346 6.25004V9.04824L22.8132 11.0269C23.584 11.7977 23.6246 13.0221 22.9349 13.8407L22.8132 13.9732L20.8346 15.9519V18.7501C20.8346 19.8483 19.9847 20.7482 18.9067 20.8277L18.7512 20.8334H15.953L13.9744 22.812C13.2036 23.5828 11.9792 23.6234 11.1606 22.9337L11.0281 22.812L9.04949 20.8334H6.25125C5.15295 20.8334 4.25316 19.9835 4.17363 18.9056L4.16791 18.7501V15.9518L2.18929 13.9732C1.41852 13.2024 1.37796 11.978 2.0676 11.1594L2.1893 11.0269L4.16791 9.04828V6.25004C4.16791 5.15175 5.01778 4.25196 6.09576 4.17243L6.25125 4.16671H9.04949L11.0281 2.18808ZM12.5012 3.66121L10.5226 5.63985C10.1753 5.98714 9.71805 6.19916 9.23266 6.24198L9.04949 6.25004H6.25125V9.04828C6.25125 9.53943 6.07782 10.0127 5.76488 10.3862L5.64105 10.5215L3.66243 12.5001L5.64105 14.4786C5.98834 14.826 6.20036 15.2832 6.24318 15.7686L6.25125 15.9518V18.7501H9.04949C9.54063 18.7501 10.0139 18.9235 10.3874 19.2364L10.5226 19.3602L12.5012 21.3388L14.4799 19.3602C14.8272 19.013 15.2845 18.801 15.7698 18.7582L15.953 18.7501H18.7512V15.9519C18.7512 15.4607 18.9247 14.9874 19.2376 14.6139L19.3614 14.4787L21.3401 12.5001L19.3614 10.5213C19.0141 10.1741 18.8021 9.71682 18.7593 9.23142L18.7512 9.04824V6.25004H15.953C15.4619 6.25004 14.9886 6.07662 14.6151 5.76368L14.4799 5.63985L12.5012 3.66121ZM15.7089 9.35688C16.1157 8.95009 16.7753 8.95009 17.1821 9.35688C17.5576 9.73239 17.5865 10.3232 17.2687 10.7319L17.1821 10.83L12.0978 15.9144C11.6823 16.3298 11.027 16.3595 10.5773 16.0034L10.4774 15.9144L7.97301 13.41C7.56621 13.0032 7.56621 12.3436 7.97301 11.9369C8.34851 11.5614 8.93938 11.5325 9.34801 11.8502L9.44614 11.9369L11.2876 13.7782L15.7089 9.35688Z" fill="white"/>
</g>
<defs>
<clipPath id="clip0_2682_17339">
<rect width="25" height="25" fill="white"/>
</clipPath>
</defs>
</svg>
