<svg width="15" height="11" viewBox="0 0 15 11" fill="none" xmlns="http://www.w3.org/2000/svg">
<path d="M7.50049 6.5634C8.08712 6.5634 8.56267 6.08785 8.56267 5.50123C8.56267 4.9146 8.08712 4.43905 7.50049 4.43905C6.91387 4.43905 6.43832 4.9146 6.43832 5.50123C6.43832 6.08785 6.91387 6.5634 7.50049 6.5634Z" fill="#23283B"/>
<path d="M14.4896 5.14717C14.0364 4.36116 11.5438 0.416942 7.3093 0.544403C3.39341 0.643539 1.12744 4.08499 0.511374 5.14717C0.449223 5.25482 0.416504 5.37693 0.416504 5.50123C0.416504 5.62553 0.449223 5.74764 0.511374 5.85529C0.957488 6.62713 3.34384 10.458 7.51466 10.458H7.69168C11.6076 10.3589 13.8806 6.91746 14.4896 5.85529C14.5518 5.74764 14.5845 5.62553 14.5845 5.50123C14.5845 5.37693 14.5518 5.25482 14.4896 5.14717ZM7.50049 7.97964C7.01031 7.97964 6.53113 7.83428 6.12356 7.56195C5.71599 7.28962 5.39832 6.90254 5.21074 6.44967C5.02315 5.9968 4.97407 5.49848 5.0697 5.01771C5.16533 4.53695 5.40138 4.09534 5.74799 3.74872C6.0946 3.40211 6.53621 3.16607 7.01698 3.07044C7.49774 2.97481 7.99607 3.02389 8.44894 3.21147C8.90181 3.39906 9.28889 3.71672 9.56122 4.12429C9.83355 4.53187 9.9789 5.01104 9.9789 5.50123C9.9789 6.15854 9.71779 6.78894 9.25299 7.25373C8.7882 7.71852 8.15781 7.97964 7.50049 7.97964Z" fill="#23283B"/>
</svg>
