<svg width="20" height="23" viewBox="0 0 20 23" fill="none" xmlns="http://www.w3.org/2000/svg">
<path fill-rule="evenodd" clip-rule="evenodd" d="M8.62097 20.8435V19.7653H11.7642C11.7642 21.8579 11.9009 21.6522 9.42925 21.6522C8.90007 21.6522 8.62097 21.3731 8.62097 20.8435ZM7.7229 10.9148C7.7229 11.3394 7.76406 11.3391 8.09332 11.6673C8.27843 11.8519 9.51905 13.0194 9.51905 13.1611V18.4176C7.47218 18.4176 7.7215 18.5981 7.72297 17.4292C7.7259 15.067 6.31507 14.9324 5.50322 13.1358C4.72261 11.4084 4.93728 9.60729 5.96232 8.07511L6.54294 7.35316C8.24922 5.64605 10.9559 5.32241 13.1207 6.77224C13.2463 6.85642 13.369 6.9429 13.4806 7.04113L14.1325 7.69176C14.2385 7.81013 14.3139 7.92073 14.4076 8.04546C14.6004 8.30177 14.7234 8.57234 14.8779 8.87787C15.021 9.1611 15.1441 9.52941 15.2112 9.84717C15.4411 10.9354 15.3829 12.1324 14.8779 13.1316C14.5736 13.7335 14.2869 14.2059 13.8195 14.6784C13.3248 15.1784 13.0441 15.5707 12.8132 16.2774C12.4344 17.4369 12.9738 18.4176 12.348 18.4176H10.8662V13.1612C10.8662 13.0239 11.2042 12.7557 11.304 12.6558C11.5828 12.3768 12.6624 11.4368 12.6624 11.0946C12.6624 10.5592 12.4341 10.3308 11.899 10.3308C11.4605 10.3308 10.6896 11.4805 10.1927 11.8134C9.98667 11.6754 9.60052 11.2434 9.39564 11.0384C8.94381 10.5863 8.85849 10.3308 8.30673 10.3308C8.03141 10.3308 7.72297 10.6394 7.72297 10.9149L7.7229 10.9148ZM3.68164 10.7351C3.68164 12.011 3.86423 13.1374 4.48091 14.1585C4.74029 14.5879 5.10268 15.118 5.44355 15.4866C5.77568 15.8457 5.80803 15.7868 6.10529 16.3071C6.77444 17.4782 5.76114 18.8296 7.27393 19.6305C7.27393 20.5605 7.16248 21.3182 7.5285 21.9815C7.78921 22.4541 8.45152 23 9.15987 23H11.1805C12.2236 23 13.1182 22.0794 13.1124 20.9794C13.1099 20.5298 13.1113 20.0801 13.1113 19.6305C14.619 18.8323 13.626 17.5154 14.2636 16.3357C14.4907 15.9155 14.6452 15.8072 14.9417 15.4867L15.2736 15.1C16.0872 14.1021 16.7035 12.6343 16.7035 11.2743C16.7035 9.61282 16.4113 8.53592 15.5181 7.24885C15.0672 6.59913 14.9111 6.51481 14.4022 6.02911C14.175 5.81231 13.7896 5.55677 13.5129 5.39135C13.3324 5.28347 13.1992 5.20314 12.9921 5.10372C11.9548 4.60551 11.1408 4.49036 9.92315 4.49036C8.31288 4.49036 6.64028 5.32619 5.57862 6.38834C4.49691 7.47062 3.68164 9.15417 3.68164 10.7352V10.7351Z" fill="white"/>
<path fill-rule="evenodd" clip-rule="evenodd" d="M16.8838 6.73661C16.8838 7.03277 17.1387 7.41052 17.6022 7.41052C17.8847 7.41052 19.0992 6.66718 19.4083 6.47702C20.2943 5.93182 19.5573 4.76403 18.7154 5.28965C18.0341 5.71508 16.8838 6.14107 16.8838 6.73668V6.73661Z" fill="white"/>
<path fill-rule="evenodd" clip-rule="evenodd" d="M16.8838 15.2278C16.8838 15.8399 17.7027 16.1188 18.4018 16.5394C18.5042 16.601 18.5872 16.6396 18.6882 16.7021C19.5948 17.2642 20.2562 16.0769 19.4359 15.5497C19.1399 15.3595 17.8825 14.5989 17.6022 14.5989C17.1186 14.5989 16.8838 15.0179 16.8838 15.2278Z" fill="white"/>
<path fill-rule="evenodd" clip-rule="evenodd" d="M0.583984 5.74831C0.583984 6.39872 0.909686 6.42222 1.55291 6.8006C1.87771 6.9916 2.4644 7.4106 2.82917 7.4106C3.45479 7.4106 3.85645 6.51241 3.00952 6.06208C2.74098 5.91932 2.49382 5.756 2.21438 5.59974C1.7223 5.32455 1.60344 5.16431 1.16775 5.16431C0.892426 5.16431 0.583984 5.47284 0.583984 5.74838V5.74831Z" fill="white"/>
<path fill-rule="evenodd" clip-rule="evenodd" d="M9.52051 0.58178V2.55856C9.52051 3.33419 10.8676 3.33419 10.8676 2.55856V0.58178C10.8676 -0.193927 9.52051 -0.193927 9.52051 0.58178Z" fill="white"/>
<path fill-rule="evenodd" clip-rule="evenodd" d="M0.583984 16.0814C0.583984 16.8559 1.22547 16.9979 1.67101 16.7197C1.77883 16.6524 1.84228 16.6243 1.95688 16.5565L2.83776 16.0451C3.20225 15.8263 3.8656 15.4054 3.29204 14.8096C2.92266 14.4259 2.54057 14.6227 2.14702 14.8598L0.978237 15.5323C0.805288 15.6388 0.584054 15.8226 0.584054 16.0814H0.583984Z" fill="white"/>
</svg>
