<svg width="24" height="25" viewBox="0 0 24 25" fill="none" xmlns="http://www.w3.org/2000/svg">
<path fill-rule="evenodd" clip-rule="evenodd" d="M19.29 3.72107C19.7073 3.42475 20.2809 3.53319 20.5672 3.95726C22.1359 6.26657 22.9999 9.30164 22.9999 12.4999C22.9999 15.7003 22.1359 18.7343 20.5672 21.0436C20.3963 21.2959 20.1142 21.4473 19.8132 21.4473C19.6266 21.4473 19.4462 21.3893 19.291 21.2798C18.8758 20.9824 18.773 20.3973 19.0603 19.9722C20.4172 17.9731 21.1649 15.3192 21.1649 12.4999C21.1649 9.68169 20.4172 7.02776 19.0603 5.02871C18.773 4.60464 18.8758 4.01845 19.29 3.72107ZM16.1286 6.75839C16.547 6.46315 17.1185 6.56944 17.4068 6.99458C18.4198 8.48689 18.9787 10.4419 18.9787 12.5C18.9787 14.5581 18.4198 16.5131 17.4068 18.0054C17.2349 18.2577 16.9539 18.4091 16.6529 18.4091C16.4663 18.4091 16.2848 18.3511 16.1297 18.2416C15.7144 17.9442 15.6116 17.358 15.9 16.934C16.7022 15.7519 17.1437 14.177 17.1437 12.5C17.1437 10.822 16.7022 9.24807 15.9 8.06603C15.6116 7.64196 15.7144 7.05578 16.1286 6.75839Z" fill="#E6514A"/>
<path fill-rule="evenodd" clip-rule="evenodd" d="M4.71001 3.72107C4.29267 3.42475 3.71909 3.53319 3.43282 3.95726C1.86412 6.26657 1.00007 9.30164 1.00007 12.4999C1.00007 15.7003 1.86412 18.7343 3.43282 21.0436C3.60374 21.2959 3.88582 21.4473 4.18676 21.4473C4.37341 21.4473 4.55377 21.3893 4.70896 21.2798C5.12421 20.9824 5.22697 20.3973 4.93966 19.9722C3.58277 17.9731 2.83512 15.3192 2.83512 12.4999C2.83512 9.68169 3.58277 7.02776 4.93966 5.02871C5.22697 4.60464 5.12421 4.01845 4.71001 3.72107ZM7.87139 6.75839C7.453 6.46315 6.88152 6.56944 6.59315 6.99458C5.58021 8.48689 5.0213 10.4419 5.0213 12.5C5.0213 14.5581 5.58021 16.5131 6.59315 18.0054C6.76512 18.2577 7.04615 18.4091 7.34709 18.4091C7.53374 18.4091 7.71515 18.3511 7.87034 18.2416C8.28559 17.9442 8.38835 17.358 8.09999 16.934C7.29781 15.7519 6.85635 14.177 6.85635 12.5C6.85635 10.822 7.29781 9.24807 8.09999 8.06603C8.38835 7.64196 8.28559 7.05578 7.87139 6.75839Z" fill="#E6514A"/>
<circle cx="12" cy="12.5" r="2" fill="#E6514A"/>
</svg>
