<svg width="23" height="17" viewBox="0 0 23 17" fill="none" xmlns="http://www.w3.org/2000/svg">
<path d="M0.141602 16.706V14.3135C0.141602 13.7196 0.294317 13.1808 0.599746 12.6973C0.905176 12.2137 1.32938 11.8531 1.87237 11.6155C3.11106 11.0725 4.22673 10.6823 5.21937 10.4447C6.21202 10.2071 7.23436 10.0884 8.2864 10.0884C9.33843 10.0884 10.3565 10.2071 11.3407 10.4447C12.3249 10.6823 13.4363 11.0725 14.675 11.6155C15.218 11.8531 15.6464 12.2137 15.9603 12.6973C16.2742 13.1808 16.4312 13.7196 16.4312 14.3135V16.706H0.141602ZM17.9583 16.706V14.3135C17.9583 13.2445 17.6869 12.3664 17.1439 11.6792C16.6009 10.9919 15.8882 10.4362 15.0059 10.012C16.1767 10.1478 17.2796 10.3471 18.3147 10.6101C19.3497 10.8732 20.1897 11.1743 20.8345 11.5137C21.3944 11.8361 21.8356 12.2349 22.158 12.71C22.4804 13.1851 22.6416 13.7196 22.6416 14.3135V16.706H17.9583ZM8.2864 8.53577C7.16649 8.53577 6.2502 8.17944 5.53753 7.46677C4.82486 6.7541 4.46852 5.83781 4.46852 4.7179C4.46852 3.59799 4.82486 2.6817 5.53753 1.96903C6.2502 1.25636 7.16649 0.900024 8.2864 0.900024C9.40631 0.900024 10.3226 1.25636 11.0353 1.96903C11.7479 2.6817 12.1043 3.59799 12.1043 4.7179C12.1043 5.83781 11.7479 6.7541 11.0353 7.46677C10.3226 8.17944 9.40631 8.53577 8.2864 8.53577ZM17.4493 4.7179C17.4493 5.83781 17.093 6.7541 16.3803 7.46677C15.6676 8.17944 14.7513 8.53577 13.6314 8.53577C13.4448 8.53577 13.2369 8.52304 13.0078 8.49759C12.7788 8.47214 12.5709 8.42548 12.3842 8.3576C12.7915 7.93339 13.1012 7.41162 13.3133 6.79227C13.5254 6.17293 13.6314 5.48147 13.6314 4.7179C13.6314 3.95432 13.5254 3.27983 13.3133 2.69442C13.1012 2.10902 12.7915 1.57027 12.3842 1.07819C12.5709 1.02729 12.7788 0.984866 13.0078 0.950929C13.2369 0.916993 13.4448 0.900024 13.6314 0.900024C14.7513 0.900024 15.6676 1.25636 16.3803 1.96903C17.093 2.6817 17.4493 3.59799 17.4493 4.7179ZM1.66875 15.1789H14.904V14.3135C14.904 14.042 14.8234 13.779 14.6622 13.5245C14.501 13.2699 14.3017 13.0918 14.0641 12.99C12.8424 12.447 11.8158 12.0821 10.9844 11.8955C10.1529 11.7088 9.25359 11.6155 8.2864 11.6155C7.3192 11.6155 6.41564 11.7088 5.57571 11.8955C4.73578 12.0821 3.70495 12.447 2.48323 12.99C2.24567 13.0918 2.05054 13.2699 1.89782 13.5245C1.74511 13.779 1.66875 14.042 1.66875 14.3135V15.1789ZM8.2864 7.00862C8.94816 7.00862 9.49539 6.79227 9.92808 6.35958C10.3608 5.92689 10.5771 5.37966 10.5771 4.7179C10.5771 4.05613 10.3608 3.5089 9.92808 3.07621C9.49539 2.64352 8.94816 2.42717 8.2864 2.42717C7.62463 2.42717 7.0774 2.64352 6.64471 3.07621C6.21202 3.5089 5.99567 4.05613 5.99567 4.7179C5.99567 5.37966 6.21202 5.92689 6.64471 6.35958C7.0774 6.79227 7.62463 7.00862 8.2864 7.00862Z" fill="white"/>
</svg>
