<svg width="211" height="78" viewBox="0 0 211 78" fill="none" xmlns="http://www.w3.org/2000/svg">
<path d="M202.5 77.5L210.279 62.0247L192.987 63.0255L202.5 77.5ZM61.4577 2.61562C61.5329 1.79062 60.9251 1.06082 60.1001 0.985581C59.2751 0.910336 58.5453 1.51814 58.4701 2.34314L61.4577 2.61562ZM128.5 26.5L128.753 25.0215L128.5 26.5ZM203.79 73.8772C203.694 73.0543 202.949 72.4651 202.126 72.5612C201.303 72.6572 200.714 73.4021 200.81 74.2249L203.79 73.8772ZM199.3 67.8605C199.583 68.6395 200.443 69.0422 201.222 68.7601C202 68.478 202.403 67.6179 202.121 66.8389L199.3 67.8605ZM198.966 60.3651C198.53 59.6606 197.606 59.4427 196.901 59.8784C196.197 60.3141 195.979 61.2385 196.415 61.9431L198.966 60.3651ZM192.436 56.6163C192.984 57.2378 193.932 57.2976 194.553 56.7498C195.175 56.2021 195.234 55.2542 194.687 54.6327L192.436 56.6163ZM189.641 49.6474C189.016 49.1039 188.069 49.1702 187.525 49.7954C186.982 50.4206 187.048 51.3681 187.673 51.9116L189.641 49.6474ZM182.342 47.7666C183.021 48.2414 183.956 48.076 184.431 47.3971C184.906 46.7182 184.741 45.783 184.062 45.3082L182.342 47.7666ZM178.135 41.5378C177.418 41.1221 176.5 41.366 176.084 42.0826C175.669 42.7992 175.913 43.7171 176.629 44.1328L178.135 41.5378ZM170.63 40.9357C171.374 41.3003 172.272 40.9928 172.637 40.2489C173.002 39.505 172.694 38.6064 171.95 38.2418L170.63 40.9357ZM165.579 35.3558C164.815 35.0359 163.936 35.396 163.616 36.1602C163.296 36.9243 163.657 37.8032 164.421 38.1231L165.579 35.3558ZM158.055 35.6519C158.834 35.9323 159.694 35.5276 159.974 34.748C160.254 33.9685 159.85 33.1093 159.07 32.8289L158.055 35.6519ZM152.455 30.6211C151.664 30.3764 150.824 30.8196 150.579 31.6111C150.334 32.4025 150.777 33.2425 151.569 33.4872L152.455 30.6211ZM144.989 31.6015C145.79 31.8136 146.611 31.3365 146.823 30.5357C147.035 29.7349 146.558 28.9137 145.757 28.7015L144.989 31.6015ZM138.994 27.0464C138.186 26.8644 137.383 27.3721 137.201 28.1803C137.019 28.9884 137.527 29.7911 138.335 29.9731L138.994 27.0464ZM131.622 28.5857C132.436 28.7393 133.22 28.2039 133.374 27.3898C133.527 26.5758 132.992 25.7913 132.178 25.6378L131.622 28.5857ZM125.164 24.4159C124.346 24.2803 123.574 24.8328 123.438 25.65C123.303 26.4673 123.855 27.2398 124.672 27.3754L125.164 24.4159ZM117.71 26.2573C118.529 26.3842 119.295 25.8235 119.422 25.0048C119.549 24.1862 118.989 23.4197 118.17 23.2927L117.71 26.2573ZM111.421 22.2842C110.601 22.1664 109.84 22.7356 109.723 23.5556C109.605 24.3757 110.174 25.1359 110.994 25.2537L111.421 22.2842ZM104.116 24.3085C104.938 24.4161 105.691 23.8375 105.798 23.0161C105.906 22.1947 105.327 21.4415 104.506 21.3339L104.116 24.3085ZM97.5055 20.4645C96.6827 20.3682 95.9375 20.9571 95.8412 21.7799C95.7448 22.6027 96.3337 23.3478 97.1565 23.4442L97.5055 20.4645ZM90.4919 22.7114C91.316 22.7959 92.0525 22.1964 92.137 21.3723C92.2216 20.5482 91.622 19.8116 90.7979 19.7271L90.4919 22.7114ZM83.6735 19.0563C82.8481 18.9858 82.1218 19.5978 82.0512 20.4232C81.9807 21.2486 82.5926 21.9749 83.4181 22.0455L83.6735 19.0563ZM76.5976 21.5241C77.4242 21.5796 78.1392 20.9544 78.1946 20.1279C78.2501 19.3013 77.625 18.5863 76.7984 18.5308L76.5976 21.5241ZM69.8204 18.1343C68.9928 18.0961 68.291 18.736 68.2528 19.5636C68.2146 20.3911 68.8545 21.0929 69.6821 21.1311L69.8204 18.1343ZM62.7767 20.893C63.605 20.9114 64.2913 20.255 64.3098 19.4268C64.3282 18.5985 63.6718 17.9122 62.8436 17.8937L62.7767 20.893ZM55.876 17.832C55.0476 17.8364 54.3796 18.5115 54.384 19.3399C54.3883 20.1683 55.0634 20.8363 55.8918 20.8319L55.876 17.832ZM49.0331 20.9759C49.861 20.9447 50.5068 20.2483 50.4756 19.4205C50.4444 18.5927 49.748 17.9468 48.9202 17.978L49.0331 20.9759ZM41.8654 18.3792C41.0394 18.4431 40.4217 19.1646 40.4857 19.9905C40.5496 20.8165 41.271 21.4342 42.097 21.3702L41.8654 18.3792ZM35.4054 22.0427C36.2273 21.9396 36.8101 21.1896 36.7069 20.3676C36.6037 19.5456 35.8537 18.9629 35.0318 19.0661L35.4054 22.0427ZM28.0331 20.1587C27.2192 20.3133 26.6848 21.0984 26.8394 21.9123C26.994 22.7261 27.7791 23.2606 28.5929 23.106L28.0331 20.1587ZM21.9169 24.6543C22.7147 24.431 23.1804 23.6033 22.9571 22.8055C22.7338 22.0077 21.9061 21.542 21.1084 21.7653L21.9169 24.6543ZM14.3861 24.0694C13.6217 24.3889 13.2611 25.2675 13.5805 26.0318C13.8999 26.7962 14.7785 27.1569 15.5429 26.8374L14.3861 24.0694ZM9.74419 29.8904C10.432 29.4287 10.6152 28.4967 10.1534 27.809C9.69158 27.1212 8.75967 26.938 8.07189 27.3998L9.74419 29.8904ZM2.60767 32.5321C2.12739 33.2071 2.28525 34.1437 2.96025 34.6239C3.63525 35.1042 4.57178 34.9464 5.05206 34.2714L2.60767 32.5321ZM3.09859 39.8514C3.11309 39.0231 2.45338 38.3399 1.62508 38.3254C0.796779 38.3109 0.113553 38.9706 0.099053 39.7989L3.09859 39.8514ZM2.29066 47.1794C2.7334 47.8796 3.65994 48.0883 4.36013 47.6456C5.06032 47.2028 5.26902 46.2763 4.82628 45.5761L2.29066 47.1794ZM9.23547 50.1185C8.56151 49.6367 7.62463 49.7925 7.14289 50.4665C6.66114 51.1404 6.81696 52.0773 7.49091 52.5591L9.23547 50.1185ZM14.0466 55.896C14.8306 56.1637 15.6832 55.7452 15.9508 54.9612C16.2185 54.1772 15.8 53.3246 15.016 53.057L14.0466 55.896ZM21.4287 54.3303C20.602 54.2767 19.8884 54.9033 19.8347 55.73C19.781 56.5567 20.4077 57.2704 21.2344 57.324L21.4287 54.3303ZM28.538 56.8471C29.3507 56.6867 29.8795 55.8977 29.719 55.085C29.5586 54.2723 28.7696 53.7435 27.9569 53.9039L28.538 56.8471ZM34.156 51.8352C33.4089 52.1931 33.0934 53.0889 33.4513 53.8361C33.8093 54.5832 34.7051 54.8987 35.4522 54.5408L34.156 51.8352ZM41.5838 50.665C42.2302 50.1469 42.3341 49.2028 41.816 48.5564C41.2978 47.91 40.3538 47.8061 39.7074 48.3242L41.5838 50.665ZM44.453 43.6642C43.919 44.2975 43.9994 45.2439 44.6328 45.7779C45.2661 46.312 46.2124 46.2315 46.7464 45.5982L44.453 43.6642ZM50.9111 39.7545C51.3395 39.0454 51.1119 38.1233 50.4029 37.6949C49.6938 37.2665 48.7717 37.4941 48.3433 38.2031L50.9111 39.7545ZM51.4415 32.2341C51.1046 32.9909 51.4449 33.8776 52.2017 34.2146C52.9585 34.5516 53.8451 34.2112 54.1821 33.4544L51.4415 32.2341ZM56.7126 26.8812C56.9729 26.0947 56.5463 25.2461 55.7598 24.9859C54.9733 24.7256 54.1248 25.1522 53.8645 25.9387L56.7126 26.8812ZM55.7314 19.3906C55.5355 20.1955 56.0292 21.0068 56.8342 21.2027C57.6391 21.3985 58.4504 20.9048 58.6463 20.0998L55.7314 19.3906ZM60.0934 13.1008C60.2345 12.2845 59.6871 11.5083 58.8708 11.3672C58.0545 11.2261 57.2783 11.7735 57.1372 12.5898L60.0934 13.1008ZM58.0995 5.90932C58.0032 6.73213 58.5921 7.47722 59.415 7.57351C60.2378 7.66981 60.9828 7.08085 61.0791 6.25804L58.0995 5.90932ZM200.711 67.3497L202.121 66.8389C201.311 64.602 200.251 62.4432 198.966 60.3651L197.69 61.1541L196.415 61.9431C197.599 63.8577 198.565 65.8309 199.3 67.8605L200.711 67.3497ZM193.561 55.6245L194.687 54.6327C193.164 52.9048 191.477 51.2428 189.641 49.6474L188.657 50.7795L187.673 51.9116C189.417 53.4278 191.009 54.9968 192.436 56.6163L193.561 55.6245ZM183.202 46.5374L184.062 45.3082C182.19 43.9991 180.211 42.7421 178.135 41.5378L177.382 42.8353L176.629 44.1328C178.638 45.2978 180.545 46.5096 182.342 47.7666L183.202 46.5374ZM171.29 39.5887L171.95 38.2418C169.897 37.2357 167.771 36.2735 165.579 35.3558L165 36.7395L164.421 38.1231C166.561 39.0192 168.633 39.9571 170.63 40.9357L171.29 39.5887ZM158.562 34.2404L159.07 32.8289C156.914 32.0537 154.707 31.3175 152.455 30.6211L152.012 32.0542L151.569 33.4872C153.78 34.1708 155.944 34.8926 158.055 35.6519L158.562 34.2404ZM145.373 30.1515L145.757 28.7015C143.537 28.1132 141.281 27.5613 138.994 27.0464L138.664 28.5098L138.335 29.9731C140.586 30.4801 142.806 31.0231 144.989 31.6015L145.373 30.1515ZM131.9 27.1117L132.178 25.6378C131.042 25.4235 129.901 25.2181 128.753 25.0215L128.5 26.5L128.247 27.9784C129.377 28.1722 130.503 28.3746 131.622 28.5857L131.9 27.1117ZM128.5 26.5L128.753 25.0215C127.546 24.8147 126.35 24.6129 125.164 24.4159L124.918 25.8957L124.672 27.3754C125.853 27.5715 127.045 27.7725 128.247 27.9784L128.5 26.5ZM117.94 24.775L118.17 23.2927C115.88 22.9376 113.63 22.6016 111.421 22.2842L111.207 23.7689L110.994 25.2537C113.192 25.5695 115.431 25.9038 117.71 26.2573L117.94 24.775ZM104.311 22.8212L104.506 21.3339C102.123 21.0216 99.7899 20.7321 97.5055 20.4645L97.331 21.9543L97.1565 23.4442C99.4269 23.7101 101.747 23.9979 104.116 24.3085L104.311 22.8212ZM90.6449 21.2193L90.7979 19.7271C88.3641 19.4775 85.9897 19.2543 83.6735 19.0563L83.5458 20.5509L83.4181 22.0455C85.7169 22.2419 88.0744 22.4635 90.4919 22.7114L90.6449 21.2193ZM76.698 20.0275L76.7984 18.5308C74.4055 18.3703 72.0799 18.2385 69.8204 18.1343L69.7512 19.6327L69.6821 21.1311C71.9201 21.2343 74.2248 21.3649 76.5976 21.5241L76.698 20.0275ZM62.8101 19.3934L62.8436 17.8937C60.4392 17.8402 58.1174 17.8202 55.876 17.832L55.8839 19.332L55.8918 20.8319C58.1046 20.8203 60.3988 20.84 62.7767 20.893L62.8101 19.3934ZM48.9767 19.477L48.9202 17.978C46.46 18.0707 44.1096 18.2054 41.8654 18.3792L41.9812 19.8747L42.097 21.3702C44.2995 21.1997 46.6103 21.0672 49.0331 20.9759L48.9767 19.477ZM35.2186 20.5544L35.0318 19.0661C32.5473 19.3779 30.2165 19.7439 28.0331 20.1587L28.313 21.6323L28.5929 23.106C30.71 22.7038 32.9784 22.3473 35.4054 22.0427L35.2186 20.5544ZM21.5126 23.2098L21.1084 21.7653C18.6259 22.46 16.3897 23.2321 14.3861 24.0694L14.9645 25.4534L15.5429 26.8374C17.4201 26.0529 19.5386 25.3199 21.9169 24.6543L21.5126 23.2098ZM8.90804 28.6451L8.07189 27.3998C5.71828 28.98 3.90709 30.7059 2.60767 32.5321L3.82987 33.4017L5.05206 34.2714C6.10564 32.7906 7.63503 31.3066 9.74419 29.8904L8.90804 28.6451ZM1.59882 39.8252L0.099053 39.7989C0.0532642 42.4145 0.868726 44.9307 2.29066 47.1794L3.55847 46.3778L4.82628 45.5761C3.66699 43.7427 3.06458 41.7941 3.09859 39.8514L1.59882 39.8252ZM8.36319 51.3388L7.49091 52.5591C9.41464 53.9341 11.6325 55.0718 14.0466 55.896L14.5313 54.4765L15.016 53.057C12.8659 52.3229 10.9112 51.3163 9.23547 50.1185L8.36319 51.3388ZM21.3315 55.8272L21.2344 57.324C23.601 57.4777 26.0568 57.337 28.538 56.8471L28.2474 55.3755L27.9569 53.9039C25.7382 54.342 23.5433 54.4676 21.4287 54.3303L21.3315 55.8272ZM34.8041 53.188L35.4522 54.5408C37.539 53.541 39.5954 52.2589 41.5838 50.665L40.6456 49.4946L39.7074 48.3242C37.895 49.777 36.0329 50.9361 34.156 51.8352L34.8041 53.188ZM45.5997 44.6312L46.7464 45.5982C48.2067 43.8666 49.6008 41.9233 50.9111 39.7545L49.6272 38.9788L48.3433 38.2031C47.1099 40.2447 45.8067 42.059 44.453 43.6642L45.5997 44.6312ZM52.8118 32.8443L54.1821 33.4544C55.0903 31.4148 55.9367 29.2261 56.7126 26.8812L55.2886 26.4099L53.8645 25.9387C53.118 28.1947 52.3071 30.2903 51.4415 32.2341L52.8118 32.8443ZM57.1888 19.7452L58.6463 20.0998C59.1855 17.884 59.6695 15.5525 60.0934 13.1008L58.6153 12.8453L57.1372 12.5898C56.7243 14.9783 56.2538 17.2436 55.7314 19.3906L57.1888 19.7452ZM59.5893 6.08368L61.0791 6.25804C61.2183 5.06875 61.3447 3.85474 61.4577 2.61562L59.9639 2.47938L58.4701 2.34314C58.3593 3.55739 58.2356 4.74598 58.0995 5.90932L59.5893 6.08368Z" fill="white"/>
</svg>
