<svg width="36" height="52" viewBox="0 0 36 52" fill="none" xmlns="http://www.w3.org/2000/svg">
<path d="M30.5041 4.49189C30.6472 4.72804 30.5718 5.03551 30.3357 5.17865L26.4874 7.51126C26.2513 7.6544 25.9438 7.57901 25.8007 7.34286C25.6575 7.10671 25.7329 6.79924 25.9691 6.6561L29.3897 4.58267L27.3163 1.16201C27.1732 0.925864 27.2486 0.618391 27.4847 0.47525C27.7209 0.332109 28.0283 0.407506 28.1715 0.643653L30.5041 4.49189ZM35.5701 50.2611C35.8297 50.3552 35.9638 50.642 35.8697 50.9016C35.7756 51.1612 35.4888 51.2953 35.2292 51.2012L35.5701 50.2611ZM29.9574 5.23668C20.1082 2.82152 12.9037 3.51388 8.29082 6.04836C3.71248 8.56387 1.60988 12.9352 2.0129 18.1255C2.82442 28.5766 13.8462 42.3837 35.5701 50.2611L35.2292 51.2012C13.3319 43.2609 1.87118 29.2175 1.0159 18.2029C0.585526 12.6603 2.85348 7.89484 7.80928 5.17193C12.7306 2.46799 20.2238 1.82024 30.1956 4.26546L29.9574 5.23668Z" fill="black" fill-opacity="0.56"/>
</svg>
