<svg width="80" height="19" viewBox="0 0 80 19" fill="none" xmlns="http://www.w3.org/2000/svg">
<path d="M74.5 0.186531L68.3615 9.96672L79.9006 10.3927L74.5 0.186531ZM0.576744 14.9218C0.0763242 15.1555 -0.139939 15.7506 0.0937193 16.251C0.327377 16.7514 0.922462 16.9677 1.42289 16.734L0.576744 14.9218ZM73.3692 3.73572C73.3258 4.2863 73.7369 4.76781 74.2875 4.8112C74.8381 4.85459 75.3196 4.44343 75.363 3.89285L73.3692 3.73572ZM73.8085 11.2496C74.0145 10.7372 73.766 10.1548 73.2536 9.94884C72.7411 9.74288 72.1587 9.99134 71.9528 10.5038L73.8085 11.2496ZM67.8749 15.4667C67.3955 15.7408 67.2291 16.3518 67.5033 16.8312C67.7774 17.3106 68.3884 17.477 68.8678 17.2028L67.8749 15.4667ZM61.4224 18.9447C61.9747 18.9371 62.4161 18.4832 62.4085 17.931C62.4008 17.3787 61.9469 16.9373 61.3947 16.9449L61.4224 18.9447ZM54.373 16.3107C53.8279 16.222 53.3141 16.592 53.2254 17.1371C53.1366 17.6822 53.5066 18.196 54.0517 18.2848L54.373 16.3107ZM46.8949 16.8838C47.4348 17.0004 47.9669 16.6572 48.0834 16.1174C48.2 15.5776 47.8568 15.0454 47.317 14.9289L46.8949 16.8838ZM40.2422 13.3972C39.7016 13.284 39.1716 13.6304 39.0584 14.1709C38.9451 14.7115 39.2915 15.2415 39.8321 15.3547L40.2422 13.3972ZM32.7627 14.0157C33.3077 14.1049 33.8218 13.7353 33.9109 13.1902C34.0001 12.6452 33.6305 12.1311 33.0854 12.0419L32.7627 14.0157ZM25.835 11.1248C25.2847 11.0784 24.801 11.4869 24.7546 12.0372C24.7082 12.5876 25.1167 13.0713 25.6671 13.1177L25.835 11.1248ZM18.5525 12.897C19.1046 12.8816 19.5397 12.4216 19.5242 11.8695C19.5088 11.3175 19.0488 10.8824 18.4967 10.8978L18.5525 12.897ZM11.1597 11.6199C10.6157 11.7152 10.252 12.2335 10.3474 12.7775C10.4427 13.3215 10.961 13.6852 11.505 13.5898L11.1597 11.6199ZM4.68355 15.3892C5.20316 15.2021 5.47266 14.6292 5.28551 14.1095C5.09837 13.5899 4.52542 13.3204 4.00581 13.5076L4.68355 15.3892ZM71.9528 10.5038C70.9793 12.9259 69.5901 14.4858 67.8749 15.4667L68.8678 17.2028C71.0197 15.9722 72.6879 14.0378 73.8085 11.2496L71.9528 10.5038ZM61.3947 16.9449C59.285 16.9742 56.9362 16.7279 54.373 16.3107L54.0517 18.2848C56.6716 18.7112 59.1486 18.9763 61.4224 18.9447L61.3947 16.9449ZM47.317 14.9289C45.0543 14.4404 42.6761 13.9071 40.2422 13.3972L39.8321 15.3547C42.2606 15.8635 44.609 16.3903 46.8949 16.8838L47.317 14.9289ZM33.0854 12.0419C30.7101 11.6536 28.2871 11.3314 25.835 11.1248L25.6671 13.1177C28.0564 13.3191 30.4266 13.6338 32.7627 14.0157L33.0854 12.0419ZM18.4967 10.8978C16.0584 10.9659 13.607 11.191 11.1597 11.6199L11.505 13.5898C13.8457 13.1796 16.1996 12.9627 18.5525 12.897L18.4967 10.8978ZM4.00581 13.5076C2.85684 13.9214 1.7132 14.3912 0.576744 14.9218L1.42289 16.734C2.50323 16.2296 3.59062 15.7829 4.68355 15.3892L4.00581 13.5076Z" fill="white"/>
</svg>
