<svg width="48" height="48" viewBox="0 0 48 48" fill="none" xmlns="http://www.w3.org/2000/svg">
<rect x="0.8" y="0.8" width="46.4" height="46.4" rx="8" stroke="white" stroke-width="1.6" stroke-linecap="round"/>
<path fill-rule="evenodd" clip-rule="evenodd" d="M11 12.5714C11 9.99739 13.0655 8 15.7273 8H35.8182C36.4709 8 37 8.51167 37 9.14286C37 9.77404 36.4709 10.2857 35.8182 10.2857H15.7273C14.3709 10.2857 13.3636 11.2598 13.3636 12.5714C13.3636 13.8831 14.3709 14.8571 15.7273 14.8571H35.8182C36.4709 14.8571 37 15.3688 37 16V38.8571C37 39.4883 36.4709 40 35.8182 40C35.1655 40 34.6364 39.4883 34.6364 38.8571V17.1429H15.7273C13.0655 17.1429 11 15.1455 11 12.5714Z" fill="white"/>
<path fill-rule="evenodd" clip-rule="evenodd" d="M12.1818 11.4286C12.8345 11.4286 13.3636 11.9402 13.3636 12.5714V35.4286C13.3636 36.7402 14.3709 37.7143 15.7273 37.7143H35.8182C36.4709 37.7143 37 38.226 37 38.8571C37 39.4883 36.4709 40 35.8182 40H15.7273C13.0655 40 11 38.0026 11 35.4286V12.5714C11 11.9402 11.5291 11.4286 12.1818 11.4286Z" fill="white"/>
<path fill-rule="evenodd" clip-rule="evenodd" d="M14.5455 12.5714C14.5455 11.9402 15.0746 11.4286 15.7273 11.4286H35.8182C36.4709 11.4286 37 11.9402 37 12.5714C37 13.2026 36.4709 13.7143 35.8182 13.7143H15.7273C15.0746 13.7143 14.5455 13.2026 14.5455 12.5714Z" fill="white"/>
<path fill-rule="evenodd" clip-rule="evenodd" d="M18.0909 14.8571C18.7436 14.8571 19.2727 15.3688 19.2727 16V28.1287L21.2626 27.4872C21.5052 27.409 21.7675 27.409 22.0101 27.4872L24 28.1287V16C24 15.3688 24.5291 14.8571 25.1818 14.8571C25.8345 14.8571 26.3636 15.3688 26.3636 16V29.7143C26.3636 30.0817 26.181 30.4266 25.8728 30.6414C25.5647 30.8562 25.1685 30.9147 24.8081 30.7985L21.6364 29.7761L18.4646 30.7985C18.1042 30.9147 17.7081 30.8562 17.3999 30.6414C17.0917 30.4266 16.9091 30.0817 16.9091 29.7143V16C16.9091 15.3688 17.4382 14.8571 18.0909 14.8571Z" fill="white"/>
</svg>
