<svg width="13" height="25" viewBox="0 0 13 25" fill="none" xmlns="http://www.w3.org/2000/svg">
<path d="M11.5772 8.11173V12.4692C11.5772 15.2843 9.27376 17.682 6.45865 17.6349C3.72257 17.589 1.51085 15.3494 1.51085 12.6025V8.11173C1.51085 7.71816 1.19195 7.39929 0.798376 7.39929C0.404806 7.39929 0.0859375 7.71816 0.0859375 8.11173V12.4438C0.0859375 15.941 2.79999 18.9234 6.2947 19.0558C9.96885 19.1946 13.0018 16.2462 13.0018 12.6025V8.11173C13.0018 7.71816 12.6829 7.39929 12.2894 7.39929C11.8961 7.39929 11.5772 7.71816 11.5772 8.11173Z" fill="black"/>
<path d="M6.54366 16.353C4.48099 16.353 2.79297 14.6653 2.79297 12.6024V4.43905C2.79297 2.37606 4.48068 0.688354 6.54366 0.688354C8.60665 0.688354 10.2944 2.37606 10.2944 4.43905V12.6024C10.2944 14.665 8.60665 16.353 6.54366 16.353Z" fill="black"/>
<path d="M6.71702 23.9923H6.36869C5.97512 23.9923 5.65625 23.6734 5.65625 23.2798V18.1182H7.42946V23.2798C7.42946 23.6731 7.11059 23.9923 6.71702 23.9923Z" fill="black"/>
<path d="M9.5217 24.6883H3.56549C3.12574 24.6883 2.76562 24.3285 2.76562 23.8885C2.76562 23.4487 3.12543 23.0886 3.56549 23.0886H9.5217C9.96176 23.0886 10.3216 23.4484 10.3216 23.8885C10.3216 24.3282 9.96145 24.6883 9.5217 24.6883Z" fill="black"/>
</svg>
