<svg width="48" height="48" viewBox="0 0 48 48" fill="none" xmlns="http://www.w3.org/2000/svg">
<rect x="0.8" y="0.8" width="46.4" height="46.4" rx="8" stroke="white" stroke-width="1.6" stroke-linecap="round"/>
<path d="M42.6512 7.32131C42.7617 7.4229 42.8495 7.54359 42.9093 7.67646C42.9692 7.80934 43 7.95178 43 8.09564C43 8.23949 42.9692 8.38194 42.9093 8.51481C42.8495 8.64768 42.7617 8.76837 42.6512 8.86996L32.8029 17.9388H39.4357C39.7506 17.9388 40.0526 18.054 40.2753 18.2591C40.498 18.4642 40.6231 18.7424 40.6231 19.0325C40.6231 19.3225 40.498 19.6007 40.2753 19.8058C40.0526 20.0109 39.7506 20.1261 39.4357 20.1261H29.9365C29.6216 20.1261 29.3196 20.0109 29.0969 19.8058C28.8742 19.6007 28.7491 19.3225 28.7491 19.0325V10.283C28.7491 9.99294 28.8742 9.71476 29.0969 9.50965C29.3196 9.30455 29.6216 9.18932 29.9365 9.18932C30.2514 9.18932 30.5534 9.30455 30.7761 9.50965C30.9988 9.71476 31.1239 9.99294 31.1239 10.283V16.3923L40.9698 7.32131C41.0801 7.21946 41.2111 7.13865 41.3554 7.08352C41.4996 7.02838 41.6543 7 41.8105 7C41.9667 7 42.1213 7.02838 42.2656 7.08352C42.4098 7.13865 42.5409 7.21946 42.6512 7.32131ZM13.6786 9.90678C13.5384 9.74067 13.3615 9.60394 13.1595 9.50567C12.9575 9.4074 12.7352 9.34983 12.5072 9.3368C12.2792 9.32376 12.0508 9.35556 11.8372 9.43007C11.6236 9.50458 11.4296 9.62011 11.2682 9.76897L8.81267 12.0329C7.66564 13.0916 7.24293 14.5899 7.74401 15.9045C9.82371 21.3458 13.2067 26.286 17.6422 30.3586C22.0639 34.4439 27.4273 37.5599 33.3348 39.4756C34.7621 39.9371 36.3888 39.5478 37.5382 38.4913L39.9938 36.2295C40.1554 36.0808 40.2808 35.9022 40.3617 35.7054C40.4426 35.5087 40.4771 35.2983 40.463 35.0883C40.4488 34.8783 40.3863 34.6735 40.2796 34.4875C40.1729 34.3015 40.0245 34.1385 39.8441 34.0093L34.3655 30.0852C34.1728 29.9476 33.9487 29.852 33.7101 29.8058C33.4715 29.7596 33.2246 29.7639 32.9881 29.8184L27.7873 31.0148C27.0931 31.1747 26.3658 31.1662 25.6762 30.9902C24.9866 30.8143 24.3582 30.4769 23.8523 30.0108L18.0198 24.6365C17.5134 24.1707 17.1466 23.592 16.9552 22.9568C16.7637 22.3216 16.7541 21.6516 16.9274 21.012L18.2287 16.2217C18.2879 16.0038 18.2925 15.7764 18.2424 15.5567C18.1922 15.3369 18.0884 15.1305 17.939 14.953L13.6786 9.90678ZM9.47524 8.1197C9.89081 7.7368 10.3901 7.43971 10.9399 7.24817C11.4897 7.05662 12.0774 6.975 12.6641 7.00872C13.2507 7.04244 13.8229 7.19073 14.3426 7.44375C14.8622 7.69677 15.3175 8.04872 15.6782 8.47624L19.9386 13.5203C20.7199 14.4456 20.9954 15.6508 20.6867 16.7882L19.3876 21.5786C19.3205 21.8267 19.3241 22.0866 19.3982 22.333C19.4722 22.5794 19.6142 22.804 19.8104 22.985L25.6452 28.3594C25.842 28.5404 26.0862 28.6714 26.3542 28.7396C26.6222 28.8079 26.9049 28.811 27.1746 28.7487L32.373 27.5522C32.9824 27.4119 33.6185 27.401 34.2332 27.5204C34.8478 27.6397 35.425 27.8862 35.921 28.2413L41.3973 32.1654C43.366 33.5762 43.5465 36.2558 41.7844 37.8766L39.3288 40.1383C37.5715 41.757 34.9449 42.4679 32.4965 41.6739C26.2299 39.643 20.5401 36.3385 15.8492 32.0057C11.1454 27.6857 7.55784 22.4458 5.35259 16.6745C4.49291 14.4215 5.26472 12.0001 7.02207 10.3814L9.47761 8.1197H9.47524Z" fill="white"/>
</svg>
