<svg width="143" height="121" viewBox="0 0 143 121" fill="none" xmlns="http://www.w3.org/2000/svg">
<g opacity="0.3" clip-path="url(#clip0_2870_19424)">
<path fill-rule="evenodd" clip-rule="evenodd" d="M142.373 19.6891C121.049 30.1013 110.387 42.3355 110.387 56.392C119.476 57.4332 126.992 61.1208 132.934 67.4549C138.877 73.7889 141.849 81.1208 141.849 89.4505C141.849 98.3009 138.965 105.763 133.197 111.837C127.428 117.91 120.175 120.947 111.435 120.947C101.647 120.947 93.1701 116.999 86.0037 109.103C78.8374 101.208 75.2542 91.6198 75.2542 80.3399C75.2542 46.5002 94.306 20.0363 132.41 0.947266L142.373 19.6891ZM67.1186 19.6891C45.6196 30.1013 34.8702 42.3355 34.8702 56.392C44.134 57.4332 51.7373 61.1208 57.6801 67.4549C63.6229 73.7889 66.5943 81.1208 66.5943 89.4505C66.5943 98.3009 63.6666 105.763 57.8112 111.837C51.9557 117.91 44.6584 120.947 35.919 120.947C26.1308 120.947 17.6973 116.999 10.6184 109.103C3.53942 101.208 0 91.6198 0 80.3399C0 46.5002 18.9643 20.0363 56.8935 0.947266L67.1186 19.6891Z" fill="#ACAEEB"/>
</g>
<defs>
<clipPath id="clip0_2870_19424">
<rect width="143" height="120" fill="white" transform="translate(0 0.947266)"/>
</clipPath>
</defs>
</svg>
