<svg width="96" height="43" viewBox="0 0 96 43" fill="none" xmlns="http://www.w3.org/2000/svg">
<path d="M95.3077 15.9872L85.2911 10.2425L85.3243 21.7894L95.3077 15.9872ZM32.4993 1.18628C32.4993 0.633991 32.0516 0.186275 31.4993 0.186275C30.947 0.186275 30.4993 0.633991 30.4993 1.18628H32.4993ZM91.7842 14.9973C91.232 15.0005 90.7868 15.4508 90.79 16.0031C90.7932 16.5554 91.2435 17.0005 91.7958 16.9973L91.7842 14.9973ZM85.0155 17.0766C85.5677 17.0668 86.0073 16.6112 85.9975 16.059C85.9877 15.5068 85.5321 15.0671 84.9799 15.0769L85.0155 17.0766ZM78.2736 15.2391C77.7215 15.2562 77.2878 15.7175 77.3048 16.2695C77.3219 16.8215 77.7832 17.2552 78.3352 17.2382L78.2736 15.2391ZM71.5266 17.4975C72.0783 17.4724 72.5051 17.0047 72.4799 16.453C72.4548 15.9013 71.9871 15.4744 71.4354 15.4996L71.5266 17.4975ZM64.7191 15.8599C64.1678 15.8941 63.7487 16.3686 63.7828 16.9199C63.817 17.4711 64.2916 17.8902 64.8428 17.8561L64.7191 15.8599ZM58.0986 18.3361C58.6491 18.2916 59.0593 17.8093 59.0148 17.2588C58.9703 16.7083 58.488 16.2981 57.9375 16.3426L58.0986 18.3361ZM51.1529 16.9627C50.6035 17.0191 50.2038 17.5101 50.2602 18.0595C50.3165 18.6089 50.8076 19.0086 51.357 18.9523L51.1529 16.9627ZM44.8049 19.7037C45.3528 19.6338 45.7402 19.1331 45.6704 18.5852C45.6005 18.0374 45.0998 17.6499 44.5519 17.7197L44.8049 19.7037ZM37.7189 18.694C37.1735 18.7806 36.8015 19.293 36.8881 19.8384C36.9747 20.3839 37.487 20.7559 38.0325 20.6693L37.7189 18.694ZM31.3843 21.8475C31.9262 21.7406 32.2788 21.2147 32.1719 20.6728C32.0649 20.131 31.539 19.7784 30.9972 19.8853L31.3843 21.8475ZM24.3576 21.3534C23.8215 21.486 23.4945 22.0282 23.6271 22.5643C23.7598 23.1004 24.3019 23.4275 24.8381 23.2948L24.3576 21.3534ZM18.3965 25.1002C18.9229 24.9329 19.2139 24.3706 19.0466 23.8443C18.8793 23.318 18.317 23.0269 17.7907 23.1942L18.3965 25.1002ZM11.3814 25.5542C10.8738 25.772 10.6389 26.36 10.8567 26.8675C11.0745 27.375 11.6625 27.6099 12.17 27.3921L11.3814 25.5542ZM6.35029 30.4408C6.81194 30.1377 6.94043 29.5177 6.63728 29.056C6.33414 28.5944 5.71415 28.4659 5.2525 28.769L6.35029 30.4408ZM0.134488 33.7521C-0.136683 34.2332 0.0335205 34.8431 0.514649 35.1143C0.995777 35.3854 1.60564 35.2152 1.87681 34.7341L0.134488 33.7521ZM2.72562 39.4027C2.27629 39.0816 1.65172 39.1855 1.33059 39.6349C1.00947 40.0842 1.11341 40.7088 1.56274 41.0299L2.72562 39.4027ZM8.68865 42.6425C9.23925 42.5994 9.65068 42.1181 9.60761 41.5675C9.56453 41.0169 9.08326 40.6055 8.53266 40.6485L8.68865 42.6425ZM14.6227 38.8613C14.1305 39.112 13.9348 39.7141 14.1855 40.2062C14.4362 40.6984 15.0383 40.8941 15.5305 40.6434L14.6227 38.8613ZM21.2342 36.4954C21.6286 36.1088 21.635 35.4757 21.2484 35.0813C20.8618 34.6868 20.2287 34.6804 19.8343 35.067L21.2342 36.4954ZM23.8636 29.9954C23.5713 30.464 23.7143 31.0808 24.1829 31.3731C24.6515 31.6653 25.2684 31.5224 25.5606 31.0537L23.8636 29.9954ZM28.6551 24.8318C28.8566 24.3176 28.6031 23.7374 28.0889 23.5359C27.5747 23.3344 26.9945 23.5879 26.793 24.1021L28.6551 24.8318ZM28.7397 17.8165C28.612 18.3538 28.944 18.8929 29.4813 19.0207C30.0186 19.1484 30.5577 18.8164 30.6855 18.2791L28.7397 17.8165ZM31.891 11.5258C31.9595 10.9778 31.5707 10.4781 31.0227 10.4096C30.4747 10.3412 29.9749 10.73 29.9065 11.278L31.891 11.5258ZM30.4352 4.63316C30.4144 5.18505 30.8448 5.64937 31.3967 5.67026C31.9486 5.69114 32.4129 5.26067 32.4338 4.70878L30.4352 4.63316ZM84.9799 15.0769C82.6881 15.1176 80.4531 15.172 78.2736 15.2391L78.3352 17.2382C80.5058 17.1713 82.7321 17.1172 85.0155 17.0766L84.9799 15.0769ZM71.4354 15.4996C69.1293 15.6048 66.8911 15.7253 64.7191 15.8599L64.8428 17.8561C67.0036 17.7221 69.231 17.6023 71.5266 17.4975L71.4354 15.4996ZM57.9375 16.3426C55.591 16.5322 53.3303 16.7394 51.1529 16.9627L51.357 18.9523C53.5195 18.7305 55.7659 18.5246 58.0986 18.3361L57.9375 16.3426ZM44.5519 17.7197C42.1613 18.0246 39.8851 18.3502 37.7189 18.694L38.0325 20.6693C40.1775 20.3288 42.4335 20.0061 44.8049 19.7037L44.5519 17.7197ZM30.9972 19.8853C28.6286 20.3527 26.418 20.8435 24.3576 21.3534L24.8381 23.2948C26.8653 22.7932 29.0447 22.3091 31.3843 21.8475L30.9972 19.8853ZM17.7907 23.1942C15.3901 23.9573 13.2605 24.7479 11.3814 25.5542L12.17 27.3921C13.982 26.6146 16.0499 25.8462 18.3965 25.1002L17.7907 23.1942ZM5.2525 28.769C2.74478 30.4157 1.0649 32.1013 0.134488 33.7521L1.87681 34.7341C2.59717 33.456 4.00074 31.9837 6.35029 30.4408L5.2525 28.769ZM1.56274 41.0299C3.31501 42.2822 5.86718 42.8632 8.68865 42.6425L8.53266 40.6485C6.03506 40.8439 3.9913 40.3072 2.72562 39.4027L1.56274 41.0299ZM15.5305 40.6434C17.4616 39.6597 19.3974 38.2954 21.2342 36.4954L19.8343 35.067C18.1392 36.7283 16.3684 37.972 14.6227 38.8613L15.5305 40.6434ZM25.5606 31.0537C26.6989 29.2285 27.7424 27.1611 28.6551 24.8318L26.793 24.1021C25.9225 26.3234 24.9333 28.2801 23.8636 29.9954L25.5606 31.0537ZM30.6855 18.2791C31.1828 16.1875 31.5896 13.9393 31.891 11.5258L29.9065 11.278C29.6135 13.6235 29.2192 15.7998 28.7397 17.8165L30.6855 18.2791ZM32.4338 4.70878C32.4771 3.5656 32.4993 2.39165 32.4993 1.18628H30.4993C30.4993 2.36711 30.4775 3.51583 30.4352 4.63316L32.4338 4.70878Z" fill="white"/>
</svg>
