<svg width="414" height="113" viewBox="0 0 414 113" fill="none" xmlns="http://www.w3.org/2000/svg">
<path d="M413.103 54.7479L398.991 44.7046L397.349 61.9471L413.103 54.7479ZM107.663 1.94212C107.739 1.11711 107.131 0.387319 106.306 0.312076C105.481 0.236832 104.751 0.844633 104.676 1.66964L107.663 1.94212ZM221.583 99.5695L221.33 101.048C221.356 101.052 221.382 101.056 221.409 101.059L221.583 99.5695ZM104.323 5.2528C104.236 6.07664 104.834 6.81504 105.657 6.90206C106.481 6.98907 107.22 6.39175 107.307 5.56791L104.323 5.2528ZM106.461 12.5973C106.572 11.7763 105.997 11.0207 105.176 10.9095C104.355 10.7983 103.599 11.3736 103.488 12.1946L106.461 12.5973ZM102.485 18.8415C102.349 19.6586 102.901 20.4315 103.718 20.5677C104.535 20.704 105.308 20.152 105.445 19.3348L102.485 18.8415ZM104.165 26.2814C104.329 25.4694 103.804 24.6781 102.992 24.5139C102.18 24.3497 101.389 24.8749 101.225 25.6869L104.165 26.2814ZM99.7359 32.4182C99.5419 33.2236 100.038 34.0338 100.843 34.2278C101.648 34.4218 102.458 33.9262 102.652 33.1208L99.7359 32.4182ZM100.925 39.7304C101.15 38.9332 100.687 38.1043 99.8894 37.8789C99.0922 37.6536 98.2633 38.1171 98.0379 38.9143L100.925 39.7304ZM95.9819 45.6221C95.7213 46.4085 96.1475 47.2572 96.9339 47.5178C97.7203 47.7784 98.569 47.3522 98.8296 46.5659L95.9819 45.6221ZM96.5338 52.9975C96.8305 52.2241 96.4441 51.3565 95.6706 51.0598C94.8972 50.763 94.0296 51.1495 93.7329 51.9229L96.5338 52.9975ZM91.0606 58.3801C90.7233 59.1368 91.0634 60.0236 91.8201 60.3608C92.5768 60.698 93.4636 60.3579 93.8008 59.6012L91.0606 58.3801ZM90.8271 65.8115C91.2057 65.0747 90.9154 64.1704 90.1786 63.7917C89.4417 63.4131 88.5375 63.7034 88.1588 64.4402L90.8271 65.8115ZM84.7993 70.5101C84.3754 71.2219 84.6087 72.1425 85.3204 72.5665C86.0321 72.9904 86.9528 72.7571 87.3767 72.0453L84.7993 70.5101ZM83.6677 77.8384C84.1372 77.1559 83.9646 76.222 83.2822 75.7524C82.5997 75.2828 81.6657 75.4554 81.1962 76.1379L83.6677 77.8384ZM77.0571 81.7089C76.5386 82.355 76.642 83.2991 77.2881 83.8176C77.9342 84.3361 78.8783 84.2327 79.3968 83.5866L77.0571 81.7089ZM74.8174 88.8664C75.3842 88.2622 75.354 87.313 74.7499 86.7461C74.1457 86.1793 73.1964 86.2095 72.6296 86.8137L74.8174 88.8664ZM67.7812 91.5732C67.1662 92.1282 67.1176 93.0768 67.6726 93.6918C68.2277 94.3068 69.1762 94.3554 69.7912 93.8004L67.7812 91.5732ZM64.3194 98.3189C64.9811 97.8204 65.1135 96.88 64.6151 96.2183C64.1166 95.5565 63.1762 95.4242 62.5145 95.9226L64.3194 98.3189ZM56.9371 99.7367C56.2323 100.172 56.0139 101.096 56.4492 101.801C56.8846 102.506 57.8089 102.724 58.5137 102.289L56.9371 99.7367ZM52.3735 105.689C53.1168 105.323 53.4228 104.424 53.057 103.68C52.6912 102.937 51.7921 102.631 51.0488 102.997L52.3735 105.689ZM44.7845 105.698C44.0081 105.987 43.6127 106.85 43.9015 107.627C44.1903 108.403 45.0539 108.798 45.8304 108.51L44.7845 105.698ZM39.052 110.635C39.8545 110.429 40.3384 109.612 40.1328 108.81C39.9272 108.007 39.11 107.523 38.3075 107.729L39.052 110.635ZM31.6689 109.046C30.8486 109.161 30.2769 109.919 30.3922 110.74C30.5074 111.56 31.2658 112.132 32.0862 112.017L31.6689 109.046ZM24.9936 112.584C25.8219 112.569 26.4815 111.886 26.4667 111.057C26.452 110.229 25.7686 109.57 24.9403 109.584L24.9936 112.584ZM18.2337 109.241C17.4118 109.138 16.6617 109.721 16.5583 110.543C16.455 111.365 17.0375 112.115 17.8595 112.218L18.2337 109.241ZM10.8521 110.69C11.6393 110.948 12.4866 110.519 12.7446 109.732C13.0026 108.944 12.5736 108.097 11.7864 107.839L10.8521 110.69ZM6.06271 104.94C5.41619 104.422 4.47218 104.526 3.9542 105.173C3.43622 105.819 3.54043 106.763 4.18695 107.281L6.06271 104.94ZM0.661896 100.082C0.563913 100.904 1.15134 101.651 1.97395 101.749C2.79657 101.847 3.54286 101.259 3.64084 100.437L0.661896 100.082ZM6.81343 95.9626C7.46924 95.4564 7.59056 94.5144 7.0844 93.8586C6.57824 93.2028 5.63627 93.0815 4.98046 93.5877L6.81343 95.9626ZM11.3438 90.0074C10.5819 90.3326 10.228 91.2139 10.5532 91.9759C10.8785 92.7378 11.7598 93.0917 12.5217 92.7665L11.3438 90.0074ZM18.8271 90.5578C19.6228 90.3274 20.081 89.4954 19.8506 88.6997C19.6201 87.904 18.7882 87.4458 17.9924 87.6763L18.8271 90.5578ZM24.8164 85.9956C24.0054 86.165 23.4854 86.9598 23.6549 87.7707C23.8244 88.5816 24.6191 89.1016 25.43 88.9322L24.8164 85.9956ZM32.4266 87.6812C33.2457 87.5568 33.8087 86.7919 33.6843 85.9729C33.5598 85.1539 32.795 84.5908 31.976 84.7153L32.4266 87.6812ZM38.5872 83.8456C37.764 83.9384 37.1719 84.681 37.2647 85.5042C37.3576 86.3274 38.1002 86.9195 38.9234 86.8267L38.5872 83.8456ZM46.0201 86.1503C46.8459 86.085 47.4624 85.3626 47.3971 84.5367C47.3318 83.7109 46.6093 83.0943 45.7835 83.1597L46.0201 86.1503ZM52.4557 82.7197C51.6284 82.764 50.9937 83.4705 51.038 84.2977C51.0822 85.125 51.7887 85.7597 52.616 85.7155L52.4557 82.7197ZM59.7601 85.4189C60.5881 85.3939 61.2391 84.7024 61.2142 83.8744C61.1892 83.0463 60.4977 82.3953 59.6696 82.4203L59.7601 85.4189ZM66.3909 82.282C65.5626 82.2914 64.8987 82.9706 64.9082 83.799C64.9176 84.6274 65.5968 85.2912 66.4252 85.2818L66.3909 82.282ZM73.3262 85.263C74.1546 85.2677 74.8299 84.5999 74.8346 83.7715C74.8392 82.9431 74.1714 82.2677 73.343 82.2631L73.3262 85.263ZM80.5347 82.3607C79.7064 82.3431 79.0208 83.0003 79.0032 83.8285C78.9856 84.6568 79.6427 85.3424 80.471 85.36L80.5347 82.3607ZM87.0838 85.5441C87.9117 85.5724 88.6058 84.9242 88.6342 84.0962C88.6625 83.2683 88.0143 82.5742 87.1863 82.5458L87.0838 85.5441ZM94.1559 82.828C93.3284 82.7895 92.6263 83.4291 92.5878 84.2566C92.5493 85.0841 93.1889 85.7862 94.0164 85.8248L94.1559 82.828ZM101.239 86.204C102.066 86.2522 102.776 85.6209 102.824 84.7938C102.872 83.9668 102.241 83.2573 101.414 83.2091L101.239 86.204ZM108.014 83.6265C107.187 83.5703 106.471 84.1947 106.415 85.0212C106.359 85.8477 106.983 86.5633 107.81 86.6196L108.014 83.6265ZM114.633 87.1167C115.459 87.1808 116.181 86.5631 116.245 85.7372C116.309 84.9112 115.691 84.1897 114.865 84.1257L114.633 87.1167ZM121.972 84.7093C121.147 84.6378 120.42 85.2489 120.348 86.0743C120.277 86.8996 120.888 87.6266 121.713 87.6981L121.972 84.7093ZM128.656 88.3285C129.48 88.4067 130.212 87.8016 130.291 86.9769C130.369 86.1522 129.764 85.4201 128.939 85.3419L128.656 88.3285ZM135.607 85.9998C134.783 85.9154 134.046 86.5151 133.962 87.3392C133.877 88.1634 134.477 88.8998 135.301 88.9842L135.607 85.9998ZM142.152 89.7105C142.975 89.8007 143.716 89.2063 143.806 88.3828C143.897 87.5593 143.302 86.8186 142.479 86.7283L142.152 89.7105ZM149.558 87.5293C148.735 87.4333 147.99 88.0226 147.894 88.8454C147.798 89.6683 148.387 90.4131 149.21 90.5091L149.558 87.5293ZM156.198 91.3472C157.02 91.4485 157.769 90.8641 157.87 90.0419C157.971 89.2197 157.387 88.471 156.565 88.3697L156.198 91.3472ZM163.186 89.2052C162.365 89.0991 161.613 89.6792 161.507 90.5008C161.401 91.3224 161.981 92.0744 162.802 92.1805L163.186 89.2052ZM169.574 93.0744C170.395 93.1851 171.151 92.6093 171.261 91.7883C171.372 90.9673 170.796 90.212 169.975 90.1013L169.574 93.0744ZM176.934 91.0593C176.113 90.9441 175.355 91.5157 175.24 92.3361C175.124 93.1564 175.696 93.9149 176.516 94.0301L176.934 91.0593ZM183.629 95.049C184.449 95.1686 185.211 94.6011 185.33 93.7813C185.45 92.9616 184.882 92.2001 184.063 92.0804L183.629 95.049ZM190.809 93.082C189.99 92.9584 189.226 93.5222 189.102 94.3414C188.979 95.1605 189.543 95.9248 190.362 96.0485L190.809 93.082ZM196.997 97.0655C197.815 97.1929 198.582 96.6326 198.71 95.814C198.837 94.9954 198.277 94.2286 197.458 94.1012L196.997 97.0655ZM204.246 95.1733C203.428 95.0423 202.659 95.5991 202.528 96.4171C202.397 97.2351 202.954 98.0045 203.772 98.1355L204.246 95.1733ZM210.688 99.2594C211.505 99.394 212.277 98.8406 212.412 98.0231C212.546 97.2057 211.993 96.4339 211.176 96.2993L210.688 99.2594ZM218.247 97.48C217.43 97.3418 216.656 97.8919 216.518 98.7087C216.38 99.5256 216.93 100.3 217.747 100.438L218.247 97.48ZM225.064 101.468C225.888 101.555 226.626 100.959 226.714 100.135C226.802 99.3111 226.205 98.5722 225.381 98.4846L225.064 101.468ZM232.456 99.1625C231.63 99.0924 230.904 99.7046 230.834 100.53C230.764 101.356 231.376 102.082 232.202 102.152L232.456 99.1625ZM239.456 102.686C240.283 102.737 240.994 102.108 241.046 101.281C241.097 100.455 240.468 99.7427 239.641 99.6915L239.456 102.686ZM246.762 100.047C245.934 100.016 245.238 100.662 245.207 101.49C245.176 102.318 245.821 103.014 246.649 103.045L246.762 100.047ZM253.836 103.225C254.664 103.234 255.344 102.571 255.353 101.743C255.363 100.914 254.7 100.235 253.872 100.225L253.836 103.225ZM261.059 100.212C260.231 100.225 259.57 100.907 259.583 101.736C259.596 102.564 260.278 103.225 261.106 103.212L261.059 100.212ZM268.335 102.993C269.163 102.955 269.803 102.254 269.766 101.426C269.728 100.599 269.027 99.9582 268.2 99.9956L268.335 102.993ZM275.303 99.565C274.477 99.6281 273.858 100.349 273.922 101.175C273.985 102.001 274.705 102.619 275.532 102.556L275.303 99.565ZM282.702 101.89C283.526 101.8 284.12 101.059 284.03 100.236C283.939 99.4124 283.199 98.8181 282.375 98.9084L282.702 101.89ZM289.476 98.0045C288.656 98.1237 288.088 98.8848 288.207 99.7047C288.326 100.524 289.087 101.092 289.907 100.973L289.476 98.0045ZM297.065 99.7993C297.88 99.65 298.419 98.8684 298.27 98.0536C298.121 97.2387 297.339 96.6991 296.524 96.8484L297.065 99.7993ZM303.513 95.4298C302.705 95.6103 302.196 96.412 302.376 97.2205C302.557 98.0291 303.358 98.5382 304.167 98.3578L303.513 95.4298ZM311.205 96.64C312.006 96.4276 312.483 95.6062 312.27 94.8055C312.058 94.0048 311.236 93.5279 310.436 93.7404L311.205 96.64ZM317.281 91.7746C316.49 92.0195 316.046 92.8595 316.291 93.6509C316.536 94.4423 317.376 94.8854 318.168 94.6406L317.281 91.7746ZM325.041 92.3588C325.822 92.0818 326.23 91.2243 325.953 90.4436C325.676 89.6628 324.819 89.2545 324.038 89.5316L325.041 92.3588ZM330.695 87.016C329.926 87.3243 329.553 88.1976 329.861 88.9665C330.17 89.7354 331.043 90.1087 331.812 89.8004L330.695 87.016ZM338.467 86.9785C339.224 86.6406 339.563 85.7534 339.225 84.9971C338.887 84.2407 338 83.9016 337.243 84.2396L338.467 86.9785ZM343.712 81.2058C342.968 81.5708 342.661 82.4695 343.026 83.2132C343.391 83.9569 344.29 84.2639 345.033 83.8989L343.712 81.2058ZM351.483 80.6034C352.214 80.2153 352.493 79.3073 352.105 78.5754C351.717 77.8436 350.809 77.5649 350.077 77.953L351.483 80.6034ZM356.343 74.5259C355.621 74.9318 355.364 75.8463 355.77 76.5685C356.176 77.2907 357.09 77.547 357.813 77.1411L356.343 74.5259ZM364.063 73.558C364.779 73.1414 365.022 72.2231 364.605 71.5071C364.189 70.7911 363.27 70.5485 362.554 70.9652L364.063 73.558ZM368.762 67.3344C368.047 67.7524 367.806 68.6711 368.224 69.3863C368.642 70.1016 369.56 70.3426 370.275 69.9246L368.762 67.3344ZM376.475 66.3544C377.197 65.9481 377.453 65.0334 377.046 64.3115C376.64 63.5895 375.726 63.3337 375.004 63.74L376.475 66.3544ZM381.382 60.3008C380.644 60.6772 380.351 61.5805 380.728 62.3185C381.104 63.0565 382.007 63.3496 382.745 62.9732L381.382 60.3008ZM389.156 59.9728C389.92 59.6521 390.279 58.7729 389.958 58.0091C389.637 57.2452 388.758 56.886 387.994 57.2068L389.156 59.9728ZM394.913 54.7305C394.117 54.9617 393.66 55.794 393.891 56.5895C394.122 57.385 394.955 57.8425 395.75 57.6113L394.913 54.7305ZM402.54 56.1763C403.361 56.0708 403.942 55.3192 403.836 54.4975C403.731 53.6758 402.979 53.0952 402.158 53.2007L402.54 56.1763ZM409.594 52.9085C408.767 52.8667 408.062 53.5036 408.021 54.3309C407.979 55.1583 408.616 55.8629 409.443 55.9047L409.594 52.9085ZM104.676 1.66964C104.566 2.87661 104.448 4.07096 104.323 5.2528L107.307 5.56791C107.433 4.37173 107.552 3.16317 107.663 1.94212L104.676 1.66964ZM103.488 12.1946C103.181 14.459 102.847 16.6744 102.485 18.8415L105.445 19.3348C105.811 17.137 106.15 14.8915 106.461 12.5973L103.488 12.1946ZM101.225 25.6869C100.759 27.989 100.263 30.2324 99.7359 32.4182L102.652 33.1208C103.188 30.8984 103.693 28.619 104.165 26.2814L101.225 25.6869ZM98.0379 38.9143C97.3864 41.2193 96.7002 43.4546 95.9819 45.6221L98.8296 46.5659C99.5622 44.3552 100.261 42.0773 100.925 39.7304L98.0379 38.9143ZM93.7329 51.9229C92.8768 54.154 91.985 56.3056 91.0606 58.3801L93.8008 59.6012C94.7472 57.4775 95.6592 55.277 96.5338 52.9975L93.7329 51.9229ZM88.1588 64.4402C87.0732 66.5527 85.9519 68.575 84.7993 70.5101L87.3767 72.0453C88.5619 70.0556 89.7134 67.9786 90.8271 65.8115L88.1588 64.4402ZM81.1962 76.1379C79.8482 78.097 78.4666 79.9526 77.0571 81.7089L79.3968 83.5866C80.8529 81.7722 82.2785 79.8574 83.6677 77.8384L81.1962 76.1379ZM72.6296 86.8137C71.0374 88.5107 69.4188 90.0953 67.7812 91.5732L69.7912 93.8004C71.4908 92.2665 73.1687 90.6236 74.8174 88.8664L72.6296 86.8137ZM62.5145 95.9226C60.6662 97.3147 58.8038 98.5836 56.9371 99.7367L58.5137 102.289C60.4586 101.088 62.3972 99.7667 64.3194 98.3189L62.5145 95.9226ZM51.0488 102.997C48.9486 104.031 46.8558 104.927 44.7845 105.698L45.8304 108.51C47.9957 107.704 50.1816 106.767 52.3735 105.689L51.0488 102.997ZM38.3075 107.729C36.0411 108.309 33.8215 108.743 31.6689 109.046L32.0862 112.017C34.3489 111.699 36.6777 111.243 39.052 110.635L38.3075 107.729ZM24.9403 109.584C22.5619 109.627 20.3148 109.503 18.2337 109.241L17.8595 112.218C20.0888 112.498 22.4789 112.628 24.9936 112.584L24.9403 109.584ZM11.7864 107.839C9.36543 107.046 7.43684 106.041 6.06271 104.94L4.18695 107.281C5.91379 108.665 8.18955 109.817 10.8521 110.69L11.7864 107.839ZM3.64084 100.437C3.79057 99.1795 4.64996 97.6323 6.81343 95.9626L4.98046 93.5877C2.45854 95.5341 0.941809 97.7318 0.661896 100.082L3.64084 100.437ZM12.5217 92.7665C14.3207 91.9985 16.4147 91.2566 18.8271 90.5578L17.9924 87.6763C15.4829 88.4032 13.272 89.1842 11.3438 90.0074L12.5217 92.7665ZM25.43 88.9322C27.5835 88.4821 29.913 88.0632 32.4266 87.6812L31.976 84.7153C29.4127 85.1048 27.0286 85.5333 24.8164 85.9956L25.43 88.9322ZM38.9234 86.8267C41.1675 86.5736 43.5317 86.3472 46.0201 86.1503L45.7835 83.1597C43.2638 83.359 40.8663 83.5885 38.5872 83.8456L38.9234 86.8267ZM52.616 85.7155C54.9052 85.593 57.2858 85.4935 59.7601 85.4189L59.6696 82.4203C57.1731 82.4955 54.7692 82.5959 52.4557 82.7197L52.616 85.7155ZM66.4252 85.2818C68.6566 85.2563 70.9565 85.2497 73.3262 85.263L73.343 82.2631C70.9569 82.2497 68.64 82.2563 66.3909 82.282L66.4252 85.2818ZM80.471 85.36C82.6225 85.4057 84.8265 85.4669 87.0838 85.5441L87.1863 82.5458C84.9164 82.4682 82.6995 82.4067 80.5347 82.3607L80.471 85.36ZM94.0164 85.8248C96.37 85.9343 98.7772 86.0605 101.239 86.204L101.414 83.2091C98.9404 83.065 96.5215 82.9381 94.1559 82.828L94.0164 85.8248ZM107.81 86.6196C110.042 86.7716 112.316 86.9371 114.633 87.1167L114.865 84.1257C112.539 83.9454 110.255 83.7792 108.014 83.6265L107.81 86.6196ZM121.713 87.6981C123.988 87.8951 126.302 88.1051 128.656 88.3285L128.939 85.3419C126.578 85.1178 124.256 84.907 121.972 84.7093L121.713 87.6981ZM135.301 88.9842C137.55 89.2144 139.834 89.4564 142.152 89.7105L142.479 86.7283C140.154 86.4735 137.863 86.2308 135.607 85.9998L135.301 88.9842ZM149.21 90.5091C151.507 90.7769 153.836 91.0562 156.198 91.3472L156.565 88.3697C154.197 88.078 151.861 87.7979 149.558 87.5293L149.21 90.5091ZM162.802 92.1805C165.032 92.4683 167.289 92.7662 169.574 93.0744L169.975 90.1013C167.684 89.7923 165.421 89.4937 163.186 89.2052L162.802 92.1805ZM176.516 94.0301C178.859 94.3592 181.23 94.6987 183.629 95.049L184.063 92.0804C181.658 91.7294 179.281 91.3891 176.934 91.0593L176.516 94.0301ZM190.362 96.0485C192.55 96.3787 194.762 96.7177 196.997 97.0655L197.458 94.1012C195.219 93.7527 193.002 93.413 190.809 93.082L190.362 96.0485ZM203.772 98.1355C206.053 98.5011 208.359 98.8757 210.688 99.2594L211.176 96.2993C208.842 95.9149 206.532 95.5396 204.246 95.1733L203.772 98.1355ZM217.747 100.438C218.935 100.639 220.129 100.842 221.33 101.048L221.836 98.0911C220.634 97.885 219.437 97.6813 218.247 97.48L217.747 100.438ZM221.409 101.059C222.637 101.203 223.855 101.339 225.064 101.468L225.381 98.4846C224.183 98.357 222.975 98.2221 221.757 98.0797L221.409 101.059ZM232.202 102.152C234.661 102.361 237.078 102.538 239.456 102.686L239.641 99.6915C237.287 99.5456 234.892 99.3697 232.456 99.1625L232.202 102.152ZM246.649 103.045C249.089 103.137 251.484 103.196 253.836 103.225L253.872 100.225C251.546 100.197 249.176 100.138 246.762 100.047L246.649 103.045ZM261.106 103.212C263.565 103.173 265.974 103.099 268.335 102.993L268.2 99.9956C265.868 100.101 263.488 100.174 261.059 100.212L261.106 103.212ZM275.532 102.556C277.975 102.37 280.364 102.147 282.702 101.89L282.375 98.9084C280.07 99.1611 277.714 99.3808 275.303 99.565L275.532 102.556ZM289.907 100.973C292.352 100.618 294.737 100.226 297.065 99.7993L296.524 96.8484C294.233 97.2681 291.884 97.6546 289.476 98.0045L289.907 100.973ZM304.167 98.3578C306.576 97.82 308.921 97.246 311.205 96.64L310.436 93.7404C308.19 94.3362 305.884 94.9008 303.513 95.4298L304.167 98.3578ZM318.168 94.6406C320.526 93.9109 322.816 93.1485 325.041 92.3588L324.038 89.5316C321.85 90.3079 319.599 91.0573 317.281 91.7746L318.168 94.6406ZM331.812 89.8004C334.1 88.8827 336.316 87.9397 338.467 86.9785L337.243 84.2396C335.126 85.1857 332.945 86.1135 330.695 87.016L331.812 89.8004ZM345.033 83.8989C347.253 82.8097 349.4 81.7079 351.483 80.6034L350.077 77.953C348.019 79.0446 345.9 80.1319 343.712 81.2058L345.033 83.8989ZM357.813 77.1411C359.961 75.9336 362.041 74.7348 364.063 73.558L362.554 70.9652C360.54 72.1376 358.473 73.3284 356.343 74.5259L357.813 77.1411ZM370.275 69.9246C372.397 68.6847 374.457 67.4898 376.475 66.3544L375.004 63.74C372.965 64.8875 370.887 66.0922 368.762 67.3344L370.275 69.9246ZM382.745 62.9732C384.916 61.8661 387.046 60.8589 389.156 59.9728L387.994 57.2068C385.801 58.1276 383.603 59.168 381.382 60.3008L382.745 62.9732ZM395.75 57.6113C398.004 56.9562 400.259 56.4691 402.54 56.1763L402.158 53.2007C399.707 53.5154 397.3 54.0369 394.913 54.7305L395.75 57.6113Z" fill="white"/>
</svg>
