<svg width="375" height="92" viewBox="0 0 375 92" fill="none" xmlns="http://www.w3.org/2000/svg">
<path d="M1.97302 63.7025C1.06887 63.6129 0.335938 63.0999 0.335938 62.5579C0.335938 51.5194 0.335938 40.4809 0.335938 29.4424C0.335938 28.9004 1.06843 28.3874 1.97302 28.2978C2.87717 28.2083 3.61101 28.5853 3.61101 29.1393C3.61101 40.3799 3.61101 51.6206 3.61101 62.8613C3.61101 63.415 2.87717 63.7923 1.97302 63.7025Z" fill="#E0E4EA"/>
<path d="M10.8642 78.0386C9.9574 77.892 9.22266 77.3107 9.22266 76.7422C9.22266 56.2476 9.22266 35.753 9.22266 15.2584C9.22266 14.6896 9.9574 14.1087 10.8642 13.962C11.7711 13.8154 12.5067 14.1679 12.5067 14.7479C12.5067 35.5828 12.5067 56.4178 12.5067 77.2529C12.5067 77.8327 11.7711 78.1854 10.8642 78.0386Z" fill="#E0E4EA"/>
<path d="M19.7789 55.4873C18.8693 55.4474 18.1328 54.9329 18.1328 54.3388C18.1328 48.7798 18.1328 43.2207 18.1328 37.6617C18.1328 37.0678 18.8698 36.5534 19.7789 36.5132C20.688 36.4732 21.4258 36.9312 21.4258 37.5357C21.4258 43.1785 21.4258 48.8215 21.4258 54.4643C21.4258 55.0693 20.6884 55.5273 19.7789 55.4873Z" fill="#E0E4EA"/>
<path d="M28.7209 56.2988C27.8091 56.2593 27.0703 55.7257 27.0703 55.1078C27.0703 49.0361 27.0703 42.9644 27.0703 36.8925C27.0703 36.2745 27.8091 35.7409 28.7209 35.7015C29.6327 35.6621 30.3719 36.1393 30.3719 36.7674C30.3719 42.9225 30.3719 49.0775 30.3719 55.2328C30.3719 55.8609 29.6322 56.3385 28.7209 56.2988Z" fill="#E0E4EA"/>
<path d="M37.682 61.6444C36.7679 61.5901 36.0273 61.026 36.0273 60.3855C36.0273 50.7952 36.0273 41.2049 36.0273 31.6149C36.0273 30.9744 36.7679 30.4103 37.682 30.356C38.596 30.3016 39.337 30.7851 39.337 31.4353C39.337 41.1452 39.337 50.8553 39.337 60.5651C39.337 61.2153 38.596 61.6988 37.682 61.6444Z" fill="#E0E4EA"/>
<path d="M46.666 64.9571C45.7502 64.8973 45.0078 64.3116 45.0078 63.6495C45.0078 51.8832 45.0078 40.1169 45.0078 28.3505C45.0078 27.6887 45.7502 27.1028 46.666 27.043C47.5818 26.9832 48.3251 27.4793 48.3251 28.1501C48.3251 40.0499 48.3251 51.9499 48.3251 63.8497C48.3246 64.5207 47.5818 65.0169 46.666 64.9571Z" fill="#E0E4EA"/>
<path d="M55.6735 57.8237C54.7554 57.7898 54.0117 57.2088 54.0117 56.5266C54.0117 49.5093 54.0117 42.4917 54.0117 35.4744C54.0117 34.7924 54.7559 34.2115 55.6735 34.1775C56.5916 34.1432 57.3362 34.6756 57.3362 35.366C57.3362 42.4557 57.3362 49.5455 57.3362 56.6352C57.3358 57.3254 56.5911 57.8577 55.6735 57.8237Z" fill="#E0E4EA"/>
<path d="M64.6927 71.4747C63.7729 71.4087 63.0273 70.7863 63.0273 70.0858C63.0273 54.0289 63.0273 37.972 63.0273 21.9151C63.0273 21.2145 63.7729 20.5921 64.6927 20.5261C65.6126 20.4602 66.3586 20.9818 66.3586 21.6903C66.3586 37.897 66.3586 54.104 66.3586 70.311C66.3586 71.0192 65.6126 71.5409 64.6927 71.4747Z" fill="#E0E4EA"/>
<path d="M73.731 72.0931C72.8093 72.0321 72.0625 71.3992 72.0625 70.6813C72.0625 54.2273 72.0625 37.7735 72.0625 21.3194C72.0625 20.6013 72.8093 19.9689 73.731 19.9077C74.6527 19.8466 75.4 20.3859 75.4 21.111C75.4 37.7038 75.4 54.2967 75.4 70.8895C75.4 71.6148 74.6527 72.1541 73.731 72.0931Z" fill="#E0E4EA"/>
<path d="M82.7884 58.1907C81.8654 58.1649 81.1172 57.548 81.1172 56.8139C81.1172 49.6049 81.1172 42.396 81.1172 35.1869C81.1172 34.4529 81.8654 33.8362 82.7884 33.8102C83.7114 33.7841 84.4601 34.3641 84.4601 35.1048C84.4601 42.3685 84.4601 49.6324 84.4601 56.896C84.4601 57.6368 83.7114 58.2165 82.7884 58.1907Z" fill="#E0E4EA"/>
<path d="M91.8614 56.8487C90.9371 56.8279 90.1875 56.2035 90.1875 55.4548C90.1875 49.1519 90.1875 42.8493 90.1875 36.5464C90.1875 35.7975 90.9371 35.1731 91.8614 35.1525C92.7858 35.1317 93.5358 35.7273 93.5358 36.4821C93.5358 42.8277 93.5358 49.1735 93.5358 55.5191C93.5358 56.2737 92.7858 56.8693 91.8614 56.8487Z" fill="#E0E4EA"/>
<path d="M100.946 59.7198C100.02 59.6965 99.2695 59.0592 99.2695 58.2969C99.2695 50.0992 99.2695 41.9016 99.2695 33.704C99.2695 32.9416 100.02 32.3044 100.946 32.281C101.871 32.2577 102.622 32.8618 102.622 33.6295C102.622 41.8768 102.622 50.1238 102.622 58.371C102.622 59.1388 101.871 59.7431 100.946 59.7198Z" fill="#E0E4EA"/>
<path d="M110.042 58.8427C109.115 58.8236 108.363 58.1796 108.363 57.4051C108.363 49.8019 108.363 42.1983 108.363 34.5951C108.363 33.8209 109.115 33.1769 110.042 33.1575C110.969 33.1384 111.721 33.7549 111.721 34.5343C111.721 42.178 111.721 49.822 111.721 57.4659C111.721 58.2451 110.969 58.862 110.042 58.8427Z" fill="#E0E4EA"/>
<path d="M119.149 57.3608C118.221 57.3459 117.469 56.6969 117.469 55.9118C117.469 49.304 117.469 42.6965 117.469 36.0888C117.469 35.3036 118.221 34.6547 119.149 34.6398C120.077 34.6249 120.83 35.2535 120.83 36.0429C120.83 42.6811 120.83 49.3194 120.83 55.9577C120.83 56.747 120.077 57.3757 119.149 57.3608Z" fill="#E0E4EA"/>
<path d="M128.264 56.377C127.335 56.3653 126.582 55.7112 126.582 54.9166C126.582 48.9724 126.582 43.0285 126.582 37.0843C126.582 36.2898 127.335 35.6356 128.264 35.6239C129.193 35.6123 129.947 36.2506 129.947 37.0491C129.947 43.0168 129.947 48.9846 129.947 54.9521C129.947 55.7504 129.193 56.3887 128.264 56.377Z" fill="#E0E4EA"/>
<path d="M137.39 85.2396C136.461 85.2034 135.707 84.5222 135.707 83.7192C135.707 58.5733 135.707 33.4273 135.707 8.28142C135.707 7.47868 136.461 6.79724 137.39 6.76102C138.32 6.7248 139.074 7.35018 139.074 8.15615C139.074 33.3856 139.074 58.615 139.074 83.8445C139.074 84.6507 138.32 85.2758 137.39 85.2396Z" fill="#E0E4EA"/>
<path d="M146.525 74.7585C145.594 74.7369 144.84 74.0622 144.84 73.2522C144.84 55.0843 144.84 36.9161 144.84 18.7481C144.84 17.9384 145.594 17.2634 146.525 17.2419C147.455 17.2203 148.209 17.8623 148.209 18.6747C148.209 36.8918 148.209 55.1086 148.209 73.3256C148.209 74.1381 147.455 74.7801 146.525 74.7585Z" fill="#E0E4EA"/>
<path d="M155.658 62.9281C154.727 62.9182 153.973 62.2487 153.973 61.4335C153.973 51.1447 153.973 40.8558 153.973 30.567C153.973 29.7518 154.728 29.0823 155.658 29.0721C156.589 29.0622 157.344 29.7174 157.344 30.5347C157.344 40.8449 157.344 51.1553 157.344 61.4655C157.344 62.2829 156.589 62.9383 155.658 62.9281Z" fill="#E0E4EA"/>
<path d="M164.8 56.1105C163.868 56.1063 163.113 55.438 163.113 54.6186C163.113 48.8731 163.113 43.1276 163.113 37.3822C163.113 36.5625 163.868 35.8945 164.8 35.89C165.731 35.8858 166.486 36.5484 166.486 37.3693C166.486 43.1232 166.486 48.8774 166.486 54.6313C166.486 55.4521 165.731 56.1147 164.8 56.1105Z" fill="#E0E4EA"/>
<path d="M173.949 61.3343C173.017 61.3306 172.262 60.6601 172.262 59.8377C172.262 50.6126 172.262 41.3877 172.262 32.1629C172.262 31.3403 173.017 30.67 173.949 30.6663C174.88 30.6623 175.636 31.3274 175.636 32.1507C175.636 41.3838 175.636 50.6171 175.636 59.8502C175.636 60.6732 174.88 61.3383 173.949 61.3343Z" fill="#E0E4EA"/>
<path d="M183.093 61.9363C182.162 61.935 181.406 61.2653 181.406 60.4412C181.406 50.8137 181.406 41.1862 181.406 31.5589C181.406 30.7349 182.162 30.0651 183.093 30.0638C184.025 30.0626 184.78 30.7304 184.78 31.5547C184.78 41.1849 184.78 50.8152 184.78 60.4456C184.78 61.27 184.025 61.9378 183.093 61.9363Z" fill="#E0E4EA"/>
<path d="M192.246 72.625C191.314 72.6272 190.559 71.9597 190.559 71.1353C190.559 54.3787 190.559 37.6217 190.559 20.865C190.559 20.0407 191.314 19.3734 192.246 19.3754C193.177 19.3776 193.933 20.0481 193.933 20.8722C193.933 37.6239 193.933 54.3759 193.933 71.1279C193.933 71.9522 193.177 72.623 192.246 72.625Z" fill="#E0E4EA"/>
<path d="M201.39 91.9062C200.459 91.9173 199.703 91.2577 199.703 90.4344C199.703 60.8117 199.703 31.189 199.703 1.56629C199.703 0.742951 200.459 0.0833369 201.39 0.0945C202.322 0.105663 203.077 0.783136 203.077 1.60548C203.077 31.2021 203.077 60.7985 203.077 90.3952C203.077 91.2178 202.322 91.8948 201.39 91.9062Z" fill="#E0E4EA"/>
<path d="M210.538 58.9854C209.607 58.9909 208.852 58.3293 208.852 57.5082C208.852 49.8365 208.852 42.1648 208.852 34.4928C208.852 33.6717 209.607 33.0101 210.538 33.0155C211.47 33.021 212.225 33.6903 212.225 34.5096C212.225 42.1702 212.225 49.8305 212.225 57.4911C212.224 58.3107 211.469 58.98 210.538 58.9854Z" fill="#E0E4EA"/>
<path d="M219.678 59.4952C218.747 59.5031 217.992 58.8465 217.992 58.0291C217.992 50.0098 217.992 41.9908 217.992 33.9715C217.992 33.1541 218.747 32.4975 219.678 32.5054C220.609 32.5134 221.363 33.1812 221.363 33.9966C221.363 41.999 221.363 50.0016 221.363 58.004C221.363 58.8192 220.608 59.487 219.678 59.4952Z" fill="#E0E4EA"/>
<path d="M228.821 65.6619C227.891 65.6765 227.136 65.0296 227.137 64.2171C227.137 52.0725 227.137 39.9279 227.137 27.7833C227.137 26.9711 227.891 26.3236 228.821 26.3385C229.752 26.3534 230.506 27.0224 230.506 27.8321C230.506 39.944 230.506 52.0561 230.506 64.168C230.506 64.978 229.752 65.647 228.821 65.6619Z" fill="#E0E4EA"/>
<path d="M237.953 68.8859C237.024 68.9072 236.27 68.2702 236.27 67.464C236.27 53.1547 236.27 38.8457 236.27 24.5364C236.27 23.7305 237.024 23.0934 237.953 23.1145C238.883 23.1356 239.637 23.8044 239.637 24.6074C239.637 38.8693 239.637 53.1309 239.637 67.3928C239.637 68.1958 238.883 68.8646 237.953 68.8859Z" fill="#E0E4EA"/>
<path d="M247.077 59.7274C246.148 59.7428 245.395 59.1073 245.395 58.309C245.395 50.1034 245.395 41.8976 245.395 33.692C245.395 32.8935 246.148 32.2582 247.077 32.2736C248.006 32.289 248.759 32.9461 248.759 33.7407C248.759 41.914 248.759 50.087 248.759 58.2604C248.759 59.0549 248.006 59.7123 247.077 59.7274Z" fill="#E0E4EA"/>
<path d="M256.196 74.4708C255.268 74.5075 254.516 73.8962 254.516 73.1066C254.516 55.0357 254.516 36.9647 254.516 18.8938C254.516 18.1042 255.268 17.4929 256.196 17.5296C257.124 17.5664 257.877 18.2334 257.877 19.0188C257.877 37.0064 257.877 54.994 257.877 72.9816C257.877 73.767 257.124 74.4341 256.196 74.4708Z" fill="#E0E4EA"/>
<path d="M265.3 74.0902C264.373 74.1319 263.621 73.5328 263.621 72.7533C263.621 54.9178 263.621 37.0823 263.621 19.2467C263.621 18.4673 264.373 17.8685 265.3 17.9101C266.227 17.9516 266.978 18.6139 266.978 19.3886C266.978 37.1296 266.978 54.8709 266.978 72.6119C266.978 73.3864 266.227 74.0488 265.3 74.0902Z" fill="#E0E4EA"/>
<path d="M274.395 58.6473C273.47 58.6688 272.719 58.0633 272.719 57.2956C272.719 49.7655 272.719 42.2354 272.719 34.7053C272.719 33.9375 273.47 33.332 274.395 33.3536C275.321 33.3749 276.072 34.011 276.072 34.7733C276.072 42.2582 276.072 49.7429 276.072 57.2278C276.072 57.9901 275.321 58.6259 274.395 58.6473Z" fill="#E0E4EA"/>
<path d="M283.479 56.8487C282.555 56.8693 281.805 56.274 281.805 55.5191C281.805 49.1735 281.805 42.8277 281.805 36.4821C281.805 35.7273 282.555 35.1317 283.479 35.1525C284.403 35.1733 285.153 35.7975 285.153 36.5464C285.153 42.8493 285.153 49.1519 285.153 55.4548C285.153 56.2035 284.404 56.8279 283.479 56.8487Z" fill="#E0E4EA"/>
<path d="M292.554 59.2244C291.631 59.2525 290.883 58.6745 290.883 57.9337C290.883 49.9782 290.883 42.0227 290.883 34.0672C290.883 33.3265 291.631 32.7485 292.554 32.7765C293.478 32.8048 294.226 33.423 294.226 34.1572C294.226 42.0527 294.226 49.9485 294.226 57.8439C294.226 58.578 293.478 59.1964 292.554 59.2244Z" fill="#E0E4EA"/>
<path d="M301.606 57.9297C300.685 57.958 299.938 57.3924 299.938 56.6673C299.938 49.5559 299.938 42.4448 299.938 35.3335C299.938 34.6081 300.685 34.0428 301.606 34.0711C302.528 34.0991 303.275 34.7049 303.275 35.4228C303.275 42.4746 303.275 49.5264 303.275 56.578C303.275 57.2959 302.528 57.9014 301.606 57.9297Z" fill="#E0E4EA"/>
<path d="M310.646 56.1654C309.727 56.1919 308.98 55.639 308.98 54.9307C308.98 48.9774 308.98 43.0238 308.98 37.0702C308.98 36.3617 309.726 35.8087 310.646 35.8355C311.566 35.8621 312.311 36.4522 312.312 37.153C312.312 43.0513 312.312 48.9499 312.312 54.8482C312.311 55.5484 311.566 56.1386 310.646 56.1654Z" fill="#E0E4EA"/>
<path d="M319.671 54.9378C318.753 54.9638 318.008 54.4248 318.008 53.7346C318.008 48.5786 318.008 43.4225 318.008 38.2662C318.008 37.5758 318.753 37.037 319.671 37.0628C320.589 37.0888 321.332 37.6631 321.332 38.345C321.332 43.4485 321.332 48.552 321.332 53.6558C321.332 54.3377 320.589 54.912 319.671 54.9378Z" fill="#E0E4EA"/>
<path d="M328.671 78.5035C327.755 78.6055 327.012 78.1431 327.012 77.4723C327.012 56.4908 327.012 35.5095 327.012 14.528C327.012 13.8572 327.755 13.3948 328.671 13.4968C329.587 13.5987 330.329 14.2191 330.329 14.881C330.329 35.6268 330.329 56.373 330.329 77.1188C330.329 77.7812 329.587 78.4016 328.671 78.5035Z" fill="#E0E4EA"/>
<path d="M337.655 68.8824C336.741 68.9615 336 68.4976 336 67.8477C336 53.2827 336 38.7179 336 24.1529C336 23.5029 336.741 23.039 337.655 23.1182C338.569 23.1973 339.31 23.7815 339.31 24.4223C339.31 38.8077 339.31 53.1929 339.31 67.5783C339.31 68.219 338.569 68.8035 337.655 68.8824Z" fill="#E0E4EA"/>
<path d="M346.62 58.9189C345.709 58.9683 344.969 58.4987 344.969 57.8708C344.969 49.9572 344.969 42.0436 344.969 34.1298C344.969 33.5017 345.708 33.0323 346.62 33.0817C347.532 33.1311 348.271 33.6726 348.271 34.2905C348.271 42.0969 348.271 49.9036 348.271 57.7101C348.271 58.328 347.532 58.8695 346.62 58.9189Z" fill="#E0E4EA"/>
<path d="M355.557 53.3871C354.648 53.4186 353.91 52.9535 353.91 52.3487C353.91 48.1164 353.91 43.8841 353.91 39.6519C353.91 39.0473 354.648 38.5822 355.557 38.6137C356.466 38.6449 357.203 39.1525 357.203 39.7464C357.203 43.9156 357.203 48.0851 357.203 52.2544C357.203 52.8485 356.467 53.3558 355.557 53.3871Z" fill="#E0E4EA"/>
<path d="M364.474 56.7023C363.568 56.7519 362.832 56.3215 362.832 55.7415C362.832 49.2474 362.832 42.7535 362.832 36.2593C362.832 35.6794 363.568 35.249 364.474 35.2986C365.381 35.3482 366.116 35.8498 366.116 36.4186C366.116 42.8066 366.116 49.1946 366.116 55.5825C366.116 56.1511 365.381 56.653 364.474 56.7023Z" fill="#E0E4EA"/>
<path d="M373.364 56.5961C372.46 56.6502 371.727 56.2443 371.727 55.6904C371.727 49.2302 371.727 42.7703 371.727 36.3101C371.727 35.7562 372.46 35.3506 373.364 35.4045C374.268 35.4585 375.001 35.9423 375.001 36.4843C375.001 42.8281 375.001 49.1722 375.001 55.516C375.001 56.0583 374.269 56.542 373.364 56.5961Z" fill="#E0E4EA"/>
</svg>
