<svg width="32" height="31" viewBox="0 0 32 31" fill="none" xmlns="http://www.w3.org/2000/svg">
<path d="M29.1593 6.23664H26.0754C26.4766 5.65301 26.7232 4.95673 26.7232 4.19465C26.7232 2.68397 25.8557 1.38586 24.46 0.807774C23.0643 0.230468 21.533 0.535002 20.4649 1.60235L16.1669 5.90041L11.8688 1.60235C10.7998 0.533374 9.26932 0.229684 7.87369 0.807774C6.47807 1.38586 5.61046 2.68397 5.61046 4.19465C5.61046 4.95197 5.84598 5.65295 6.2417 6.23664H3.17437C1.83106 6.23664 0.738281 7.32936 0.738281 8.67273V13.5449C0.738281 14.8882 1.83106 15.981 3.17437 15.981H3.98642V26.5374C3.98642 28.776 5.80795 30.5975 8.04654 30.5975H24.2872C26.5258 30.5975 28.3473 28.776 28.3473 26.5374V15.981H29.1593C30.5026 15.981 31.5954 14.8882 31.5954 13.5449V8.67273C31.5954 7.32936 30.5026 6.23664 29.1593 6.23664ZM21.6131 2.75057C22.3236 2.04007 23.2277 2.05592 23.8383 2.30808C24.4473 2.56024 25.0992 3.18829 25.0992 4.19465C25.0992 5.32069 24.1824 6.23664 23.0564 6.23664H18.1271L21.6131 2.75057ZM7.23449 4.19465C7.23449 3.18835 7.88557 2.5603 8.49536 2.30808C8.72847 2.21135 9.00444 2.14946 9.29626 2.14946C9.76731 2.14946 10.2812 2.31122 10.7205 2.75057L14.2065 6.23658H9.27643C8.15044 6.23664 7.23449 5.32069 7.23449 4.19465ZM26.7232 26.5374C26.7232 27.8807 25.6305 28.9735 24.2872 28.9735H16.9789V18.4171C16.9789 17.9683 16.6157 17.605 16.1669 17.605C15.7188 17.605 15.3548 17.9682 15.3548 18.4171V28.9735H8.04654C6.70323 28.9735 5.61046 27.8807 5.61046 26.5374V15.981H26.7232V26.5374ZM29.9714 13.5449C29.9714 13.9922 29.6066 14.357 29.1593 14.357H27.5353H16.9963V10.2968C16.9963 9.84801 16.6331 9.48478 16.1843 9.48478C15.7354 9.48478 15.3722 9.84795 15.3722 10.2968V14.357H4.79841H3.17437C2.72712 14.357 2.36232 13.9922 2.36232 13.5449V8.67273C2.36232 8.22548 2.72712 7.86068 3.17437 7.86068H29.1593C29.6066 7.86068 29.9714 8.22548 29.9714 8.67273V13.5449Z" fill="#E6514A"/>
</svg>
