<svg width="210" height="164" viewBox="0 0 210 164" fill="none" xmlns="http://www.w3.org/2000/svg">
<path d="M49.6193 119.835C47.812 119.848 46.1994 119.497 44.7815 118.78C43.3635 118.042 42.2446 117.022 41.4249 115.719C40.626 114.416 40.2205 112.934 40.2084 111.272C40.1962 109.589 40.5801 108.101 41.3601 106.807C42.1608 105.493 43.2647 104.467 44.672 103.729C46.0792 102.971 47.6864 102.586 49.4937 102.573C51.2595 102.56 52.7994 102.922 54.1136 103.661C55.4276 104.378 56.4012 105.42 57.0344 106.787L53.2787 108.84C52.8367 108.053 52.282 107.476 51.6145 107.107C50.9678 106.737 50.2602 106.556 49.4916 106.561C48.6606 106.567 47.9141 106.76 47.2521 107.138C46.5901 107.517 46.0642 108.051 45.6745 108.739C45.3056 109.427 45.1246 110.26 45.1317 111.236C45.1388 112.212 45.3318 113.042 45.7107 113.725C46.1104 114.407 46.644 114.933 47.3115 115.302C47.979 115.671 48.7281 115.853 49.5591 115.847C50.3277 115.841 51.0327 115.66 51.6741 115.302C52.3362 114.923 52.8824 114.327 53.3127 113.514L57.098 115.543C56.4847 116.898 55.5263 117.954 54.223 118.711C52.9196 119.448 51.385 119.822 49.6193 119.835Z" fill="#FF8580"/>
<path d="M71.953 119.424L66.2864 111.518L70.2267 109.153L77.6864 119.382L71.953 119.424ZM60.0809 119.51L59.959 102.746L64.82 102.71L64.9419 119.475L60.0809 119.51ZM63.4623 113.128L63.434 109.233L69.2921 109.191L69.3204 113.086L63.4623 113.128ZM70.712 111.611L66.159 111.145L71.9869 102.658L77.1594 102.621L70.712 111.611Z" fill="#FF8580"/>
<path d="M80.0734 119.364L79.9514 102.6L84.7813 102.565L84.8538 112.536L92.9452 102.506L97.4012 102.473L97.5231 119.238L92.6932 119.273L92.6207 109.301L84.5604 119.332L80.0734 119.364Z" fill="#FF8580"/>
<path d="M113.709 116.939L113.632 106.344L108.148 106.384L108.07 108.535C108.035 109.428 107.989 110.28 107.933 111.091C107.877 111.902 107.757 112.64 107.575 113.306C107.414 113.951 107.168 114.504 106.839 114.963C106.51 115.402 106.066 115.706 105.506 115.876L100.702 115.226C101.305 115.221 101.792 115.041 102.163 114.685C102.534 114.309 102.821 113.798 103.024 113.152C103.227 112.486 103.378 111.737 103.476 110.905C103.573 110.053 103.639 109.159 103.674 108.224L103.85 102.427L118.464 102.32L118.57 116.903L113.709 116.939ZM100.197 122.833L100.141 115.23L120.956 115.078L121.012 122.682L116.494 122.714L116.467 119.1L104.689 119.185L104.715 122.8L100.197 122.833Z" fill="#FF8580"/>
<path d="M135.917 118.958L130.25 111.053L134.19 108.688L141.65 118.917L135.917 118.958ZM124.045 119.045L123.923 102.281L128.784 102.245L128.906 119.009L124.045 119.045ZM127.426 112.663L127.398 108.768L133.256 108.725L133.284 112.621L127.426 112.663ZM134.676 111.146L130.123 110.68L135.95 102.193L141.123 102.155L134.676 111.146Z" fill="#FF8580"/>
<path d="M153.766 118.829L153.742 115.557L153.426 114.842L153.383 108.984C153.375 107.946 153.048 107.138 152.399 106.561C151.772 105.984 150.804 105.7 149.495 105.709C148.602 105.716 147.72 105.868 146.85 106.165C146 106.441 145.276 106.82 144.677 107.302L142.907 103.919C143.816 103.268 144.914 102.762 146.199 102.399C147.484 102.036 148.792 101.85 150.121 101.841C152.677 101.822 154.665 102.41 156.086 103.605C157.508 104.799 158.227 106.674 158.246 109.229L158.316 118.795L153.766 118.829ZM148.658 119.115C147.349 119.125 146.226 118.915 145.288 118.485C144.35 118.035 143.628 117.427 143.124 116.662C142.62 115.897 142.365 115.037 142.358 114.081C142.35 113.084 142.583 112.21 143.055 111.459C143.548 110.707 144.323 110.12 145.38 109.697C146.436 109.253 147.816 109.025 149.519 109.012L153.975 108.98L153.996 111.815L150.07 111.844C148.927 111.852 148.139 112.045 147.705 112.422C147.293 112.799 147.088 113.268 147.092 113.829C147.097 114.452 147.339 114.949 147.82 115.319C148.321 115.669 148.998 115.841 149.849 115.834C150.659 115.828 151.385 115.636 152.026 115.258C152.667 114.858 153.131 114.284 153.416 113.534L154.18 115.772C153.835 116.854 153.197 117.68 152.266 118.247C151.336 118.815 150.133 119.104 148.658 119.115Z" fill="#FF8580"/>
<path d="M0.346644 157.545L0.224738 140.781L5.05457 140.746L5.10215 147.29L12.3936 147.237L12.3461 140.693L17.207 140.658L17.3289 157.422L12.468 157.457L12.4224 151.194L5.13093 151.247L5.17648 157.51L0.346644 157.545Z" fill="#FF8580"/>
<path d="M32.0159 157.315L31.9921 154.043L31.6753 153.329L31.6327 147.471C31.6251 146.432 31.2972 145.624 30.649 145.047C30.0216 144.47 29.0535 144.186 27.7448 144.196C26.8515 144.202 25.9697 144.354 25.0993 144.651C24.2496 144.927 23.5252 145.307 22.9263 145.789L21.1566 142.405C22.066 141.754 23.1633 141.248 24.4487 140.885C25.7341 140.523 27.0415 140.337 28.371 140.327C30.9262 140.309 32.9144 140.897 34.3358 142.091C35.7571 143.286 36.4771 145.161 36.4957 147.716L36.5653 157.282L32.0159 157.315ZM26.9074 157.601C25.5987 157.611 24.4753 157.401 23.5373 156.972C22.5992 156.521 21.8781 155.914 21.3739 155.149C20.8698 154.384 20.6142 153.523 20.6073 152.568C20.6 151.571 20.8326 150.696 21.3049 149.945C21.798 149.194 22.5728 148.606 23.6293 148.183C24.6855 147.739 26.0654 147.511 27.7688 147.499L32.2247 147.466L32.2453 150.302L28.3191 150.33C27.1766 150.339 26.3886 150.531 25.9551 150.909C25.5423 151.285 25.338 151.754 25.342 152.315C25.3466 152.938 25.5891 153.435 26.0696 153.806C26.5707 154.155 27.2472 154.327 28.0989 154.321C28.909 154.315 29.6347 154.123 30.276 153.744C30.9171 153.345 31.3804 152.77 31.6657 152.02L32.4299 154.258C32.0846 155.341 31.4466 156.166 30.5159 156.734C29.5852 157.301 28.3823 157.591 26.9074 157.601Z" fill="#FF8580"/>
<path d="M57.4668 157.379C55.6803 157.392 54.0884 157.03 52.6911 156.292C51.3146 155.554 50.2166 154.544 49.3971 153.262C48.5982 151.959 48.1927 150.477 48.1806 148.815C48.1684 147.132 48.5523 145.644 49.3323 144.35C50.1329 143.036 51.2161 142.01 52.5819 141.273C53.9683 140.515 55.5547 140.129 57.3413 140.116C59.107 140.104 60.6885 140.466 62.0858 141.204C63.4829 141.921 64.5808 142.92 65.3796 144.203C66.1783 145.485 66.5839 146.978 66.5963 148.681C66.6084 150.343 66.2245 151.831 65.4446 153.145C64.6646 154.439 63.5814 155.465 62.195 156.223C60.8086 156.981 59.2325 157.366 57.4668 157.379ZM57.4378 153.391C58.248 153.385 58.9737 153.193 59.6149 152.814C60.2562 152.435 60.7613 151.902 61.1302 151.214C61.499 150.505 61.6799 149.672 61.673 148.717C61.6659 147.74 61.4729 146.911 61.094 146.228C60.7151 145.545 60.2022 145.019 59.5556 144.65C58.9089 144.281 58.1804 144.099 57.3703 144.105C56.5601 144.111 55.8344 144.303 55.1931 144.682C54.5519 145.06 54.0364 145.594 53.6467 146.282C53.2777 146.97 53.0968 147.803 53.1039 148.779C53.1109 149.735 53.3039 150.564 53.6829 151.268C54.0826 151.95 54.6058 152.476 55.2525 152.846C55.8992 153.215 56.6276 153.397 57.4378 153.391Z" fill="#FF8580"/>
<path d="M78.3231 157.352C76.9521 157.362 75.7042 157.174 74.5796 156.787C73.4548 156.38 72.4738 155.753 71.6367 154.908C70.8202 154.041 70.1785 152.934 69.7117 151.588C69.2656 150.24 69.0358 148.632 69.0222 146.762C69.0125 145.433 69.1179 144.217 69.3385 143.114C69.5589 142.012 69.8945 141.012 70.345 140.115C70.7954 139.198 71.3712 138.394 72.0725 137.703C72.7944 136.992 73.6315 136.404 74.5838 135.94C75.5567 135.455 76.655 135.084 77.8789 134.825L85.8443 133.178L86.529 137.349L79.497 138.802C79.0822 138.888 78.6052 139.006 78.0661 139.156C77.5477 139.284 77.0194 139.485 76.4813 139.759C75.9639 140.033 75.4785 140.421 75.0251 140.923C74.5924 141.404 74.2438 142.04 73.9795 142.831C73.715 143.602 73.587 144.558 73.5953 145.701C73.5978 146.054 73.6102 146.324 73.6323 146.511C73.6752 146.697 73.7078 146.895 73.7301 147.102C73.7732 147.31 73.7963 147.631 73.7995 148.068L72.2303 146.552C72.6803 145.572 73.2559 144.737 73.9572 144.047C74.6793 143.356 75.5064 142.83 76.4387 142.47C77.3915 142.09 78.4496 141.895 79.6129 141.887C81.1917 141.875 82.5755 142.187 83.7643 142.822C84.9737 143.437 85.9149 144.313 86.588 145.451C87.261 146.588 87.6028 147.884 87.6134 149.338C87.6249 150.917 87.2403 152.312 86.4597 153.522C85.6789 154.712 84.5846 155.645 83.1769 156.32C81.7899 156.995 80.172 157.339 78.3231 157.352ZM78.545 153.58C79.3552 153.574 80.0706 153.392 80.6912 153.035C81.3117 152.656 81.7859 152.164 82.1139 151.56C82.4625 150.934 82.634 150.237 82.6284 149.468C82.623 148.72 82.4416 148.057 82.0842 147.478C81.7476 146.898 81.2665 146.445 80.6409 146.117C80.0153 145.789 79.287 145.628 78.456 145.634C77.6459 145.64 76.92 145.812 76.2785 146.149C75.6367 146.465 75.1413 146.905 74.7923 147.468C74.4432 148.032 74.2714 148.687 74.2768 149.435C74.2824 150.204 74.4641 150.909 74.822 151.55C75.2004 152.171 75.7026 152.666 76.3285 153.035C76.9752 153.404 77.7141 153.586 78.545 153.58Z" fill="#FF8580"/>
<path d="M92.8308 163.167C91.9584 163.174 91.0953 163.045 90.2416 162.781C89.3879 162.517 88.6893 162.148 88.1457 161.675L89.8967 158.203C90.273 158.533 90.7008 158.789 91.1799 158.973C91.6798 159.156 92.1687 159.246 92.6465 159.242C93.332 159.237 93.8709 159.067 94.2632 158.732C94.6764 158.417 95.0465 157.885 95.3734 157.135L96.2309 155.072L96.601 154.539L102.51 140.037L107.184 140.003L99.7413 157.851C99.211 159.205 98.5955 160.269 97.8948 161.043C97.2148 161.816 96.4501 162.362 95.6007 162.68C94.772 162.997 93.8487 163.16 92.8308 163.167ZM95.6565 157.507L88.0514 140.142L93.0682 140.106L98.966 154.086L95.6565 157.507Z" fill="#FF8580"/>
<path d="M120.167 150.255C119.485 150.633 118.729 150.94 117.899 151.175C117.07 151.409 116.157 151.53 115.16 151.537C112.958 151.553 111.261 151.067 110.07 150.079C108.878 149.069 108.274 147.464 108.258 145.262L108.22 139.996L113.081 139.96L113.117 144.915C113.125 145.954 113.4 146.699 113.944 147.152C114.487 147.585 115.247 147.797 116.223 147.79C116.929 147.785 117.604 147.697 118.247 147.526C118.91 147.355 119.542 147.112 120.142 146.796L120.167 150.255ZM119.871 156.676L119.749 139.912L124.61 139.877L124.732 156.641L119.871 156.676Z" fill="#FF8580"/>
<path d="M137.597 156.796C135.686 156.81 134 156.449 132.541 155.711C131.102 154.974 129.983 153.964 129.184 152.682C128.385 151.379 127.98 149.897 127.968 148.235C127.956 146.552 128.329 145.064 129.088 143.77C129.868 142.456 130.931 141.43 132.276 140.693C133.62 139.936 135.145 139.551 136.848 139.538C138.489 139.526 139.967 139.869 141.28 140.566C142.615 141.241 143.671 142.231 144.449 143.534C145.227 144.816 145.623 146.361 145.636 148.168C145.637 148.355 145.629 148.574 145.61 148.823C145.591 149.052 145.571 149.27 145.552 149.478L131.935 149.577L131.914 146.741L142.976 146.661L141.113 147.516C141.106 146.643 140.924 145.886 140.567 145.245C140.209 144.604 139.717 144.109 139.091 143.76C138.465 143.391 137.737 143.209 136.906 143.215C136.075 143.221 135.339 143.413 134.698 143.792C134.077 144.15 133.592 144.662 133.244 145.329C132.896 145.976 132.725 146.746 132.731 147.639L132.737 148.387C132.743 149.301 132.947 150.11 133.346 150.813C133.767 151.496 134.342 152.021 135.072 152.39C135.822 152.738 136.696 152.908 137.693 152.901C138.586 152.894 139.364 152.753 140.027 152.478C140.711 152.203 141.331 151.794 141.888 151.25L144.495 154.035C143.732 154.913 142.771 155.595 141.611 156.082C140.451 156.547 139.113 156.785 137.597 156.796Z" fill="#FF8580"/>
<path d="M149.423 156.461L149.301 139.697L154.131 139.662L154.178 146.205L161.47 146.152L161.422 139.609L166.283 139.573L166.405 156.338L161.544 156.373L161.498 150.11L154.207 150.163L154.252 156.426L149.423 156.461Z" fill="#FF8580"/>
<path d="M171.058 156.304L170.936 139.54L175.766 139.505L175.839 149.476L183.93 139.445L188.386 139.413L188.508 156.177L183.678 156.212L183.606 146.241L175.545 156.271L171.058 156.304Z" fill="#FF8580"/>
<path d="M201.378 156.333C199.467 156.347 197.781 155.985 196.322 155.248C194.883 154.51 193.764 153.5 192.965 152.218C192.166 150.915 191.761 149.433 191.749 147.771C191.737 146.088 192.11 144.6 192.869 143.307C193.649 141.992 194.712 140.966 196.057 140.229C197.401 139.472 198.926 139.087 200.629 139.074C202.27 139.062 203.748 139.405 205.061 140.102C206.396 140.778 207.452 141.767 208.23 143.07C209.008 144.353 209.404 145.897 209.417 147.705C209.418 147.892 209.41 148.11 209.391 148.359C209.372 148.588 209.352 148.806 209.333 149.014L195.716 149.113L195.695 146.278L206.757 146.197L204.894 147.052C204.887 146.179 204.705 145.423 204.348 144.781C203.99 144.14 203.498 143.645 202.872 143.296C202.246 142.927 201.518 142.745 200.687 142.751C199.856 142.757 199.12 142.949 198.479 143.328C197.858 143.686 197.373 144.198 197.025 144.866C196.677 145.512 196.506 146.282 196.512 147.175L196.518 147.923C196.524 148.837 196.728 149.646 197.127 150.349C197.548 151.032 198.123 151.557 198.853 151.926C199.603 152.274 200.477 152.444 201.474 152.437C202.367 152.43 203.145 152.289 203.808 152.015C204.492 151.74 205.112 151.33 205.669 150.786L208.276 153.571C207.513 154.449 206.552 155.132 205.392 155.618C204.232 156.083 202.894 156.322 201.378 156.333Z" fill="#FF8580"/>
<path d="M3.75023 67.3658L3.66593 55.7742L27.9913 32.6934C29.7245 31.0603 30.9916 29.6177 31.7927 28.3654C32.6561 27.1126 33.2089 25.9868 33.4509 24.9878C33.7548 23.9261 33.9036 22.959 33.8972 22.0865C33.8818 19.9676 33.1531 18.3214 31.7111 17.1477C30.3315 15.9736 28.2394 15.3967 25.435 15.4171C23.0669 15.4344 20.8583 15.9802 18.8095 17.0546C16.7606 18.129 15.0895 19.7304 13.7962 21.8588L-0.00121078 14.2933C2.39937 10.1625 5.89646 6.8339 10.49 4.30755C15.0836 1.78119 20.5899 0.494676 27.0089 0.447997C32.0569 0.411288 36.4875 1.18927 40.3008 2.78196C44.1142 4.37464 47.0911 6.65897 49.2318 9.63494C51.4348 12.6105 52.551 16.1236 52.5804 20.1745C52.5958 22.2933 52.3308 24.4143 51.7853 26.5372C51.2394 28.5979 50.1649 30.8182 48.5618 33.1982C47.0205 35.5153 44.7023 38.1186 41.6072 41.008L22.2937 59.0977L19.1613 52.5765L54.5904 52.3189L54.6971 66.9953L3.75023 67.3658Z" fill="#FF8580"/>
<path d="M88.9797 68.0548C83.3709 68.0956 78.3755 66.7919 73.9936 64.1439C69.674 61.4954 66.2494 57.6562 63.7199 52.6264C61.1904 47.5966 59.8993 41.4671 59.8468 34.2379C59.7942 27.0088 60.9959 20.8611 63.4521 15.7951C65.9082 10.729 69.2765 6.84041 73.5571 4.12937C77.9001 1.41786 82.876 0.041714 88.4848 0.000922265C94.0313 -0.0394121 98.9644 1.26468 103.284 3.91318C107.666 6.56124 111.122 10.4002 113.651 15.43C116.181 20.4598 117.472 26.5893 117.524 33.8185C117.577 41.0476 116.375 47.1953 113.919 52.2613C111.463 57.3274 108.063 61.2162 103.72 63.9277C99.4398 66.6388 94.5262 68.0145 88.9797 68.0548ZM88.8696 52.9109C90.8638 52.8964 92.6043 52.2605 94.0909 51.0033C95.6398 49.7455 96.8406 47.7424 97.6931 44.994C98.5452 42.1832 98.9547 38.5031 98.9216 33.9538C98.8881 29.3421 98.4251 25.6683 97.5327 22.9326C96.6403 20.1968 95.4105 18.2114 93.8434 16.9763C92.3387 15.7408 90.5892 15.1303 88.5949 15.1448C86.6007 15.1593 84.8291 15.7954 83.2801 17.0531C81.7935 18.3104 80.5928 20.3135 79.6779 23.0624C78.8254 25.8109 78.4159 29.4909 78.4494 34.1026C78.4825 38.652 78.9455 42.3258 79.8383 45.1238C80.7931 47.8591 82.0228 49.8445 83.5276 51.0801C85.0947 52.3152 86.8753 52.9254 88.8696 52.9109Z" fill="#FF8580"/>
<path d="M133.707 66.4207L177.915 0.659358L191.376 0.561469L147.168 66.3228L133.707 66.4207ZM139.472 36.3699C136.293 36.3931 133.421 35.6972 130.856 34.2824C128.29 32.8676 126.281 30.8256 124.828 28.1562C123.375 25.4246 122.634 22.1579 122.607 18.3564C122.579 14.5549 123.272 11.309 124.686 8.61879C126.1 5.92858 128.079 3.85751 130.624 2.40556C133.168 0.891284 136.03 0.122592 139.208 0.0994768C142.449 0.0759111 145.321 0.802908 147.825 2.28047C150.39 3.69526 152.399 5.73733 153.852 8.40669C155.367 11.0756 156.139 14.3108 156.166 18.1123C156.194 21.8516 155.469 25.0977 153.994 27.8506C152.58 30.6032 150.601 32.7054 148.056 34.1573C145.574 35.6088 142.712 36.3464 139.472 36.3699ZM139.501 27.4886C141.059 27.4773 142.331 26.7513 143.318 25.3107C144.367 23.8696 144.879 21.4976 144.855 18.1946C144.831 14.8916 144.284 12.5273 143.214 11.1016C142.207 9.67552 140.924 8.96813 139.366 8.97945C137.808 8.99078 136.473 9.71722 135.362 11.1587C134.313 12.5998 133.8 14.9718 133.825 18.2748C133.849 21.5778 134.395 23.9421 135.465 25.3678C136.598 26.793 137.943 27.4999 139.501 27.4886ZM185.875 66.8827C182.635 66.9063 179.732 66.2107 177.166 64.7959C174.663 63.3806 172.685 61.3383 171.232 58.669C169.779 55.9373 169.038 52.6707 169.011 48.8692C168.983 45.0676 169.676 41.8217 171.09 39.1315C172.504 36.4413 174.452 34.3705 176.934 32.919C179.479 31.4047 182.371 30.6358 185.612 30.6122C188.852 30.5887 191.725 31.3157 194.228 32.7932C196.794 34.208 198.803 36.2501 200.256 38.9194C201.771 41.5883 202.542 44.8236 202.57 48.6251C202.598 52.4267 201.874 55.7039 200.398 58.4569C198.984 61.1471 197.005 63.2182 194.46 64.6701C191.978 66.1216 189.116 66.8591 185.875 66.8827ZM185.811 58.002C187.369 57.9907 188.672 57.2645 189.721 55.8234C190.77 54.3824 191.283 52.0103 191.259 48.7074C191.235 45.4044 190.688 43.0401 189.618 41.6144C188.548 40.1887 187.234 39.4816 185.676 39.4929C184.181 39.5038 182.877 40.23 181.766 41.6715C180.717 43.1126 180.204 45.4846 180.228 48.7876C180.252 52.0906 180.799 54.4549 181.869 55.8806C183.001 57.3058 184.315 58.0129 185.811 58.002Z" fill="#FF8580"/>
</svg>
